<svg width="344" height="868" viewBox="0 0 344 868" fill="none" xmlns="http://www.w3.org/2000/svg">
<path d="M275.583 861.967L270.573 864.634L275.08 867.988L276.363 862.548L275.583 861.967ZM332.065 672.109L332.471 671.793L332.065 672.109ZM225.948 391.818L225.471 391.692L225.948 391.818ZM3.69544 0.382983L0.1828 5.15067L5.92381 5.56323L3.69544 0.382983ZM280.798 856.603C282.398 854.422 284.028 852.153 285.679 849.807L284.869 849.266C283.221 851.607 281.595 853.87 280 856.046L280.798 856.603ZM290.443 842.903C291.979 840.633 293.526 838.303 295.076 835.921L294.244 835.413C292.697 837.79 291.153 840.114 289.621 842.379L290.443 842.903ZM299.571 828.88C301.033 826.545 302.492 824.169 303.942 821.756L303.089 821.281C301.642 823.688 300.187 826.059 298.729 828.388L299.571 828.88ZM308.18 814.555C309.562 812.157 310.93 809.729 312.279 807.277L311.406 806.837C310.06 809.283 308.695 811.704 307.317 814.097L308.18 814.555ZM316.229 799.924C317.517 797.465 318.782 794.987 320.018 792.494L319.124 792.094C317.891 794.58 316.63 797.051 315.345 799.503L316.229 799.924ZM323.633 784.988C324.81 782.468 325.953 779.938 327.058 777.401L326.142 777.049C325.04 779.577 323.901 782.099 322.728 784.611L323.633 784.988ZM330.274 769.731C331.313 767.146 332.309 764.559 333.254 761.975L332.314 761.682C331.373 764.255 330.381 766.831 329.345 769.406L330.274 769.731ZM335.969 754.135C336.833 751.484 337.639 748.842 338.381 746.212L337.417 745.994C336.679 748.609 335.877 751.239 335.017 753.877L335.969 754.135ZM340.444 738.212C341.075 735.501 341.629 732.81 342.101 730.144L341.114 730.025C340.646 732.672 340.095 735.345 339.468 738.04L340.444 738.212ZM343.286 722.003C343.598 719.238 343.808 716.509 343.91 713.822L342.908 713.841C342.807 716.502 342.599 719.206 342.29 721.947L343.286 722.003ZM343.869 705.663C343.73 702.913 343.46 700.217 343.048 697.586L342.057 697.794C342.463 700.389 342.731 703.051 342.868 705.769L343.869 705.663ZM341.318 689.68C340.574 687.077 339.665 684.554 338.579 682.12L337.659 682.566C338.725 684.959 339.62 687.441 340.353 690.002L341.318 689.68ZM334.775 675.075C334.053 673.956 333.286 672.862 332.471 671.793L331.659 672.424C332.46 673.473 333.213 674.548 333.922 675.646L334.775 675.075ZM332.471 671.793C331.705 670.79 330.921 669.792 330.118 668.798L329.323 669.449C330.12 670.437 330.9 671.428 331.659 672.424L332.471 671.793ZM325.166 662.962C323.493 661.079 321.762 659.206 319.979 657.34L319.234 658.048C321.01 659.908 322.734 661.772 324.398 663.646L325.166 662.962ZM314.621 651.885C312.832 650.109 311.003 648.334 309.142 646.556L308.426 647.294C310.284 649.069 312.109 650.84 313.893 652.611L314.621 651.885ZM303.581 641.314C301.735 639.592 299.864 637.863 297.976 636.123L297.272 636.872C299.16 638.612 301.029 640.339 302.874 642.059L303.581 641.314ZM292.354 630.952C290.493 629.239 288.622 627.513 286.744 625.77L286.038 626.517C287.917 628.262 289.79 629.989 291.651 631.701L292.354 630.952ZM281.17 620.552C279.331 618.813 277.492 617.054 275.657 615.272L274.936 616.005C276.774 617.79 278.617 619.552 280.458 621.293L281.17 620.552ZM270.231 609.913C268.448 608.12 266.675 606.301 264.916 604.455L264.17 605.162C265.934 607.014 267.712 608.837 269.499 610.635L270.231 609.913ZM259.73 598.874C258.032 596.999 256.353 595.094 254.696 593.155L253.917 593.826C255.579 595.771 257.264 597.683 258.968 599.564L259.73 598.874ZM249.84 587.285C248.26 585.309 246.706 583.299 245.184 581.251L244.366 581.873C245.895 583.93 247.455 585.949 249.042 587.932L249.84 587.285ZM240.753 575.044C239.325 572.959 237.931 570.835 236.576 568.67L235.716 569.231C237.079 571.408 238.479 573.542 239.914 575.637L240.753 575.044ZM232.674 562.124C231.429 559.926 230.224 557.686 229.064 555.402L228.163 555.891C229.33 558.189 230.542 560.441 231.794 562.651L232.674 562.124ZM225.762 548.506C224.723 546.196 223.729 543.841 222.784 541.44L221.848 541.848C222.798 544.264 223.797 546.632 224.843 548.956L225.762 548.506ZM220.153 534.242C219.342 531.848 218.581 529.41 217.871 526.924L216.906 527.246C217.62 529.746 218.385 532.2 219.2 534.608L220.153 534.242ZM215.936 519.474C215.355 516.993 214.824 514.467 214.346 511.894L213.36 512.128C213.84 514.716 214.374 517.256 214.959 519.752L215.936 519.474ZM213.112 504.279C212.762 501.762 212.462 499.202 212.215 496.597L211.217 496.747C211.465 499.366 211.767 501.94 212.119 504.47L213.112 504.279ZM211.642 488.814C211.508 486.266 211.422 483.677 211.388 481.044L210.386 481.114C210.42 483.759 210.506 486.362 210.641 488.923L211.642 488.814ZM211.435 473.258C211.499 470.669 211.611 468.04 211.773 465.369L210.772 465.366C210.609 468.048 210.497 470.689 210.433 473.29L211.435 473.258ZM212.373 457.625C212.616 455.049 212.903 452.436 213.238 449.785L212.243 449.717C211.907 452.378 211.618 455.002 211.375 457.588L212.373 457.625ZM214.337 442.007C214.736 439.452 215.178 436.863 215.663 434.24L214.677 434.114C214.19 436.746 213.747 439.344 213.347 441.908L214.337 442.007ZM217.206 426.473C217.742 423.942 218.319 421.379 218.936 418.784L217.96 418.607C217.342 421.21 216.764 423.781 216.225 426.321L217.206 426.473ZM220.864 411.07C221.523 408.559 222.218 406.019 222.951 403.449L221.988 403.228C221.253 405.804 220.555 408.352 219.895 410.87L220.864 411.07ZM225.212 395.821C225.608 394.536 226.012 393.243 226.426 391.943L225.471 391.692C225.056 392.995 224.651 394.291 224.255 395.58L225.212 395.821ZM226.426 391.943C226.848 390.617 227.25 389.298 227.632 387.988L226.67 387.761C226.29 389.063 225.891 390.373 225.471 391.692L226.426 391.943ZM229.688 380.221C230.313 377.59 230.856 374.992 231.32 372.426L230.333 372.304C229.873 374.852 229.334 377.431 228.713 380.044L229.688 380.221ZM232.513 364.52C232.834 361.854 233.068 359.222 233.218 356.624L232.217 356.624C232.069 359.201 231.836 361.811 231.517 364.457L232.513 364.52ZM233.418 348.707C233.397 346.043 233.286 343.415 233.089 340.821L232.089 340.952C232.284 343.524 232.394 346.13 232.415 348.771L233.418 348.707ZM232.225 333.027C231.844 330.419 231.375 327.845 230.822 325.306L229.841 325.569C230.39 328.087 230.855 330.639 231.233 333.225L232.225 333.027ZM228.903 317.753C228.177 315.253 227.369 312.785 226.482 310.348L225.537 310.734C226.416 313.152 227.218 315.599 227.939 318.079L228.903 317.753ZM223.6 303.143C222.568 300.779 221.464 298.445 220.29 296.137L219.39 296.627C220.556 298.919 221.653 301.237 222.677 303.583L223.6 303.143ZM216.599 289.351C215.312 287.128 213.961 284.929 212.551 282.754L211.699 283.327C213.101 285.49 214.444 287.676 215.723 289.885L216.599 289.351ZM208.22 276.397C206.727 274.308 205.182 272.239 203.586 270.189L202.78 270.827C204.368 272.867 205.907 274.926 207.392 277.005L208.22 276.397ZM198.766 264.228C197.12 262.265 195.431 260.319 193.701 258.388L192.936 259.075C194.659 260.999 196.342 262.937 197.981 264.892L198.766 264.228ZM188.496 252.748C186.735 250.892 184.938 249.05 183.109 247.219L182.379 247.942C184.202 249.767 185.994 251.605 187.749 253.454L188.496 252.748ZM177.619 241.845C175.771 240.076 173.896 238.317 171.995 236.566L171.292 237.315C173.188 239.062 175.06 240.818 176.902 242.582L177.619 241.845ZM166.296 231.405C164.386 229.702 162.453 228.007 160.502 226.317L159.82 227.085C161.768 228.772 163.697 230.465 165.604 232.164L166.296 231.405ZM154.658 221.317C152.702 219.663 150.731 218.013 148.747 216.367L148.079 217.148C150.062 218.792 152.031 220.44 153.984 222.092L154.658 221.317ZM142.807 211.478C140.822 209.856 138.827 208.236 136.824 206.617L136.165 207.405C138.167 209.023 140.161 210.642 142.145 212.263L142.807 211.478ZM130.831 201.792C128.83 200.187 126.824 198.581 124.816 196.975L124.161 197.766C126.169 199.372 128.175 200.977 130.175 202.582L130.831 201.792ZM118.806 192.169C116.803 190.566 114.799 188.96 112.797 187.352L112.141 188.142C114.143 189.751 116.148 191.356 118.152 192.96L118.806 192.169ZM106.807 182.521C104.812 180.906 102.823 179.287 100.84 177.663L100.177 178.447C102.161 180.072 104.152 181.692 106.147 183.308L106.807 182.521ZM94.9034 172.762C92.9316 171.122 90.9693 169.475 89.0189 167.821L88.3438 168.596C90.2967 170.252 92.2612 171.9 94.2349 173.542L94.9034 172.762ZM83.1737 162.808C81.2378 161.128 79.3164 159.44 77.4119 157.741L76.7196 158.501C78.6273 160.202 80.5519 161.893 82.4906 163.576L83.1737 162.808ZM71.7026 152.572C69.8176 150.837 67.9524 149.092 66.1096 147.335L65.3946 148.073C67.2417 149.834 69.1109 151.583 70.9997 153.321L71.7026 152.572ZM60.5885 141.964C58.7718 140.16 56.9807 138.342 55.2177 136.51L54.4749 137.221C56.2429 139.058 58.0389 140.88 59.8603 142.689L60.5885 141.964ZM49.9481 130.895C48.2207 129.005 46.5251 127.1 44.8639 125.177L44.0879 125.852C45.755 127.781 47.4563 129.693 49.1893 131.588L49.9481 130.895ZM39.9219 119.277C38.3093 117.288 36.735 115.28 35.2021 113.252L34.3884 113.879C35.9279 115.916 37.5086 117.932 39.1276 119.929L39.9219 119.277ZM30.6778 107.031C29.2107 104.93 27.789 102.808 26.4158 100.663L25.5612 101.231C26.9414 103.388 28.3699 105.521 29.8439 107.63L30.6778 107.031ZM22.4112 94.0964C21.1253 91.8789 19.892 89.6361 18.7142 87.3666L17.8177 87.8631C19.0023 90.1457 20.2427 92.4012 21.5355 94.6308L22.4112 94.0964ZM15.3377 80.4483C14.271 78.116 13.2634 75.7554 12.318 73.3652L11.3821 73.7752C12.3337 76.1809 13.3477 78.5565 14.4209 80.9032L15.3377 80.4483ZM9.67361 66.1114C8.86121 63.6778 8.11317 61.2137 7.43252 58.7176L6.46376 59.0289C7.14913 61.5423 7.90231 64.0233 8.72019 66.4733L9.67361 66.1114ZM5.60465 51.174C5.07174 48.6634 4.60651 46.1207 4.21185 43.5447L3.22043 43.7492C3.61789 46.3434 4.08642 48.9041 4.62309 51.4324L5.60465 51.174ZM3.24915 35.7869C3.00531 33.2291 2.83021 30.639 2.72646 28.0153L1.7246 28.1108C1.82906 30.7526 2.00539 33.3608 2.25094 35.9365L3.24915 35.7869ZM2.63042 20.1424C2.6685 17.5651 2.7744 14.9561 2.95044 12.314L1.95001 12.3045C1.77284 14.9635 1.66623 17.5898 1.6279 20.1843L2.63042 20.1424Z" fill="#1890FF"/>
</svg>
