<svg width="1148" height="414" viewBox="0 0 1148 414" fill="none" xmlns="http://www.w3.org/2000/svg">
<path d="M18.9867 349.343L9.01407 336.046L0.985926 351.394L17.5962 352.001L18.9867 349.343ZM264.174 388.443L264.984 389.707L264.174 388.443ZM633.701 261.194L633.97 259.718L633.701 261.194ZM1148 9.35693L1133.38 0.0623894L1132.64 17.367L1148 9.35693ZM14.9837 350.52C17.3147 351.679 19.7247 352.855 22.2076 354.045L23.5038 351.339C21.0338 350.156 18.637 348.986 16.3192 347.833L14.9837 350.52ZM29.4721 357.465C31.8519 358.566 34.2876 359.674 36.7745 360.786L37.9992 358.048C35.5239 356.941 33.1 355.838 30.7318 354.742L29.4721 357.465ZM44.1146 364.014C46.534 365.059 48.9947 366.106 51.4931 367.15L52.6497 364.382C50.1627 363.342 47.7133 362.301 45.3051 361.26L44.1146 364.014ZM58.9106 370.196C61.3661 371.186 63.8527 372.173 66.3674 373.151L67.4555 370.356C64.9526 369.381 62.4774 368.4 60.0332 367.414L58.9106 370.196ZM73.8631 376.015C76.3521 376.948 78.8644 377.872 81.3972 378.784L82.414 375.962C79.8935 375.054 77.3933 374.134 74.9161 373.206L73.8631 376.015ZM88.9684 381.455C91.488 382.325 94.0245 383.182 96.5751 384.024L97.5153 381.175C94.978 380.338 92.4545 379.485 89.9476 378.62L88.9684 381.455ZM104.211 386.484C106.758 387.284 109.317 388.067 111.885 388.831L112.741 385.956C110.188 385.196 107.644 384.417 105.11 383.621L104.211 386.484ZM119.598 391.061C122.176 391.784 124.761 392.486 127.348 393.165L128.109 390.263C125.539 389.589 122.971 388.891 120.408 388.173L119.598 391.061ZM135.134 395.134C137.74 395.768 140.348 396.376 142.953 396.957L143.606 394.029C141.02 393.452 138.431 392.848 135.843 392.219L135.134 395.134ZM150.812 398.625C153.452 399.156 156.087 399.656 158.714 400.124L159.239 397.17C156.635 396.707 154.023 396.211 151.404 395.684L150.812 398.625ZM166.65 401.438C169.319 401.846 171.976 402.217 174.619 402.548L174.993 399.572C172.377 399.243 169.746 398.876 167.103 398.472L166.65 401.438ZM182.618 403.434C185.313 403.692 187.989 403.905 190.644 404.072L190.831 401.077C188.21 400.913 185.567 400.703 182.904 400.448L182.618 403.434ZM198.69 404.431C201.405 404.502 204.093 404.519 206.751 404.479L206.706 401.479C204.091 401.518 201.444 401.502 198.768 401.432L198.69 404.431ZM214.814 404.175C217.536 404.007 220.221 403.774 222.863 403.471L222.522 400.49C219.934 400.787 217.302 401.016 214.63 401.18L214.814 404.175ZM230.874 402.312C233.571 401.837 236.217 401.279 238.807 400.635L238.083 397.724C235.564 398.35 232.986 398.893 230.353 399.358L230.874 402.312ZM246.608 398.371C249.21 397.5 251.744 396.528 254.203 395.45L252.998 392.703C250.626 393.743 248.177 394.683 245.656 395.526L246.608 398.371ZM261.494 391.808C262.68 391.137 263.843 390.437 264.984 389.707L263.365 387.18C262.272 387.881 261.155 388.553 260.017 389.197L261.494 391.808ZM264.984 389.707C266.095 388.994 267.202 388.269 268.304 387.53L266.634 385.038C265.549 385.765 264.459 386.48 263.365 387.18L264.984 389.707ZM274.832 382.977C276.966 381.431 279.087 379.841 281.198 378.212L279.366 375.837C277.276 377.449 275.179 379.021 273.072 380.547L274.832 382.977ZM287.429 373.277C289.469 371.621 291.505 369.933 293.54 368.217L291.606 365.923C289.583 367.629 287.562 369.305 285.538 370.947L287.429 373.277ZM299.554 363.069C301.533 361.352 303.516 359.612 305.506 357.854L303.519 355.606C301.535 357.359 299.559 359.093 297.588 360.802L299.554 363.069ZM311.42 352.599C313.375 350.855 315.341 349.096 317.319 347.328L315.32 345.091C313.34 346.861 311.376 348.618 309.423 350.361L311.42 352.599ZM323.225 342.062C325.178 340.326 327.146 338.585 329.134 336.84L327.155 334.585C325.162 336.335 323.188 338.081 321.232 339.819L323.225 342.062ZM335.082 331.667C337.063 329.962 339.064 328.257 341.089 326.557L339.16 324.259C337.124 325.969 335.113 327.681 333.125 329.394L335.082 331.667ZM347.169 321.525C349.193 319.876 351.243 318.234 353.32 316.602L351.466 314.243C349.374 315.887 347.311 317.54 345.275 319.199L347.169 321.525ZM359.549 311.804C361.631 310.233 363.741 308.675 365.884 307.131L364.129 304.697C361.969 306.254 359.84 307.826 357.742 309.409L359.549 311.804ZM372.334 302.595C374.479 301.125 376.656 299.671 378.867 298.236L377.234 295.72C375.001 297.169 372.803 298.637 370.638 300.121L372.334 302.595ZM385.512 294.048C387.734 292.689 389.992 291.349 392.286 290.032L390.792 287.431C388.473 288.762 386.192 290.115 383.946 291.489L385.512 294.048ZM399.16 286.216C401.444 284.991 403.764 283.788 406.122 282.611L404.782 279.927C402.397 281.117 400.051 282.333 397.741 283.572L399.16 286.216ZM413.22 279.199C415.575 278.11 417.968 277.047 420.4 276.01L419.224 273.25C416.764 274.299 414.343 275.375 411.961 276.476L413.22 279.199ZM427.656 273.046C430.083 272.097 432.547 271.176 435.052 270.283L434.044 267.457C431.511 268.36 429.018 269.292 426.564 270.252L427.656 273.046ZM442.46 267.765C444.927 266.967 447.432 266.197 449.975 265.456L449.136 262.576C446.565 263.325 444.032 264.104 441.537 264.911L442.46 267.765ZM457.571 263.363C460.068 262.713 462.602 262.091 465.173 261.499L464.499 258.575C461.9 259.174 459.34 259.803 456.816 260.459L457.571 263.363ZM472.922 259.825C475.439 259.318 477.991 258.838 480.58 258.387L480.065 255.431C477.45 255.887 474.872 256.372 472.329 256.885L472.922 259.825ZM488.406 257.127C490.949 256.751 493.525 256.403 496.137 256.082L495.772 253.104C493.136 253.428 490.535 253.78 487.967 254.159L488.406 257.127ZM504.015 255.212C506.574 254.96 509.167 254.735 511.792 254.537L511.566 251.545C508.918 251.745 506.304 251.972 503.721 252.226L504.015 255.212ZM519.717 254.029C522.281 253.893 524.877 253.782 527.504 253.698L527.408 250.7C524.76 250.784 522.143 250.896 519.558 251.033L519.717 254.029ZM535.48 253.525C538.039 253.496 540.627 253.491 543.245 253.511L543.268 250.512C540.632 250.491 538.024 250.496 535.446 250.526L535.48 253.525ZM551.189 253.648C553.765 253.716 556.368 253.809 559.001 253.925L559.133 250.928C556.484 250.811 553.862 250.718 551.268 250.649L551.189 253.648ZM566.881 254.342C569.483 254.502 572.111 254.685 574.767 254.892L575 251.901C572.328 251.692 569.683 251.508 567.065 251.347L566.881 254.342ZM582.561 255.56C585.184 255.805 587.835 256.074 590.511 256.365L590.836 253.383C588.144 253.09 585.479 252.82 582.84 252.573L582.561 255.56ZM598.238 257.262C600.824 257.581 603.434 257.921 606.069 258.283L606.477 255.311C603.829 254.947 601.205 254.605 598.605 254.285L598.238 257.262ZM613.933 259.416C616.476 259.799 619.042 260.203 621.63 260.626L622.114 257.666C619.514 257.24 616.936 256.835 614.38 256.449L613.933 259.416ZM629.463 261.958C630.78 262.19 632.103 262.427 633.431 262.67L633.97 259.718C632.635 259.475 631.307 259.237 629.984 259.003L629.463 261.958ZM633.431 262.67C634.809 262.921 636.18 263.16 637.545 263.388L638.039 260.429C636.689 260.204 635.333 259.967 633.97 259.718L633.431 262.67ZM645.651 264.616C648.326 264.979 650.976 265.297 653.6 265.569L653.91 262.585C651.318 262.316 648.699 262.002 646.054 261.643L645.651 264.616ZM661.789 266.282C664.523 266.473 667.229 266.615 669.908 266.709L670.013 263.711C667.369 263.618 664.698 263.478 661.999 263.29L661.789 266.282ZM677.977 266.847C680.744 266.845 683.481 266.79 686.189 266.684L686.072 263.687C683.402 263.79 680.703 263.845 677.975 263.847L677.977 266.847ZM694.227 266.217C696.98 266.004 699.703 265.738 702.397 265.421L702.046 262.441C699.392 262.754 696.709 263.016 693.996 263.226L694.227 266.217ZM710.437 264.309C713.138 263.879 715.81 263.397 718.453 262.865L717.861 259.924C715.258 260.448 712.627 260.923 709.966 261.346L710.437 264.309ZM726.409 261.093C729.053 260.446 731.668 259.749 734.256 259.003L733.424 256.12C730.876 256.855 728.3 257.542 725.697 258.178L726.409 261.093ZM742.051 256.582C744.628 255.724 747.177 254.818 749.7 253.865L748.64 251.059C746.154 251.998 743.642 252.891 741.104 253.736L742.051 256.582ZM757.275 250.835C759.774 249.779 762.247 248.677 764.697 247.532L763.426 244.814C761.01 245.944 758.571 247.03 756.107 248.072L757.275 250.835ZM772.011 243.95C774.426 242.713 776.817 241.435 779.187 240.118L777.729 237.496C775.388 238.797 773.027 240.059 770.644 241.279L772.011 243.95ZM786.225 236.053C788.549 234.66 790.853 233.23 793.138 231.765L791.518 229.24C789.259 230.689 786.98 232.103 784.683 233.479L786.225 236.053ZM799.909 227.285C802.144 225.76 804.362 224.203 806.563 222.615L804.808 220.182C802.627 221.755 800.431 223.297 798.218 224.806L799.909 227.285ZM813.087 217.786C815.238 216.152 817.375 214.491 819.498 212.804L817.632 210.456C815.525 212.129 813.406 213.777 811.273 215.396L813.087 217.786ZM825.802 207.689C827.879 205.968 829.943 204.225 831.997 202.46L830.041 200.185C828.001 201.938 825.95 203.67 823.888 205.378L825.802 207.689ZM838.112 197.114C840.125 195.326 842.128 193.518 844.123 191.694L842.098 189.48C840.113 191.296 838.12 193.093 836.119 194.872L838.112 197.114ZM850.082 186.171C852.043 184.33 853.997 182.475 855.945 180.606L853.868 178.441C851.927 180.303 849.981 182.151 848.029 183.983L850.082 186.171ZM861.772 174.962C863.697 173.081 865.618 171.188 867.534 169.287L865.421 167.157C863.509 169.054 861.594 170.941 859.675 172.817L861.772 174.962ZM873.266 163.564C875.167 161.655 877.065 159.738 878.962 157.815L876.827 155.708C874.932 157.628 873.037 159.542 871.14 161.447L873.266 163.564ZM884.635 152.049C886.522 150.125 888.41 148.197 890.298 146.267L888.154 144.169C886.266 146.099 884.379 148.026 882.493 149.948L884.635 152.049ZM895.949 140.49C897.834 138.563 899.721 136.636 901.611 134.711L899.47 132.609C897.579 134.536 895.69 136.465 893.805 138.392L895.949 140.49ZM907.277 128.954C909.169 127.038 911.065 125.125 912.967 123.216L910.842 121.099C908.937 123.011 907.037 124.927 905.142 126.846L907.277 128.954ZM918.684 117.51C920.596 115.614 922.513 113.725 924.438 111.844L922.341 109.699C920.41 111.585 918.488 113.48 916.572 115.38L918.684 117.51ZM930.236 106.226C932.177 104.363 934.127 102.509 936.086 100.666L934.031 98.4808C932.064 100.331 930.107 102.192 928.158 104.062L930.236 106.226ZM941.994 95.1746C943.976 93.3546 945.969 91.5479 947.973 89.7564L945.974 87.5198C943.959 89.3207 941.956 91.1364 939.965 92.965L941.994 95.1746ZM954.021 84.429C956.053 82.6665 958.097 80.921 960.155 79.1941L958.227 76.8959C956.155 78.6339 954.099 80.3901 952.055 82.1628L954.021 84.429ZM966.373 74.0701C968.461 72.3805 970.565 70.7113 972.685 69.0642L970.844 66.6954C968.708 68.3549 966.589 70.0362 964.486 71.7376L966.373 74.0701ZM979.095 64.1889C981.248 62.5872 983.419 61.0094 985.607 59.4573L983.872 57.0103C981.664 58.5759 979.476 60.167 977.305 61.7817L979.095 64.1889ZM992.227 54.88C994.451 53.3815 996.695 51.9102 998.959 50.468L997.348 47.9378C995.061 49.3941 992.796 50.8794 990.551 52.3919L992.227 54.88ZM1005.79 46.2416C1008.09 44.8627 1010.41 43.5145 1012.76 42.1986L1011.29 39.583C1008.92 40.9132 1006.57 42.2757 1004.25 43.6687L1005.79 46.2416ZM1019.81 38.371C1022.18 37.1297 1024.58 35.922 1027 34.7494L1025.69 32.05C1023.24 33.2363 1020.82 34.4579 1018.42 35.7131L1019.81 38.371ZM1034.27 31.3605C1036.71 30.2732 1039.17 29.2217 1041.66 28.2077L1040.53 25.4298C1038.01 26.4563 1035.52 27.5205 1033.05 28.621L1034.27 31.3605ZM1049.17 25.2909C1051.66 24.3711 1054.17 23.4889 1056.71 22.6458L1055.77 19.7983C1053.2 20.6521 1050.65 21.5454 1048.13 22.4768L1049.17 25.2909ZM1064.42 20.2355C1066.96 19.4892 1069.53 18.7818 1072.12 18.1146L1071.37 15.2093C1068.75 15.885 1066.15 16.6015 1063.58 17.3573L1064.42 20.2355ZM1079.94 16.243C1082.54 15.6682 1085.17 15.1337 1087.82 14.6406L1087.28 11.6911C1084.59 12.1903 1081.93 12.7317 1079.3 13.3138L1079.94 16.243ZM1095.7 13.3127C1098.36 12.9107 1101.04 12.5499 1103.75 12.2314L1103.4 9.25194C1100.66 9.57428 1097.94 9.93956 1095.25 10.3465L1095.7 13.3127ZM1111.65 11.4311C1114.3 11.2054 1116.98 11.0197 1119.68 10.8751L1119.52 7.87942C1116.79 8.02567 1114.08 8.21355 1111.4 8.44195L1111.65 11.4311ZM1127.77 10.5684C1130.39 10.5092 1133.04 10.4882 1135.71 10.5063L1135.73 7.50635C1133.03 7.48807 1130.35 7.50933 1127.7 7.56918L1127.77 10.5684Z" fill="#97A8BE"/>
<path d="M9.66222 355.594L6.33802 351.162L3.66198 356.278L9.19872 356.48L9.66222 355.594ZM264.174 398.443L264.444 398.864L264.174 398.443ZM633.701 271.194L633.79 270.702L633.701 271.194ZM1148 19.3569L1143.13 16.2587L1142.88 22.027L1148 19.3569ZM15.4289 359.624C17.7555 360.781 20.1611 361.955 22.6397 363.143L23.0717 362.241C20.5974 361.056 18.1962 359.883 15.874 358.729L15.4289 359.624ZM29.892 366.557C32.2679 367.656 34.6997 368.763 37.1827 369.873L37.591 368.96C35.1118 367.852 32.684 366.747 30.3119 365.65L29.892 366.557ZM44.5115 373.096C46.9271 374.14 49.3841 375.185 51.8786 376.227L52.2642 375.304C49.7734 374.264 47.3202 373.22 44.9083 372.178L44.5115 373.096ZM59.2848 379.268C61.7365 380.258 64.2193 381.242 66.7301 382.219L67.0928 381.287C64.5859 380.312 62.1069 379.329 59.659 378.341L59.2848 379.268ZM74.2141 385.079C76.6991 386.01 79.2074 386.932 81.7361 387.843L82.075 386.903C79.5505 385.993 77.0462 385.072 74.5651 384.142L74.2141 385.079ZM89.2948 390.51C91.8101 391.379 94.3423 392.234 96.8885 393.074L97.2019 392.125C94.6601 391.286 92.1323 390.432 89.6212 389.565L89.2948 390.51ZM104.51 395.53C107.053 396.328 109.608 397.11 112.17 397.873L112.455 396.915C109.898 396.153 107.348 395.373 104.81 394.575L104.51 395.53ZM119.868 400.099C122.441 400.82 125.02 401.521 127.602 402.198L127.856 401.231C125.279 400.555 122.706 399.856 120.138 399.136L119.868 400.099ZM135.37 404.162C137.971 404.795 140.572 405.402 143.17 405.981L143.388 405.005C140.796 404.427 138.201 403.822 135.606 403.19L135.37 404.162ZM151.01 407.644C153.642 408.174 156.27 408.673 158.889 409.139L159.064 408.155C156.452 407.69 153.832 407.192 151.207 406.664L151.01 407.644ZM166.801 410.449C169.461 410.856 172.11 411.225 174.744 411.556L174.869 410.564C172.243 410.234 169.604 409.866 166.952 409.461L166.801 410.449ZM182.714 412.439C185.397 412.695 188.063 412.908 190.706 413.074L190.769 412.076C188.137 411.911 185.482 411.699 182.809 411.443L182.714 412.439ZM198.716 413.431C201.418 413.502 204.092 413.519 206.736 413.479L206.721 412.479C204.091 412.519 201.431 412.502 198.742 412.432L198.716 413.431ZM214.753 413.177C217.458 413.01 220.125 412.778 222.75 412.477L222.636 411.484C220.029 411.783 217.38 412.013 214.691 412.178L214.753 413.177ZM230.7 411.327C233.376 410.856 235.999 410.303 238.565 409.665L238.324 408.694C235.782 409.326 233.181 409.875 230.526 410.342L230.7 411.327ZM246.291 407.423C248.866 406.561 251.372 405.6 253.801 404.534L253.4 403.618C250.999 404.671 248.522 405.622 245.973 406.475L246.291 407.423ZM261.002 400.938C262.172 400.276 263.319 399.585 264.444 398.864L263.905 398.022C262.796 398.733 261.663 399.414 260.509 400.067L261.002 400.938ZM264.444 398.864C265.55 398.156 266.651 397.434 267.747 396.7L267.191 395.869C266.1 396.6 265.005 397.318 263.905 398.022L264.444 398.864ZM274.245 392.167C276.37 390.628 278.483 389.044 280.587 387.42L279.977 386.628C277.879 388.247 275.775 389.825 273.658 391.357L274.245 392.167ZM286.798 382.5C288.833 380.849 290.864 379.165 292.895 377.452L292.25 376.688C290.224 378.397 288.198 380.077 286.168 381.724L286.798 382.5ZM298.898 372.313C300.875 370.599 302.856 368.861 304.844 367.105L304.181 366.355C302.195 368.11 300.217 369.846 298.243 371.558L298.898 372.313ZM310.754 361.853C312.709 360.109 314.674 358.351 316.653 356.582L315.986 355.837C314.007 357.606 312.042 359.363 310.088 361.107L310.754 361.853ZM322.56 351.314C324.514 349.578 326.485 347.835 328.475 346.089L327.815 345.337C325.823 347.085 323.851 348.829 321.896 350.567L322.56 351.314ZM334.43 340.909C336.413 339.202 338.417 337.494 340.446 335.791L339.803 335.025C337.771 336.732 335.763 338.442 333.777 340.152L334.43 340.909ZM346.538 330.75C348.566 329.098 350.62 327.452 352.702 325.816L352.084 325.03C349.997 326.67 347.939 328.319 345.906 329.974L346.538 330.75ZM358.947 321.005C361.034 319.431 363.15 317.868 365.299 316.319L364.714 315.508C362.56 317.061 360.437 318.628 358.344 320.207L358.947 321.005ZM371.769 311.77C373.92 310.296 376.104 308.837 378.323 307.397L377.779 306.559C375.553 308.003 373.362 309.466 371.203 310.945L371.769 311.77ZM384.99 303.195C387.22 301.831 389.486 300.487 391.788 299.165L391.29 298.298C388.979 299.624 386.706 300.973 384.468 302.342L384.99 303.195ZM398.687 295.335C400.979 294.105 403.308 292.898 405.676 291.716L405.229 290.822C402.853 292.008 400.515 293.219 398.214 294.453L398.687 295.335ZM412.8 288.292C415.165 287.198 417.567 286.131 420.008 285.09L419.616 284.17C417.165 285.215 414.754 286.287 412.38 287.384L412.8 288.292ZM427.292 282.115C429.728 281.162 432.202 280.237 434.716 279.341L434.38 278.399C431.857 279.299 429.373 280.227 426.928 281.184L427.292 282.115ZM442.153 276.813C444.629 276.013 447.143 275.24 449.696 274.496L449.416 273.536C446.854 274.282 444.33 275.058 441.845 275.862L442.153 276.813ZM457.32 272.395C459.825 271.743 462.368 271.119 464.948 270.524L464.723 269.55C462.134 270.147 459.583 270.773 457.068 271.427L457.32 272.395ZM472.724 268.845C475.25 268.336 477.811 267.854 480.408 267.402L480.236 266.416C477.631 266.871 475.061 267.354 472.527 267.865L472.724 268.845ZM488.26 266.138C490.811 265.761 493.396 265.411 496.015 265.09L495.893 264.097C493.266 264.419 490.673 264.77 488.114 265.148L488.26 266.138ZM503.917 264.217C506.484 263.964 509.084 263.738 511.717 263.54L511.642 262.543C509.001 262.742 506.394 262.968 503.819 263.222L503.917 264.217ZM519.664 263.03C522.235 262.894 524.838 262.783 527.472 262.699L527.44 261.699C524.799 261.784 522.189 261.895 519.611 262.032L519.664 263.03ZM535.469 262.525C538.034 262.496 540.629 262.491 543.253 262.511L543.261 261.511C540.63 261.491 538.029 261.496 535.457 261.525L535.469 262.525ZM551.215 262.648C553.797 262.717 556.407 262.809 559.045 262.926L559.089 261.927C556.445 261.81 553.83 261.717 551.242 261.649L551.215 262.648ZM566.943 263.344C569.55 263.504 572.184 263.687 574.845 263.895L574.923 262.898C572.256 262.69 569.616 262.506 567.004 262.346L566.943 263.344ZM582.654 264.564C585.283 264.81 587.938 265.079 590.62 265.371L590.728 264.377C588.041 264.084 585.381 263.815 582.747 263.569L582.654 264.564ZM598.36 266.27C600.951 266.589 603.566 266.93 606.205 267.292L606.341 266.301C603.697 265.938 601.078 265.597 598.482 265.277L598.36 266.27ZM614.082 268.427C616.629 268.811 619.199 269.215 621.791 269.64L621.953 268.653C619.356 268.228 616.783 267.823 614.231 267.438L614.082 268.427ZM629.637 270.973C630.956 271.205 632.28 271.443 633.611 271.686L633.79 270.702C632.458 270.459 631.131 270.221 629.81 269.988L629.637 270.973ZM633.611 271.686C634.984 271.936 636.35 272.175 637.709 272.402L637.874 271.416C636.52 271.189 635.158 270.952 633.79 270.702L633.611 271.686ZM645.785 273.625C648.451 273.987 651.09 274.303 653.703 274.575L653.807 273.58C651.204 273.31 648.575 272.995 645.92 272.634L645.785 273.625ZM661.859 275.285C664.582 275.475 667.276 275.616 669.943 275.71L669.978 274.71C667.323 274.617 664.64 274.477 661.929 274.287L661.859 275.285ZM677.977 275.847C680.73 275.845 683.454 275.79 686.15 275.685L686.111 274.686C683.428 274.79 680.717 274.845 677.976 274.847L677.977 275.847ZM694.15 275.22C696.89 275.008 699.599 274.743 702.28 274.428L702.163 273.434C699.496 273.749 696.799 274.012 694.073 274.223L694.15 275.22ZM710.28 273.321C712.968 272.894 715.626 272.414 718.256 271.885L718.058 270.905C715.442 271.431 712.797 271.908 710.123 272.333L710.28 273.321ZM726.172 270.121C728.802 269.478 731.404 268.784 733.979 268.042L733.702 267.081C731.14 267.82 728.551 268.51 725.934 269.15L726.172 270.121ZM741.735 265.633C744.299 264.78 746.836 263.878 749.346 262.93L748.993 261.994C746.495 262.938 743.971 263.835 741.42 264.684L741.735 265.633ZM756.885 259.914C759.373 258.862 761.835 257.766 764.273 256.626L763.85 255.72C761.422 256.855 758.972 257.946 756.496 258.993L756.885 259.914ZM771.556 253.06C773.96 251.829 776.341 250.556 778.701 249.244L778.215 248.37C775.865 249.677 773.494 250.944 771.1 252.169L771.556 253.06ZM785.711 245.195C788.026 243.808 790.322 242.383 792.598 240.923L792.058 240.081C789.79 241.536 787.503 242.955 785.197 244.337L785.711 245.195ZM799.345 236.459C801.573 234.939 803.784 233.387 805.978 231.804L805.393 230.993C803.206 232.571 801.002 234.118 798.782 235.632L799.345 236.459ZM812.482 226.989C814.628 225.361 816.759 223.704 818.876 222.022L818.254 221.239C816.142 222.917 814.017 224.569 811.878 226.192L812.482 226.989ZM825.164 216.918C827.236 215.202 829.296 213.463 831.345 211.701L830.693 210.943C828.648 212.701 826.593 214.436 824.526 216.148L825.164 216.918ZM837.447 206.367C839.457 204.582 841.456 202.777 843.448 200.956L842.773 200.218C840.785 202.036 838.789 203.838 836.783 205.619L837.447 206.367ZM849.398 195.441C851.356 193.604 853.307 191.751 855.253 189.884L854.56 189.163C852.617 191.027 850.669 192.877 848.713 194.712L849.398 195.441ZM861.073 184.247C862.996 182.368 864.915 180.477 866.83 178.577L866.126 177.867C864.212 179.766 862.295 181.655 860.374 183.532L861.073 184.247ZM872.557 172.858C874.457 170.95 876.354 169.035 878.25 167.113L877.539 166.411C875.643 168.331 873.747 170.246 871.848 172.153L872.557 172.858ZM883.921 161.349C885.808 159.425 887.695 157.498 889.583 155.567L888.869 154.868C886.981 156.798 885.094 158.725 883.207 160.649L883.921 161.349ZM895.234 149.79C897.12 147.864 899.007 145.936 900.898 144.01L900.184 143.31C898.293 145.236 896.405 147.164 894.519 149.091L895.234 149.79ZM906.565 138.252C908.458 136.334 910.356 134.42 912.259 132.51L911.55 131.804C909.646 133.715 907.748 135.631 905.854 137.549L906.565 138.252ZM917.98 126.8C919.893 124.903 921.812 123.012 923.739 121.129L923.04 120.414C921.111 122.299 919.19 124.191 917.276 126.09L917.98 126.8ZM929.543 115.505C931.487 113.639 933.439 111.783 935.401 109.938L934.716 109.209C932.752 111.057 930.797 112.915 928.851 114.784L929.543 115.505ZM941.318 104.438C943.303 102.615 945.299 100.806 947.306 99.0109L946.64 98.2653C944.629 100.063 942.63 101.876 940.642 103.702L941.318 104.438ZM953.366 93.6736C955.401 91.9077 957.45 90.1586 959.512 88.428L958.869 87.662C956.803 89.3962 954.75 91.1489 952.71 92.9182L953.366 93.6736ZM965.744 83.2926C967.837 81.599 969.946 79.9258 972.071 78.2746L971.457 77.485C969.327 79.1403 967.213 80.8176 965.115 82.5151L965.744 83.2926ZM978.498 73.3865C980.657 71.7805 982.834 70.1982 985.029 68.6416L984.45 67.8259C982.249 69.3871 980.066 70.9737 977.901 72.5841L978.498 73.3865ZM991.668 64.0506C993.9 62.5475 996.151 61.0715 998.422 59.6246L997.885 58.7812C995.606 60.2328 993.348 61.7134 991.109 63.2213L991.668 64.0506ZM1005.28 55.3839C1007.59 54.0004 1009.92 52.6474 1012.27 51.3267L1011.78 50.4548C1009.42 51.7803 1007.08 53.138 1004.77 54.5263L1005.28 55.3839ZM1019.35 47.485C1021.73 46.2391 1024.13 45.0268 1026.56 43.8496L1026.12 42.9498C1023.69 44.1315 1021.27 45.3485 1018.88 46.5991L1019.35 47.485ZM1033.87 40.4473C1036.31 39.3556 1038.78 38.2999 1041.28 37.2818L1040.9 36.3558C1038.4 37.3781 1035.92 38.4381 1033.46 39.5341L1033.87 40.4473ZM1048.82 34.3529C1051.32 33.4292 1053.85 32.5433 1056.4 31.6967L1056.09 30.7475C1053.52 31.5977 1050.98 32.4873 1048.47 33.4148L1048.82 34.3529ZM1064.14 29.2761C1066.69 28.5266 1069.27 27.8162 1071.87 27.1462L1071.62 26.1777C1069.01 26.8506 1066.42 27.5641 1063.86 28.3167L1064.14 29.2761ZM1079.73 25.2666C1082.34 24.6894 1084.98 24.1526 1087.64 23.6574L1087.46 22.6742C1084.78 23.1714 1082.13 23.7106 1079.51 24.2902L1079.73 25.2666ZM1095.55 22.324C1098.22 21.9203 1100.91 21.558 1103.63 21.2383L1103.52 20.2451C1100.78 20.5661 1098.08 20.93 1095.4 21.3352L1095.55 22.324ZM1111.57 20.4347C1114.23 20.2081 1116.92 20.0217 1119.63 19.8766L1119.58 18.878C1116.85 19.0237 1114.16 19.2108 1111.48 19.4383L1111.57 20.4347ZM1127.75 19.5687C1130.38 19.5093 1133.04 19.4882 1135.72 19.5063L1135.73 18.5063C1133.03 18.4881 1130.37 18.5093 1127.73 18.5689L1127.75 19.5687Z" fill="#1890FF"/>
</svg>
