<svg width="104" height="24" viewBox="0 0 104 24" fill="none" xmlns="http://www.w3.org/2000/svg">
<path d="M24.5098 13.4414V7.83988C24.5098 6.62509 25.4996 5.63525 26.7144 5.63525V9.4821H30.7637V5.63525C31.9785 5.63525 32.9683 6.62509 32.9683 7.83988V13.4414C32.9683 14.6562 31.9785 15.6461 30.7637 15.6461V11.3268H26.7144V15.6461C25.4996 15.6461 24.5098 14.6562 24.5098 13.4414Z" fill="#304156"/>
<path d="M36.0054 10.6294H34.0145C34.0708 9.77457 34.4532 9.13342 35.1506 8.71724C35.7242 8.36855 36.4891 8.19983 37.4227 8.19983C39.5486 8.19983 40.6059 8.88597 40.6059 10.2582V14.0263C40.6059 14.825 40.6847 15.3649 40.8534 15.6348H38.84C38.7612 15.3761 38.705 15.1399 38.6937 14.9374C38.1201 15.5336 37.3102 15.8373 36.2529 15.8373C35.5218 15.8373 34.9369 15.6573 34.4982 15.3086C34.0258 14.9262 33.7783 14.375 33.7783 13.6664C33.7783 12.924 34.037 12.3729 34.5432 12.0129C34.9144 11.7542 35.4768 11.5743 36.2416 11.4618C37.3215 11.3156 37.8614 11.2368 37.8839 11.2256C38.3563 11.1018 38.6038 10.8656 38.6038 10.5169C38.6038 10.1233 38.4688 9.8533 38.2101 9.70708C38.0188 9.5946 37.7264 9.53836 37.3102 9.53836C36.5116 9.52711 36.0729 9.8983 36.0054 10.6294ZM38.615 12.834V12.0917C38.4575 12.2379 38.1088 12.3391 37.5802 12.4179C36.9728 12.5079 36.5678 12.5978 36.3766 12.6878C35.9829 12.8678 35.7917 13.1602 35.7917 13.5877C35.7917 14.2063 36.1967 14.51 37.0065 14.51C38.0751 14.51 38.615 13.9476 38.615 12.834Z" fill="#304156"/>
<path d="M41.5049 13.284H43.3946C43.4058 13.7001 43.5633 14.0038 43.867 14.2288C44.1369 14.42 44.4856 14.51 44.9131 14.51C45.2617 14.51 45.5542 14.4425 45.7792 14.3188C46.0716 14.1501 46.2178 13.9026 46.2178 13.5877C46.2178 13.3065 46.0266 13.0815 45.6329 12.9128C45.3517 12.7891 44.8006 12.6428 43.9682 12.4629C43.2596 12.3166 42.7309 12.1142 42.3822 11.878C41.9098 11.563 41.6624 11.1131 41.6624 10.5282C41.6624 8.97595 42.7197 8.19983 44.8231 8.19983C46.8252 8.19983 47.8938 8.9647 48.0175 10.5169H46.1279C46.0829 9.86454 45.6329 9.53836 44.7668 9.53836C44.0245 9.53836 43.6645 9.76332 43.6645 10.2132C43.6645 10.5169 43.9007 10.7644 44.3619 10.9331C44.4181 10.9556 44.9356 11.0681 45.9141 11.2931C46.634 11.4618 47.1627 11.6642 47.5001 11.9117C47.9725 12.2491 48.22 12.7216 48.22 13.329C48.22 14.2063 47.8713 14.87 47.1852 15.3086C46.6115 15.6686 45.8579 15.8598 44.9131 15.8598C43.9682 15.8598 43.2033 15.6686 42.6072 15.2974C41.9211 14.8362 41.5499 14.1726 41.5049 13.284Z" fill="#304156"/>
<path d="M49.1089 13.6551V7.62616C49.1089 6.52385 49.9975 5.63525 51.0998 5.63525V9.40336H51.1448C51.381 9.00968 51.7072 8.70599 52.1121 8.49227C52.4833 8.30105 52.8658 8.19982 53.2594 8.19982C54.2605 8.19982 54.9692 8.46977 55.3741 9.00968C55.734 9.4821 55.9027 10.202 55.9027 11.1806V15.6348H53.9118V11.5405C53.9118 10.3595 53.4844 9.7633 52.6408 9.7633C52.1009 9.7633 51.7072 9.92078 51.4597 10.2582C51.2123 10.5844 51.0998 11.1131 51.0998 11.8442V15.6461C49.9975 15.6461 49.1089 14.7575 49.1089 13.6551Z" fill="#304156"/>
<path d="M66.6673 8.9985H64.5302C64.4627 8.50358 64.2265 8.0874 63.7991 7.74996C63.3829 7.41251 62.888 7.2438 62.3368 7.2438C61.4145 7.2438 60.7058 7.60373 60.2334 8.31236C59.8285 8.91976 59.6148 9.70713 59.6148 10.6857C59.6148 11.6193 59.8172 12.3842 60.2334 12.9803C60.7171 13.6777 61.4257 14.0376 62.3368 14.0376C62.9892 14.0376 63.5179 13.8239 63.9228 13.4077C64.294 13.0141 64.5302 12.4742 64.6089 11.7993H66.7348C66.6223 13.0478 66.1612 14.0376 65.3738 14.78C64.5752 15.5224 63.5629 15.8936 62.3368 15.8936C60.8296 15.8936 59.626 15.3874 58.7149 14.3751C57.8488 13.419 57.4102 12.1817 57.4102 10.6857C57.4102 9.15597 57.8488 7.89619 58.7149 6.92885C59.6148 5.90527 60.8183 5.39911 62.3368 5.39911C63.4729 5.39911 64.4402 5.71405 65.2276 6.34395C66.0599 6.98509 66.5436 7.87369 66.6673 8.9985Z" fill="#304156"/>
<path d="M69.6373 10.6294H67.6464C67.7026 9.77457 68.085 9.13342 68.7824 8.71724C69.3673 8.36855 70.1209 8.19983 71.0545 8.19983C73.1804 8.19983 74.2377 8.88597 74.2377 10.2582V14.0263C74.2377 14.825 74.3165 15.3649 74.4852 15.6348H72.4718C72.3931 15.3761 72.3368 15.1399 72.3256 14.9374C71.7519 15.5336 70.9421 15.8373 69.8847 15.8373C69.1536 15.8373 68.5687 15.6573 68.13 15.3086C67.6576 14.9262 67.4102 14.375 67.4102 13.6664C67.4102 12.924 67.6689 12.3729 68.175 12.0129C68.5462 11.7542 69.1199 11.5743 69.8735 11.4618C70.9533 11.3156 71.4932 11.2368 71.5157 11.2256C71.9881 11.1018 72.2356 10.8656 72.2356 10.5169C72.2356 10.1233 72.1006 9.8533 71.8419 9.70708C71.6507 9.5946 71.3582 9.53836 70.9421 9.53836C70.1322 9.52711 69.6935 9.8983 69.6373 10.6294ZM72.2356 12.834V12.0917C72.0781 12.2379 71.7294 12.3391 71.2008 12.4179C70.5934 12.5079 70.1884 12.5978 69.9972 12.6878C69.6035 12.8678 69.4011 13.1602 69.4011 13.5877C69.4011 14.2063 69.806 14.51 70.6271 14.51C71.6957 14.51 72.2356 13.9476 72.2356 12.834Z" fill="#304156"/>
<path d="M75.4189 15.6461V8.40234H77.3086V9.41467H77.3536C77.8485 8.61605 78.5909 8.21112 79.5695 8.21112C80.5706 8.21112 81.2792 8.48108 81.6841 9.02099C82.0441 9.49341 82.2128 10.2133 82.2128 11.1919V15.6461H80.2219V11.5518C80.2219 10.3708 79.7945 9.77461 78.9508 9.77461C78.4109 9.77461 78.0173 9.94333 77.7698 10.2695C77.5223 10.5957 77.4099 11.1244 77.4099 11.8555V15.6574H75.4189V15.6461Z" fill="#304156"/>
<path d="M89.6245 8.39111L87.1724 15.6461H84.9565L82.4707 8.39111H84.5628L86.0926 13.3403H86.1263L87.6448 8.39111H89.6245Z" fill="#304156"/>
<path d="M91.8404 10.6294H89.8495C89.9057 9.77457 90.2882 9.13342 90.9856 8.71724C91.5705 8.36855 92.3241 8.19983 93.2577 8.19983C95.3836 8.19983 96.4409 8.88597 96.4409 10.2582V14.0263C96.4409 14.825 96.5196 15.3649 96.6883 15.6348H94.6749C94.5962 15.3761 94.54 15.1399 94.5287 14.9374C93.9551 15.5336 93.1452 15.8373 92.0879 15.8373C91.3568 15.8373 90.7718 15.6573 90.3332 15.3086C89.8607 14.9262 89.6133 14.375 89.6133 13.6664C89.6133 12.924 89.872 12.3729 90.3782 12.0129C90.7493 11.7542 91.323 11.5743 92.0766 11.4618C93.1564 11.3156 93.6964 11.2368 93.7188 11.2256C94.1913 11.1018 94.4387 10.8656 94.4387 10.5169C94.4387 10.1233 94.3037 9.8533 94.045 9.70708C93.8538 9.5946 93.5614 9.53836 93.1452 9.53836C92.3466 9.52711 91.9079 9.8983 91.8404 10.6294ZM94.45 12.834V12.0917C94.2925 12.2379 93.9438 12.3391 93.4151 12.4179C92.8077 12.5079 92.4028 12.5978 92.2116 12.6878C91.8179 12.8678 91.6267 13.1602 91.6267 13.5877C91.6267 14.2063 92.0316 14.51 92.8415 14.51C93.9101 14.51 94.45 13.9476 94.45 12.834Z" fill="#304156"/>
<path d="M97.2959 13.284H99.1856C99.1968 13.7001 99.3543 14.0038 99.658 14.2288C99.928 14.42 100.277 14.51 100.704 14.51C101.053 14.51 101.345 14.4425 101.57 14.3188C101.863 14.1501 102.009 13.9026 102.009 13.5877C102.009 13.3065 101.806 13.0815 101.424 12.9128C101.143 12.7891 100.592 12.6428 99.7592 12.4629C99.0506 12.3166 98.5219 12.1142 98.1732 11.878C97.7008 11.563 97.4534 11.1131 97.4534 10.5282C97.4534 8.97595 98.5107 8.19983 100.614 8.19983C102.616 8.19983 103.685 8.9647 103.809 10.5169H101.919C101.874 9.86454 101.424 9.53836 100.558 9.53836C99.8155 9.53836 99.4443 9.76332 99.4443 10.2132C99.4443 10.5169 99.6805 10.7644 100.142 10.9331C100.198 10.9556 100.715 11.0681 101.694 11.2931C102.414 11.4618 102.942 11.6642 103.28 11.9117C103.752 12.2491 104 12.7216 104 13.329C104 14.2063 103.651 14.87 102.965 15.3086C102.391 15.6686 101.638 15.8598 100.693 15.8598C99.748 15.8598 98.9831 15.6686 98.3982 15.2974C97.7008 14.8362 97.3296 14.1726 97.2959 13.284Z" fill="#304156"/>
<path d="M20.494 9.00973V5.894V2.45209L12.0242 7.19878V0H10.5957C9.66212 0 8.9085 0.753623 8.9085 1.68721V9.02098L3.11573 12.4179V3.79061C1.39477 3.79061 0 5.18537 0 6.90633V16.1523C0 17.8732 1.39477 19.268 3.11573 19.268V15.8598L8.9085 12.4629V21.3826C8.9085 22.3162 9.66212 23.0699 10.5957 23.0699C11.5293 23.0699 12.4404 22.8224 13.2503 22.35L20.494 18.3232V14.8812L12.0242 19.6279V10.6295L17.3783 7.62621V10.8207L20.494 9.00973Z" fill="#1890FF"/>
</svg>
