<svg width="21" height="24" viewBox="0 0 21 24" fill="none" xmlns="http://www.w3.org/2000/svg">
<path d="M20.494 9.00973V5.894V2.45209L12.0242 7.19878V0H10.5957C9.66212 0 8.9085 0.753623 8.9085 1.68721V9.02098L3.11573 12.4179V3.79061C1.39477 3.79061 0 5.18537 0 6.90633V16.1523C0 17.8732 1.39477 19.268 3.11573 19.268V15.8598L8.9085 12.4629V21.3826C8.9085 22.3162 9.66212 23.0699 10.5957 23.0699C11.5293 23.0699 12.4404 22.8224 13.2503 22.35L20.494 18.3232V14.8812L12.0242 19.6279V10.6295L17.3783 7.62621V10.8207L20.494 9.00973Z" fill="#1890FF"/>
</svg>
