<svg width="452" height="337" viewBox="0 0 452 337" fill="none" xmlns="http://www.w3.org/2000/svg">
<g filter="url(#filter0_d_19_772)">
<rect x="10" y="34" width="412" height="246" rx="35" fill="white"/>
<rect x="10.5" y="34.5" width="411" height="245" rx="34.5" stroke="#1890FF"/>
</g>
<path d="M270 317.315C353.528 317.315 421.242 313.369 421.242 308.501C421.242 303.633 353.528 299.687 270 299.687C186.471 299.687 118.758 303.633 118.758 308.501C118.758 313.369 186.471 317.315 270 317.315Z" fill="#C3E1FD"/>
<path d="M284.668 252.077C331.074 205.671 331.074 130.432 284.668 84.0258C238.262 37.6197 163.022 37.6197 116.616 84.0258C70.21 130.432 70.21 205.671 116.616 252.077C163.022 298.484 238.262 298.484 284.668 252.077Z" fill="#F0F7FF"/>
<path d="M84.1699 153.914C112.859 153.914 136.116 130.657 136.116 101.968C136.116 73.2796 112.859 50.0227 84.1699 50.0227C55.481 50.0227 32.2241 73.2796 32.2241 101.968C32.2241 130.657 55.481 153.914 84.1699 153.914Z" fill="#F0F7FF"/>
<path d="M328.137 103.307C328.137 103.307 327.1 103.628 325.227 104.163" stroke="#CFDBE5" stroke-width="1.2388" stroke-linecap="round" stroke-linejoin="round"/>
<path d="M319.332 105.816C302.338 110.446 264.73 119.645 242.337 117.043C212.738 113.61 210.369 71.299 242.27 71.3927C274.177 71.4863 276.144 146.133 158.591 163.02C44.3756 179.426 27.9167 103.193 63.4304 43.8007" stroke="#CFDBE5" stroke-width="1.2388" stroke-linecap="round" stroke-linejoin="round" stroke-dasharray="9.15 9.15"/>
<path d="M65.0298 41.198C65.565 40.3416 66.1137 39.4919 66.6757 38.6422" stroke="#CFDBE5" stroke-width="1.2388" stroke-linecap="round" stroke-linejoin="round"/>
<path d="M336.205 93.7993L335.249 103.42L393.055 87.5236L336.205 93.7993Z" fill="#DFE9F2"/>
<path d="M335.249 103.42L393.055 87.5236L338.233 95.8065L335.249 103.42Z" fill="#CFDBE5"/>
<path d="M393.055 87.5235L336.205 93.7993L330.525 83.9307L393.055 87.5235Z" fill="#F0F7FF"/>
<path d="M342.26 107.281L393.055 87.5236L338.232 95.8065L342.26 107.281Z" fill="#F0F7FF"/>
<path d="M338.993 141.267H303.232C301.445 141.267 300 139.822 300 138.036V118.232C300 116.445 301.445 115 303.232 115H338.993C340.779 115 342.224 116.445 342.224 118.232V138.036C342.224 139.822 340.779 141.267 338.993 141.267Z" fill="white"/>
<path d="M306.998 125.002H303.954V136.236H306.998V125.002Z" fill="#97A8BE"/>
<path d="M311.468 126.287H308.423V136.236H311.468V126.287Z" fill="#97A8BE"/>
<path d="M315.93 128.134H312.886V136.236H315.93V128.134Z" fill="#97A8BE"/>
<path d="M320.4 126.287H317.355V136.236H320.4V126.287Z" fill="#97A8BE"/>
<path d="M324.863 124.253H321.818V136.229H324.863V124.253Z" fill="#97A8BE"/>
<path d="M329.332 121.684H326.288V136.236H329.332V121.684Z" fill="#97A8BE"/>
<path d="M333.801 125.002H330.756V136.236H333.801V125.002Z" fill="#97A8BE"/>
<path d="M338.263 127.03H335.219V136.236H338.263V127.03Z" fill="#97A8BE"/>
<path d="M303.676 72.8577L305.489 76.1696C305.509 76.2097 305.542 76.2365 305.582 76.2632L308.894 78.0764C309.055 78.1634 309.055 78.3909 308.894 78.4778L305.582 80.291C305.542 80.3111 305.515 80.3445 305.489 80.3846L303.676 83.6965C303.589 83.8571 303.361 83.8571 303.274 83.6965L301.461 80.3846C301.441 80.3445 301.407 80.3177 301.367 80.291L298.055 78.4778C297.895 78.3909 297.895 78.1634 298.055 78.0764L301.367 76.2632C301.407 76.2432 301.434 76.2097 301.461 76.1696L303.274 72.8577C303.361 72.6972 303.589 72.6972 303.676 72.8577Z" fill="#00CCBE"/>
<path d="M132.155 43.8073L133.968 47.1192C133.988 47.1593 134.022 47.1861 134.062 47.2128L137.374 49.026C137.534 49.1129 137.534 49.3404 137.374 49.4274L134.062 51.2406C134.022 51.2606 133.995 51.2941 133.968 51.3342L132.155 54.6461C132.068 54.8066 131.841 54.8066 131.754 54.6461L129.94 51.3342C129.92 51.2941 129.887 51.2673 129.847 51.2406L126.535 49.4274C126.374 49.3404 126.374 49.1129 126.535 49.026L129.847 47.2128C129.887 47.1927 129.914 47.1593 129.94 47.1192L131.754 43.8073C131.847 43.6534 132.075 43.6534 132.155 43.8073Z" fill="#F0F7FF"/>
<path d="M369.751 194.667L371.564 197.978C371.584 198.019 371.618 198.045 371.658 198.072L374.97 199.885C375.13 199.972 375.13 200.2 374.97 200.287L371.658 202.1C371.618 202.12 371.591 202.153 371.564 202.193L369.751 205.505C369.664 205.666 369.437 205.666 369.35 205.505L367.537 202.193C367.517 202.153 367.483 202.127 367.443 202.1L364.131 200.287C363.971 200.2 363.971 199.972 364.131 199.885L367.443 198.072C367.483 198.052 367.51 198.019 367.537 197.978L369.35 194.667C369.437 194.506 369.664 194.506 369.751 194.667Z" fill="#F0F7FF"/>
<path d="M171.395 240.992L173.208 244.304C173.229 244.344 173.262 244.371 173.302 244.398L176.614 246.211C176.775 246.298 176.775 246.525 176.614 246.612L173.302 248.425C173.262 248.446 173.235 248.479 173.208 248.519L171.395 251.831C171.308 251.992 171.081 251.992 170.994 251.831L169.181 248.519C169.161 248.479 169.127 248.452 169.087 248.425L165.775 246.612C165.615 246.525 165.615 246.298 165.775 246.211L169.087 244.398C169.127 244.378 169.154 244.344 169.181 244.304L170.994 240.992C171.081 240.832 171.308 240.832 171.395 240.992Z" fill="white"/>
<path d="M40.0857 156.657L41.8989 159.969C41.919 160.009 41.9524 160.036 41.9926 160.063L45.3044 161.876C45.465 161.963 45.465 162.191 45.3044 162.278L41.9926 164.091C41.9524 164.111 41.9257 164.144 41.8989 164.184L40.0857 167.496C39.9988 167.657 39.7713 167.657 39.6843 167.496L37.8712 164.184C37.8511 164.144 37.8176 164.117 37.7775 164.091L34.4656 162.278C34.3051 162.191 34.3051 161.963 34.4656 161.876L37.7775 160.063C37.8176 160.043 37.8444 160.009 37.8712 159.969L39.6843 156.657C39.7713 156.497 39.9988 156.497 40.0857 156.657Z" fill="#1890FF"/>
<path d="M40.1858 241.889L49.7801 258.508C50.6365 259.987 52.7708 259.987 53.6272 258.508L63.2215 241.889C64.0779 240.41 63.0074 238.557 61.2946 238.557H59.6286C58.4043 238.557 57.4074 237.56 57.4074 236.336V221.034C57.4074 219.81 56.4105 218.813 55.1861 218.813H48.2145C46.9901 218.813 45.9932 219.81 45.9932 221.034V236.336C45.9932 237.56 44.9963 238.557 43.7719 238.557H42.106C40.3999 238.557 39.3294 240.41 40.1858 241.889Z" fill="#1890FF"/>
<path d="M361.803 159.14L351.299 140.941C350.362 139.322 348.02 139.322 347.083 140.941L336.579 159.14C335.642 160.759 336.813 162.786 338.687 162.786H340.507C341.851 162.786 342.942 163.877 342.942 165.221V181.975C342.942 183.32 344.032 184.41 345.377 184.41H353.011C354.356 184.41 355.447 183.32 355.447 181.975V165.221C355.447 163.877 356.537 162.786 357.882 162.786H359.702C361.569 162.793 362.739 160.765 361.803 159.14Z" fill="#00CCBE"/>
<path d="M237.155 76.3771V182.624C237.155 184.58 235.568 186.161 233.618 186.161H61.2283C59.2725 186.161 57.6914 184.573 57.6914 182.624V76.3771C57.6914 74.4213 59.2786 72.8402 61.2283 72.8402H233.618C235.574 72.8402 237.155 74.4274 237.155 76.3771Z" fill="white" stroke="#97A8BE" stroke-width="0.5"/>
<path d="M237.405 76.3771V89.504H57.4414V76.3771C57.4414 74.2829 59.1408 72.5902 61.2283 72.5902H233.618C235.712 72.5902 237.405 74.2896 237.405 76.3771Z" fill="#304156"/>
<path d="M198.793 177.974H186.737C184.77 177.974 183.171 176.375 183.171 174.408C183.171 172.441 184.77 170.842 186.737 170.842H198.793C200.76 170.842 202.36 172.441 202.36 174.408C202.36 176.381 200.76 177.974 198.793 177.974Z" fill="#00CCBE"/>
<path d="M224.124 177.974H212.068C210.101 177.974 208.501 176.375 208.501 174.408C208.501 172.441 210.101 170.842 212.068 170.842H224.124C226.091 170.842 227.69 172.441 227.69 174.408C227.69 176.381 226.091 177.974 224.124 177.974Z" fill="#1890FF"/>
<path d="M77.5398 81.7162C77.5398 83.6163 75.9942 85.1618 74.0941 85.1618C72.194 85.1618 70.6484 83.6163 70.6484 81.7162C70.6484 79.816 72.194 78.2705 74.0941 78.2705C75.9942 78.2705 77.5398 79.8093 77.5398 81.7162Z" fill="#00CCBE"/>
<path d="M92.1725 81.7162C92.1725 83.6163 90.627 85.1618 88.7269 85.1618C86.8268 85.1618 85.2812 83.6163 85.2812 81.7162C85.2812 79.816 86.8268 78.2705 88.7269 78.2705C90.627 78.2705 92.1725 79.8093 92.1725 81.7162Z" fill="#1890FF"/>
<path d="M106.811 81.7162C106.811 83.6163 105.266 85.1618 103.366 85.1618C101.465 85.1618 99.9199 83.6163 99.9199 81.7162C99.9199 79.816 101.465 78.2705 103.366 78.2705C105.266 78.2705 106.811 79.8093 106.811 81.7162Z" fill="#F0F7FF"/>
<path d="M170.025 96.442C170.672 96.442 171.196 95.9178 171.196 95.2712C171.196 94.6246 170.672 94.1003 170.025 94.1003C169.378 94.1003 168.854 94.6246 168.854 95.2712C168.854 95.9178 169.378 96.442 170.025 96.442Z" fill="#F0F7FF"/>
<path d="M170.025 105.742C169.376 105.742 168.854 105.22 168.854 104.571C168.854 103.922 169.376 103.4 170.025 103.4C170.674 103.4 171.196 103.922 171.196 104.571C171.196 105.22 170.674 105.742 170.025 105.742Z" fill="#F0F7FF"/>
<path d="M170.025 115.042C170.672 115.042 171.196 114.518 171.196 113.871C171.196 113.224 170.672 112.7 170.025 112.7C169.378 112.7 168.854 113.224 168.854 113.871C168.854 114.518 169.378 115.042 170.025 115.042Z" fill="#F0F7FF"/>
<path d="M170.025 124.342C170.672 124.342 171.196 123.818 171.196 123.171C171.196 122.524 170.672 122 170.025 122C169.378 122 168.854 122.524 168.854 123.171C168.854 123.818 169.378 124.342 170.025 124.342Z" fill="#F0F7FF"/>
<path d="M79.627 139.429C80.6707 139.429 81.5137 140.272 81.5137 141.316C81.5137 142.36 80.6707 143.203 79.627 143.203C78.5832 143.203 77.7402 142.36 77.7402 141.316C77.7402 140.272 78.5832 139.429 79.627 139.429Z" fill="#F0F7FF"/>
<path d="M79.627 124.483C80.6707 124.483 81.5137 125.326 81.5137 126.369C81.5137 127.413 80.6707 128.256 79.627 128.256C78.5832 128.256 77.7402 127.413 77.7402 126.369C77.7402 125.326 78.5832 124.483 79.627 124.483Z" fill="#F0F7FF"/>
<path d="M79.627 109.529C80.6707 109.529 81.5137 110.372 81.5137 111.416C81.5137 112.459 80.6707 113.302 79.627 113.302C78.5832 113.302 77.7402 112.459 77.7402 111.416C77.7402 110.372 78.5832 109.529 79.627 109.529Z" fill="#F0F7FF"/>
<path d="M79.627 94.5822C80.6707 94.5822 81.5137 95.4252 81.5137 96.4689C81.5137 97.5126 80.6707 98.3556 79.627 98.3556C78.5832 98.3556 77.7402 97.5126 77.7402 96.4689C77.7402 95.4252 78.5832 94.5822 79.627 94.5822Z" fill="#F0F7FF"/>
<path d="M73.606 164.666L115.208 129.48L135.146 127.915L166.09 160.163L199.262 140.232L223.014 120.207" stroke="#00CCBE" stroke-width="1.357" stroke-miterlimit="10" stroke-linecap="round" stroke-linejoin="round"/>
<path d="M221.522 118.595L224.773 117.725C225.208 117.611 225.603 118.006 225.489 118.441L224.619 121.692C224.506 122.127 223.964 122.268 223.643 121.953L221.261 119.571C220.94 119.257 221.087 118.715 221.522 118.595Z" fill="#00CCBE"/>
<path d="M75.5129 164.666C75.5129 165.717 74.6565 166.573 73.606 166.573C72.5556 166.573 71.6992 165.717 71.6992 164.666C71.6992 163.616 72.5556 162.759 73.606 162.759C74.6565 162.759 75.5129 163.609 75.5129 164.666Z" fill="#00CCBE"/>
<path d="M117.115 129.48C117.115 130.531 116.259 131.387 115.208 131.387C114.158 131.387 113.301 130.537 113.301 129.48C113.301 128.43 114.158 127.573 115.208 127.573C116.259 127.573 117.115 128.423 117.115 129.48Z" fill="#00CCBE"/>
<path d="M137.053 127.915C137.053 128.965 136.204 129.821 135.147 129.821C134.096 129.821 133.24 128.965 133.24 127.915C133.24 126.864 134.096 126.008 135.147 126.008C136.197 126.014 137.053 126.864 137.053 127.915Z" fill="#00CCBE"/>
<path d="M167.998 160.163C167.998 161.214 167.148 162.07 166.091 162.07C165.034 162.07 164.184 161.214 164.184 160.163C164.184 159.113 165.04 158.256 166.091 158.256C167.141 158.256 167.998 159.113 167.998 160.163Z" fill="#00CCBE"/>
<path d="M201.162 140.232C201.162 141.282 200.306 142.139 199.255 142.139C198.205 142.139 197.349 141.282 197.349 140.232C197.349 139.181 198.205 138.325 199.255 138.325C200.313 138.325 201.162 139.181 201.162 140.232Z" fill="#00CCBE"/>
<path d="M67.4238 94.1003V176.261" stroke="#F0F7FF" stroke-width="0.3319" stroke-miterlimit="10"/>
<path d="M90.2793 154.637V176.261" stroke="#F0F7FF" stroke-width="0.3319" stroke-miterlimit="10"/>
<path d="M90.2793 94.1003V146.401" stroke="#F0F7FF" stroke-width="0.3319" stroke-miterlimit="10"/>
<path d="M113.141 133.013V176.261" stroke="#F0F7FF" stroke-width="0.3319" stroke-miterlimit="10"/>
<path d="M113.141 94.1003V126.362" stroke="#F0F7FF" stroke-width="0.3319" stroke-miterlimit="10"/>
<path d="M135.996 132.324V176.261" stroke="#F0F7FF" stroke-width="0.3319" stroke-miterlimit="10"/>
<path d="M135.996 94.1003V124.181" stroke="#F0F7FF" stroke-width="0.3319" stroke-miterlimit="10"/>
<path d="M158.851 158.256V176.261" stroke="#F0F7FF" stroke-width="0.3319" stroke-miterlimit="10"/>
<path d="M158.851 94.1003V145.551" stroke="#F0F7FF" stroke-width="0.3319" stroke-miterlimit="10"/>
<path d="M181.713 153.091V176.261" stroke="#F0F7FF" stroke-width="0.3319" stroke-miterlimit="10"/>
<path d="M181.713 94.1003V147.391" stroke="#F0F7FF" stroke-width="0.3319" stroke-miterlimit="10"/>
<path d="M204.567 139.175V176.261" stroke="#F0F7FF" stroke-width="0.3319" stroke-miterlimit="10"/>
<path d="M204.567 94.1003V131.996" stroke="#F0F7FF" stroke-width="0.3319" stroke-miterlimit="10"/>
<path d="M227.423 94.1003V176.261" stroke="#F0F7FF" stroke-width="0.3319" stroke-miterlimit="10"/>
<path d="M20.134 149.605C18.9699 149.605 18.0332 148.662 18.0332 147.505V131.28C18.0332 130.116 18.9766 129.179 20.134 129.179C21.2982 129.179 22.2349 130.122 22.2349 131.28V147.505C22.2416 148.662 21.2982 149.605 20.134 149.605Z" fill="#F0F7FF"/>
<path d="M9.91797 139.389C9.91797 138.225 10.8613 137.288 12.0188 137.288H28.2435C29.4077 137.288 30.3443 138.231 30.3443 139.389C30.3443 140.553 29.401 141.49 28.2435 141.49H12.0255C10.8613 141.49 9.91797 140.553 9.91797 139.389Z" fill="#F0F7FF"/>
<path d="M365.643 133.388C364.479 133.388 363.542 132.444 363.542 131.287V115.062C363.542 113.898 364.486 112.961 365.643 112.961C366.807 112.961 367.744 113.905 367.744 115.062V131.287C367.751 132.444 366.807 133.388 365.643 133.388Z" fill="#F0F7FF"/>
<path d="M355.427 123.171C355.427 122.007 356.37 121.07 357.528 121.07H373.752C374.916 121.07 375.853 122.014 375.853 123.171C375.853 124.335 374.91 125.272 373.752 125.272H357.528C356.37 125.272 355.427 124.329 355.427 123.171Z" fill="#F0F7FF"/>
<path d="M149.142 176.381L166.792 219.362" stroke="#000061" stroke-width="1.7672" stroke-miterlimit="10" stroke-linecap="round" stroke-linejoin="round"/>
<path d="M214.864 218.693H167.073" stroke="#000061" stroke-width="3.5345" stroke-miterlimit="10" stroke-linecap="round" stroke-linejoin="round"/>
<path d="M135.936 172.782L132.436 177.104C129.693 180.489 127.505 184.283 125.96 188.351L117.289 211.132C117.048 211.768 116.921 212.444 116.921 213.119C116.921 216.21 119.423 218.713 122.514 218.713H153.773" stroke="#FFB149" stroke-width="2.3563" stroke-miterlimit="10" stroke-linecap="round" stroke-linejoin="round"/>
<path d="M126.428 133.809L145.442 209.547" stroke="#000061" stroke-width="3.0459" stroke-miterlimit="10"/>
<path d="M32 270H133.617" stroke="#F0F7FF" stroke-width="2.3563" stroke-miterlimit="10" stroke-linecap="round" stroke-linejoin="round"/>
<path d="M207.833 220.298L233.846 308.28" stroke="#FFB149" stroke-width="2.3563" stroke-miterlimit="10" stroke-linecap="round" stroke-linejoin="round"/>
<path d="M110.183 220.298L84.1699 308.28" stroke="#FFB149" stroke-width="2.3563" stroke-miterlimit="10" stroke-linecap="round" stroke-linejoin="round"/>
<path d="M99.4849 220.298H218.524" stroke="#000061" stroke-width="3.5345" stroke-miterlimit="10" stroke-linecap="round" stroke-linejoin="round"/>
<path d="M106.617 222.131H112.659" stroke="#000061" stroke-width="3.5345" stroke-miterlimit="10" stroke-linecap="round" stroke-linejoin="round"/>
<path d="M205.564 222.131H211.612" stroke="#000061" stroke-width="3.5345" stroke-miterlimit="10" stroke-linecap="round" stroke-linejoin="round"/>
<path d="M290.882 236.195L245.119 240.116C243.272 240.116 241.499 240.852 240.194 242.157C237.946 244.405 237.505 247.89 239.124 250.627L266.228 296.39H276.31L267.653 263.727L297.038 262.175L290.882 236.195Z" fill="#304156"/>
<path d="M252.579 308.279C252.285 308.279 252.097 307.972 252.218 307.704C253.362 305.188 255.657 303.362 258.393 302.813L268.248 300.746L275.541 301.114C276.203 301.147 276.745 301.636 276.852 302.291L277.602 306.888C277.722 307.617 277.16 308.279 276.418 308.279H252.579Z" fill="#304156"/>
<path d="M266.749 296.384C266.662 296.33 268.388 301.168 268.388 301.168C270.924 301.79 273.045 301.837 275.996 301.281L275.046 296.37L266.749 296.384Z" fill="#EDA6A6"/>
<path d="M260.212 302.265C260.212 302.265 262.501 301.014 263.986 303.409" stroke="#1890FF" stroke-width="0.7728" stroke-miterlimit="10"/>
<path d="M264.328 301.536C264.328 301.536 266.616 300.284 268.101 302.68" stroke="#1890FF" stroke-width="0.7728" stroke-miterlimit="10"/>
<path d="M252.914 248.553L289.719 237.961L320.482 252.44L318.033 258.662C313.444 266.771 304.244 271.782 294.957 272.572C292.676 272.766 290.381 272.679 288.12 272.318L268.764 269.227C260.595 267.922 252.265 270.27 245.976 275.643L221.716 296.384L214.824 292.336L226.258 270.344C231.792 259.733 241.419 251.858 252.914 248.553Z" fill="#304156"/>
<path d="M298.871 192.459L292.648 188.839L281.529 196.68L263.651 225.744L274.082 237.56L283.91 225.343L289.718 237.955L320.481 252.433L322.134 244.271C324.087 234.603 323.064 224.567 319.203 215.488C315.082 205.827 307.956 197.744 298.871 192.459Z" fill="#1890FF"/>
<path d="M221.273 211.025L264.769 223.938L274.089 237.56L262.033 238.664L254.332 234.87L221.608 217.134L221.273 211.025Z" fill="#1890FF"/>
<path d="M221.274 211.025L206.909 210.791C204.922 210.758 202.982 211.373 201.376 212.544L200.834 212.939C200.506 213.18 200.62 213.701 201.028 213.775L212.536 215.869C213.499 216.043 214.489 216.063 215.46 215.923C217.146 215.682 218.838 215.147 220.397 215.836L221.581 216.358L221.274 211.025Z" fill="#EDA6A6"/>
<path d="M221.588 203.659L207.23 204.007C205.524 204.047 203.872 204.609 202.5 205.612L201.59 206.282C201.262 206.516 201.383 207.031 201.778 207.104L212.79 209.112C214.082 209.346 215.413 209.272 216.678 208.898C217.822 208.556 218.798 207.774 219.983 207.934L223.147 208.369L221.588 203.659Z" fill="#EDA6A6"/>
<path d="M195.167 308.28C194.752 308.28 194.485 307.845 194.665 307.477C195.89 305.075 198.338 303.342 200.995 302.813L209.231 301.341C209.86 301.228 210.495 301.174 211.137 301.174L218.684 300.826C219.126 300.806 219.507 301.127 219.568 301.562L220.257 306.928C220.35 307.644 219.788 308.28 219.066 308.28H195.167Z" fill="#304156"/>
<path d="M215.313 292.617C215.226 292.564 210.997 301.168 210.997 301.168C213.734 301.917 216.49 301.91 219.273 301.168L221.729 296.384L215.313 292.617Z" fill="#EDA6A6"/>
<path d="M280.224 198.808L259.818 212.624L247.373 210.39L221.588 203.659L223.368 209.065L252.144 221.222L264.026 225.142L280.224 198.808Z" fill="#007BED"/>
<path d="M203.683 302.225C203.683 302.225 205.971 300.973 207.457 303.369" stroke="#1890FF" stroke-width="0.7728" stroke-miterlimit="10"/>
<path d="M207.798 301.488C207.798 301.488 210.087 300.237 211.572 302.633" stroke="#1890FF" stroke-width="0.7728" stroke-miterlimit="10"/>
<path d="M259.818 173.156L263.116 188.538C263.29 189.361 264.12 189.863 264.929 189.635L265.94 189.354L268.696 195.556L277.314 190.733L281.536 196.68C286.661 195.376 290.334 192.733 292.655 188.839L271.453 167.469L259.818 173.156Z" fill="#EDA6A6"/>
<path d="M262.749 176.689H259.678C258.346 176.689 257.088 176.087 256.259 175.05L253.73 171.905C253.208 171.263 252.927 170.46 252.927 169.63C252.927 167.677 254.479 166.071 256.433 166.011L262.073 165.824C266.341 165.683 270.603 165.977 274.812 166.7L277.254 167.121C278.478 167.336 279.502 168.152 279.983 169.296L284.848 180.958L275.079 175.645L262.749 176.689Z" fill="#304156"/>
<path d="M280.84 181.901C280.546 181.305 280.399 180.65 280.446 179.987L281.021 171.798L270.731 173.979L274.284 181.085C275.394 183.306 275.187 185.942 273.782 187.949L272.47 187.702C271.775 187.575 271.059 187.534 270.356 187.601C269.105 187.708 267.894 188.116 266.83 188.792L266.074 189.274C265.947 189.354 265.887 189.515 265.934 189.662L267.499 194.693C267.794 195.643 268.677 196.292 269.674 196.292C270.015 196.292 270.356 196.212 270.664 196.065L274.11 194.406C276.137 193.429 277.97 192.091 279.522 190.465C281.704 188.17 282.232 184.751 280.84 181.901Z" fill="#304156"/>
<path d="M290.621 238.778L320.488 252.44L321.124 249.757C321.197 249.449 321.037 249.135 320.749 249.014L288.541 235.386L289.129 237.118C289.37 237.854 289.912 238.457 290.621 238.778Z" fill="#304156"/>
<path opacity="0.51" d="M218.336 289.312C218.336 289.312 227.71 267.367 239.987 258.06C252.258 248.747 288.541 240.778 288.541 240.778" stroke="white" stroke-width="0.261" stroke-miterlimit="10"/>
<path d="M283.918 225.343C284.079 225.095 292.649 214.678 292.649 214.678L286.052 229.986L283.918 225.343Z" fill="#304156"/>
<path d="M294.348 272.686L281.709 308.279" stroke="#000061" stroke-width="1.5456" stroke-miterlimit="10" stroke-linecap="round" stroke-linejoin="round"/>
<path d="M310.359 267.172L331.086 308.279" stroke="#000061" stroke-width="1.5456" stroke-miterlimit="10" stroke-linecap="round" stroke-linejoin="round"/>
<path d="M286.493 271.889L287.396 272.077C290.146 272.639 292.956 272.819 295.752 272.612C296.147 272.585 296.535 272.545 296.923 272.505C308.317 271.214 317.711 262.944 320.983 251.951L332.169 214.35" stroke="#000061" stroke-width="1.5456" stroke-miterlimit="10" stroke-linecap="round" stroke-linejoin="round"/>
<path d="M382.604 308.755H366.226C365.617 308.755 365.102 308.313 365.008 307.718L360.505 279.932C360.385 279.182 360.967 278.5 361.723 278.5H387.107C387.87 278.5 388.452 279.182 388.325 279.932L383.822 307.718C383.728 308.313 383.213 308.755 382.604 308.755Z" fill="#F0F7FF"/>
<path d="M376.028 283.076L377.654 274.372C384.17 267.413 387.991 256.916 389.075 245.181C389.195 243.869 389.269 242.571 389.295 241.287L384.211 243.294C384.211 243.294 386.88 240.899 389.302 238.778C389.101 229.384 386.499 220.813 382.217 214.223C375.586 221.181 370.883 231.532 369.779 243.394C369.719 244.03 369.672 244.659 369.638 245.288L374.523 253.082C374.389 252.982 371.552 250.761 369.538 249.141C369.632 258.689 372.201 267.42 376.496 274.137L375.673 283.043L376.028 283.076Z" fill="#1890FF"/>
<path d="M374.141 284.381L371.946 275.803C375.118 266.811 374.576 255.618 370.856 244.438C370.441 243.193 369.986 241.969 369.491 240.785L365.644 244.665C365.644 244.665 367.129 241.394 368.487 238.483C364.526 229.966 358.699 223.162 352.129 218.853C348.857 227.892 348.71 239.259 352.477 250.56C352.677 251.162 352.885 251.757 353.105 252.346L360.713 257.518C360.552 257.478 357.06 256.588 354.564 255.912C358.485 264.617 364.352 271.582 370.989 276.004L373.813 284.488L374.141 284.381Z" fill="#1890FF"/>
<path d="M88.519 201.411H57.4479C55.3203 201.411 53.5874 199.685 53.5874 197.55V184.604C53.5874 182.477 55.3136 180.744 57.4479 180.744H88.519C90.6466 180.744 92.3794 182.47 92.3794 184.604V197.55C92.3794 199.678 90.6466 201.411 88.519 201.411Z" fill="#00CCBE"/>
<path d="M227.509 59.7176H198.445C196.451 59.7176 194.839 58.0984 194.839 56.1113V44.0014C194.839 42.0076 196.458 40.3951 198.445 40.3951H227.509C229.503 40.3951 231.115 42.0143 231.115 44.0014V56.1113C231.122 58.0984 229.503 59.7176 227.509 59.7176Z" fill="#1890FF"/>
<defs>
<filter id="filter0_d_19_772" x="0" y="34" width="452" height="296" filterUnits="userSpaceOnUse" color-interpolation-filters="sRGB">
<feFlood flood-opacity="0" result="BackgroundImageFix"/>
<feColorMatrix in="SourceAlpha" type="matrix" values="0 0 0 0 0 0 0 0 0 0 0 0 0 0 0 0 0 0 127 0" result="hardAlpha"/>
<feOffset dx="10" dy="30"/>
<feGaussianBlur stdDeviation="10"/>
<feColorMatrix type="matrix" values="0 0 0 0 0.946528 0 0 0 0 0.963483 0 0 0 0 0.979167 0 0 0 1 0"/>
<feBlend mode="normal" in2="BackgroundImageFix" result="effect1_dropShadow_19_772"/>
<feBlend mode="normal" in="SourceGraphic" in2="effect1_dropShadow_19_772" result="shape"/>
</filter>
</defs>
</svg>
