<svg width="429" height="298" viewBox="0 0 429 298" fill="none" xmlns="http://www.w3.org/2000/svg">
<path d="M62.1587 55.6112L65.134 50.4619L68.1093 55.6112H62.1587Z" fill="#40C9C6"/>
<path d="M375.103 45.3869L378.078 40.2375L381.046 45.3869H375.103Z" fill="#40C9C6"/>
<path d="M84.1953 65.2051L81.22 70.3544L78.2446 65.2051H84.1953Z" fill="url(#paint0_linear_20_473)"/>
<path d="M82.5702 44.6227L77.4209 41.6473L82.5702 38.6794V44.6227Z" fill="#40C9C6"/>
<path d="M380.904 59.9962L383.872 54.8469L386.848 59.9962H380.904Z" fill="url(#paint1_linear_20_473)"/>
<path d="M400.589 33.4485L405.738 36.4238L400.589 39.3991V33.4485Z" fill="url(#paint2_linear_20_473)"/>
<path d="M404.395 87.8796C404.351 87.8796 404.299 87.8721 404.254 87.8499L394.015 83.7542C393.874 83.6948 393.785 83.5613 393.785 83.4129V70.1018C393.785 69.9831 393.844 69.8718 393.934 69.805C394.03 69.7382 394.149 69.716 394.26 69.7457L404.388 72.7877L414.516 69.7457C414.627 69.7086 414.753 69.7308 414.842 69.805C414.939 69.8718 414.991 69.9831 414.991 70.1018V83.4129C414.991 83.5613 414.902 83.7022 414.761 83.7542L404.522 87.8499C404.492 87.8721 404.447 87.8796 404.395 87.8796ZM394.527 83.168L404.395 87.1153L414.264 83.168V70.6063L404.507 73.5372C404.44 73.5594 404.366 73.5594 404.292 73.5372L394.535 70.6063V83.168H394.527Z" fill="#40C9C6"/>
<path d="M414.635 70.4804C414.598 70.4804 414.56 70.473 414.531 70.4656L404.403 67.4235L394.275 70.4656C394.082 70.5249 393.874 70.4136 393.815 70.2133C393.755 70.0204 393.867 69.8126 394.067 69.7533L404.306 66.6815C404.373 66.6592 404.447 66.6592 404.521 66.6815L414.761 69.7533C414.954 69.8126 415.072 70.0204 415.006 70.2133C414.939 70.3765 414.79 70.4804 414.635 70.4804Z" fill="#40C9C6"/>
<path d="M404.396 87.4345V73.107L414.635 70.1094V83.4204L404.396 87.4345Z" fill="#40C9C6"/>
<path d="M416.683 105.286C416.624 105.286 416.572 105.271 416.52 105.249L408.328 101.153C408.202 101.087 408.121 100.961 408.121 100.82V91.6042C408.121 91.4855 408.18 91.3668 408.276 91.3C408.38 91.2332 408.506 91.211 408.618 91.2555L416.676 94.2753L424.733 91.2555C424.852 91.211 424.978 91.2258 425.075 91.3C425.171 91.3668 425.231 91.4855 425.231 91.6042V100.82C425.231 100.961 425.149 101.087 425.023 101.153L416.831 105.249C416.794 105.271 416.742 105.286 416.683 105.286ZM408.863 100.59L416.683 104.5L424.503 100.59V92.1385L416.817 95.0247C416.735 95.0544 416.638 95.0544 416.557 95.0247L408.87 92.1385V100.59H408.863Z" fill="#B3CDFA"/>
<path d="M424.874 91.9753C424.83 91.9753 424.785 91.9679 424.741 91.953L416.683 88.9332L408.625 91.953C408.432 92.0272 408.217 91.9308 408.15 91.7379C408.076 91.5449 408.172 91.3298 408.365 91.263L416.557 88.1912C416.638 88.1615 416.735 88.1615 416.816 88.1912L425.008 91.263C425.201 91.3372 425.297 91.5524 425.223 91.7379C425.164 91.8862 425.023 91.9753 424.874 91.9753Z" fill="#B3CDFA"/>
<path d="M416.683 104.841V94.6021L424.874 91.6045V100.82L416.683 104.841Z" fill="#B3CDFA"/>
<path d="M392.108 114.502C392.071 114.502 392.027 114.494 391.99 114.48L379.702 110.384C379.554 110.332 379.45 110.191 379.45 110.035V93.6523C379.45 93.5336 379.51 93.4223 379.606 93.3481C379.702 93.2813 379.829 93.2591 379.94 93.2962L392.108 97.3548L404.277 93.2962C404.388 93.2591 404.514 93.2739 404.611 93.3481C404.707 93.4149 404.766 93.5336 404.766 93.6523V110.035C404.766 110.198 404.663 110.339 404.514 110.384L392.227 114.48C392.19 114.494 392.153 114.502 392.108 114.502ZM380.2 109.768L392.116 113.738L404.032 109.768V94.1717L392.234 98.1042C392.16 98.1264 392.079 98.1264 391.997 98.1042L380.2 94.1717V109.768Z" fill="#B3CDFA"/>
<path d="M404.396 94.0234C404.359 94.0234 404.314 94.016 404.277 94.0011L392.109 89.9425L379.94 94.0011C379.747 94.0679 379.54 93.964 379.473 93.7637C379.406 93.5708 379.51 93.3556 379.71 93.2962L391.997 89.2005C392.072 89.1783 392.153 89.1783 392.235 89.2005L404.522 93.2962C404.715 93.363 404.819 93.5708 404.759 93.7637C404.7 93.9269 404.552 94.0234 404.396 94.0234Z" fill="#B3CDFA"/>
<path d="M392.108 97.6739V114.057L404.396 110.035V93.6523L392.108 97.6739Z" fill="#B3CDFA"/>
<path d="M367.623 219.685L112.346 200.186C110.669 200.06 109.318 198.294 109.318 196.246V28.3735C109.318 26.3257 110.669 24.5598 112.346 24.4336L367.623 4.93448C370.131 4.74157 372.171 6.62619 372.171 9.14891V215.47C372.164 217.986 370.123 219.87 367.623 219.685Z" fill="#ECF3FF"/>
<path d="M358.407 215.136L103.13 195.637C101.453 195.511 100.103 193.745 100.103 191.697V23.8249C100.103 21.7771 101.453 20.0112 103.13 19.885L358.407 0.385897C360.915 0.192983 362.956 2.0776 362.956 4.60032V210.922C362.948 213.444 360.915 215.329 358.407 215.136Z" fill="white"/>
<path d="M362.949 4.60028C362.949 2.08498 360.908 0.192936 358.401 0.38585L103.123 19.885C101.447 20.0111 100.096 21.777 100.096 23.8249V39.4732L362.941 23.8323V4.60028H362.949Z" fill="#304156"/>
<path d="M358.756 215.522C358.63 215.522 358.504 215.515 358.378 215.507L103.101 196.008C101.246 195.867 99.7319 193.931 99.7319 191.697V23.825C99.7319 21.5917 101.246 19.6551 103.101 19.5141L358.378 0.0149802C361.123 -0.200193 363.319 1.89218 363.319 4.6004V210.922C363.319 213.504 361.316 215.522 358.756 215.522ZM358.756 0.749535C358.652 0.749535 358.541 0.756958 358.437 0.764378L103.16 20.2635C101.683 20.3748 100.474 21.9775 100.474 23.8324V191.705C100.474 193.56 101.676 195.162 103.16 195.274L358.437 214.773C360.737 214.958 362.585 213.2 362.585 210.929V4.6004C362.577 2.44124 360.9 0.749535 358.756 0.749535Z" fill="#97A8BE"/>
<path d="M108.925 29.1969C108.925 30.3693 108.146 31.3635 107.189 31.4303C106.232 31.4971 105.46 30.5993 105.46 29.4344C105.46 28.2695 106.232 27.2678 107.189 27.201C108.146 27.1343 108.925 28.0246 108.925 29.1969Z" fill="url(#paint3_linear_20_473)"/>
<path d="M114.706 28.8036C114.706 29.9759 113.919 30.985 112.955 31.0518C111.99 31.1185 111.211 30.2133 111.211 29.041C111.211 27.8687 111.99 26.867 112.955 26.7928C113.919 26.7335 114.706 27.6312 114.706 28.8036Z" fill="#1890FF"/>
<path d="M120.538 28.4106C120.538 29.5903 119.744 30.5994 118.772 30.6662C117.8 30.733 117.006 29.8277 117.006 28.648C117.006 27.4683 117.792 26.4592 118.772 26.3924C119.744 26.3256 120.538 27.2308 120.538 28.4106Z" fill="url(#paint4_linear_20_473)"/>
<path d="M257.417 35.1474V52.2351L359.543 47.8871V29.4639L257.417 35.1474Z" fill="#ECF3FF"/>
<path d="M327.734 208.659L257.417 203.502V57.0803L327.734 54.3499V208.659Z" fill="#ECF3FF"/>
<path d="M251.133 128.711L173.604 127.464V39.8146L251.133 35.4963V128.711Z" fill="#ECF3FF"/>
<path d="M116.62 194.086L102.522 193.047V43.7692L116.62 42.9827V194.086Z" fill="url(#paint5_linear_20_473)"/>
<path d="M311.634 145.754L309.816 145.709C308.48 145.68 307.397 144.522 307.397 143.135V141.25C307.397 139.863 308.48 138.757 309.816 138.779L311.634 138.816C312.977 138.839 314.067 139.996 314.067 141.391V143.283C314.067 144.686 312.977 145.791 311.634 145.754Z" fill="#B3CDFA"/>
<path d="M320.604 145.969L318.757 145.925C317.399 145.895 316.308 144.73 316.308 143.335V141.436C316.308 140.041 317.406 138.928 318.757 138.95L320.604 138.987C321.969 139.009 323.075 140.174 323.075 141.577V143.484C323.068 144.893 321.962 146.006 320.604 145.969Z" fill="#B3CDFA"/>
<path d="M268.502 153.678L266.796 153.626C265.542 153.589 264.525 152.469 264.525 151.118V149.293C264.525 147.95 265.542 146.882 266.796 146.919L268.502 146.963C269.764 146.993 270.788 148.121 270.788 149.471V151.304C270.788 152.654 269.764 153.715 268.502 153.678Z" fill="white"/>
<path d="M276.909 153.938L275.18 153.886C273.911 153.849 272.88 152.721 272.88 151.363V149.523C272.88 148.173 273.911 147.097 275.18 147.134L276.909 147.179C278.185 147.208 279.224 148.344 279.224 149.701V151.549C279.224 152.907 278.185 153.975 276.909 153.938Z" fill="white"/>
<path d="M285.419 154.198L283.668 154.146C282.385 154.109 281.338 152.973 281.338 151.608V149.761C281.338 148.395 282.377 147.32 283.668 147.357L285.419 147.401C286.71 147.431 287.764 148.573 287.764 149.939V151.801C287.764 153.159 286.718 154.235 285.419 154.198Z" fill="white"/>
<path d="M294.048 154.465L292.275 154.413C290.969 154.376 289.916 153.226 289.916 151.86V149.998C289.916 148.625 290.969 147.542 292.275 147.579L294.048 147.624C295.354 147.661 296.423 148.804 296.423 150.176V152.046C296.423 153.419 295.354 154.502 294.048 154.465Z" fill="white"/>
<path d="M302.781 154.732L300.986 154.68C299.665 154.643 298.597 153.485 298.597 152.105V150.228C298.597 148.848 299.665 147.757 300.986 147.794L302.781 147.839C304.11 147.876 305.185 149.026 305.185 150.414V152.298C305.185 153.678 304.11 154.769 302.781 154.732Z" fill="white"/>
<path d="M311.634 155.007L309.816 154.947C308.48 154.903 307.397 153.745 307.397 152.358V150.473C307.397 149.086 308.48 147.988 309.816 148.017L311.634 148.062C312.977 148.099 314.067 149.256 314.067 150.651V152.543C314.067 153.946 312.977 155.044 311.634 155.007Z" fill="#B3CDFA"/>
<path d="M320.604 155.281L318.757 155.222C317.399 155.177 316.308 154.012 316.308 152.617V150.718C316.308 149.323 317.406 148.217 318.757 148.247L320.604 148.292C321.969 148.329 323.075 149.494 323.075 150.896V152.803C323.068 154.213 321.962 155.318 320.604 155.281Z" fill="#B3CDFA"/>
<path d="M268.502 162.626L266.796 162.56C265.542 162.515 264.525 161.387 264.525 160.037V158.212C264.525 156.869 265.542 155.808 266.796 155.852L268.502 155.904C269.764 155.949 270.788 157.076 270.788 158.427V160.26C270.788 161.617 269.764 162.678 268.502 162.626Z" fill="white"/>
<path d="M276.909 162.946L275.18 162.879C273.911 162.834 272.88 161.692 272.88 160.341V158.501C272.88 157.151 273.911 156.082 275.18 156.127L276.909 156.186C278.185 156.231 279.224 157.366 279.224 158.724V160.571C279.224 161.929 278.185 162.99 276.909 162.946Z" fill="white"/>
<path d="M285.419 163.265L283.668 163.198C282.385 163.146 281.338 162.003 281.338 160.645V158.798C281.338 157.433 282.377 156.364 283.668 156.409L285.419 156.468C286.71 156.513 287.764 157.655 287.764 159.021V160.883C287.764 162.241 286.718 163.317 285.419 163.265Z" fill="white"/>
<path d="M294.048 163.591L292.275 163.524C290.969 163.472 289.916 162.322 289.916 160.957V159.095C289.916 157.722 290.969 156.646 292.275 156.691L294.048 156.75C295.354 156.795 296.423 157.945 296.423 159.325V161.195C296.423 162.56 295.354 163.636 294.048 163.591Z" fill="white"/>
<path d="M302.781 163.918L300.986 163.851C299.665 163.799 298.597 162.642 298.597 161.261V159.384C298.597 158.004 299.665 156.921 300.986 156.965L302.781 157.025C304.11 157.069 305.185 158.227 305.185 159.614V161.499C305.185 162.886 304.11 163.97 302.781 163.918Z" fill="white"/>
<path d="M311.634 164.251L309.816 164.185C308.48 164.133 307.397 162.968 307.397 161.58V159.696C307.397 158.308 308.48 157.218 309.816 157.262L311.634 157.321C312.977 157.366 314.067 158.531 314.067 159.926V161.818C314.067 163.205 312.977 164.296 311.634 164.251Z" fill="#B3CDFA"/>
<path d="M320.604 164.585L318.757 164.519C317.399 164.467 316.308 163.294 316.308 161.892V159.993C316.308 158.598 317.406 157.5 318.757 157.544L320.604 157.603C321.969 157.648 323.075 158.82 323.075 160.23V162.137C323.068 163.539 321.962 164.637 320.604 164.585Z" fill="#B3CDFA"/>
<path d="M268.502 171.582L266.796 171.508C265.542 171.456 264.525 170.321 264.525 168.97V167.145C264.525 165.802 265.542 164.748 266.796 164.8L268.502 164.867C269.764 164.919 270.788 166.054 270.788 167.405V169.237C270.788 170.588 269.764 171.641 268.502 171.582Z" fill="white"/>
<path d="M276.909 171.953L275.18 171.879C273.911 171.82 272.88 170.677 272.88 169.327V167.487C272.88 166.136 273.911 165.075 275.18 165.127L276.909 165.194C278.185 165.246 279.224 166.388 279.224 167.746V169.594C279.224 170.952 278.185 172.013 276.909 171.953Z" fill="white"/>
<path d="M285.419 172.332L283.668 172.257C282.385 172.198 281.338 171.048 281.338 169.69V167.843C281.338 166.477 282.377 165.416 283.668 165.468L285.419 165.535C286.71 165.587 287.764 166.737 287.764 168.102V169.965C287.764 171.33 286.718 172.391 285.419 172.332Z" fill="white"/>
<path d="M294.048 172.717L292.275 172.636C290.969 172.576 289.916 171.419 289.916 170.046V168.184C289.916 166.811 290.969 165.743 292.275 165.795L294.048 165.862C295.354 165.913 296.423 167.071 296.423 168.451V170.321C296.423 171.701 295.354 172.769 294.048 172.717Z" fill="white"/>
<path d="M302.781 173.103L300.986 173.022C299.665 172.962 298.597 171.797 298.597 170.417V168.54C298.597 167.16 299.665 166.084 300.986 166.136L302.781 166.21C304.11 166.262 305.185 167.427 305.185 168.815V170.699C305.185 172.087 304.11 173.163 302.781 173.103Z" fill="white"/>
<path d="M311.634 173.497L309.816 173.415C308.48 173.356 307.397 172.183 307.397 170.796V168.911C307.397 167.524 308.48 166.44 309.816 166.492L311.634 166.566C312.977 166.618 314.067 167.791 314.067 169.186V171.078C314.067 172.473 312.977 173.556 311.634 173.497Z" fill="#B3CDFA"/>
<path d="M320.604 173.89L318.757 173.808C317.399 173.749 316.308 172.569 316.308 171.167V169.267C316.308 167.872 317.406 166.782 318.757 166.834L320.604 166.908C321.969 166.96 323.075 168.147 323.075 169.549V171.456C323.068 172.866 321.962 173.949 320.604 173.89Z" fill="#B3CDFA"/>
<path d="M268.502 180.538L266.796 180.449C265.542 180.382 264.525 179.239 264.525 177.896V176.071C264.525 174.728 265.542 173.682 266.796 173.741L268.502 173.823C269.764 173.882 270.788 175.025 270.788 176.375V178.201C270.788 179.559 269.764 180.597 268.502 180.538Z" fill="white"/>
<path d="M276.909 180.961L275.18 180.872C273.911 180.805 272.88 179.655 272.88 178.305V176.464C272.88 175.114 273.911 174.06 275.18 174.12L276.909 174.201C278.185 174.261 279.224 175.411 279.224 176.769V178.616C279.224 179.981 278.185 181.028 276.909 180.961Z" fill="white"/>
<path d="M285.419 181.399L283.668 181.31C282.385 181.243 281.338 180.085 281.338 178.727V176.88C281.338 175.515 282.377 174.461 283.668 174.52L285.419 174.602C286.71 174.661 287.764 175.819 287.764 177.192V179.054C287.764 180.412 286.718 181.465 285.419 181.399Z" fill="white"/>
<path d="M294.048 181.844L292.275 181.755C290.969 181.688 289.916 180.523 289.916 179.15V177.288C289.916 175.915 290.969 174.854 292.275 174.914L294.048 174.995C295.354 175.055 296.423 176.22 296.423 177.6V179.469C296.423 180.842 295.354 181.911 294.048 181.844Z" fill="white"/>
<path d="M302.781 182.289L300.986 182.2C299.665 182.133 298.597 180.961 298.597 179.581V177.704C298.597 176.323 299.665 175.255 300.986 175.314L302.781 175.396C304.11 175.455 305.185 176.628 305.185 178.015V179.9C305.185 181.287 304.11 182.356 302.781 182.289Z" fill="white"/>
<path d="M311.634 182.742L309.816 182.645C308.48 182.578 307.397 181.399 307.397 180.004V178.119C307.397 176.732 308.48 175.656 309.816 175.715L311.634 175.797C312.977 175.856 314.067 177.043 314.067 178.438V180.33C314.067 181.732 312.977 182.808 311.634 182.742Z" fill="#B3CDFA"/>
<path d="M320.604 183.202L318.757 183.105C317.399 183.038 316.308 181.844 316.308 180.449V178.549C316.308 177.154 317.406 176.071 318.757 176.131L320.604 176.212C321.969 176.271 323.075 177.466 323.075 178.868V180.775C323.068 182.185 321.962 183.268 320.604 183.202Z" fill="#B3CDFA"/>
<path d="M268.502 189.486L266.796 189.39C265.542 189.316 264.525 188.165 264.525 186.822V184.997C264.525 183.654 265.542 182.615 266.796 182.682L268.502 182.771C269.764 182.838 270.788 183.988 270.788 185.339V187.171C270.788 188.522 269.764 189.56 268.502 189.486Z" fill="white"/>
<path d="M324.804 48.3694L320.255 48.5698C316.924 48.7108 314.238 46.2474 314.238 43.0643V38.7386C314.238 35.5555 316.924 32.825 320.255 32.6395L324.804 32.3873C328.172 32.2018 330.91 34.6651 330.91 37.8853V42.263C330.91 45.4906 328.172 48.2211 324.804 48.3694Z" fill="white"/>
<path d="M348.435 47.3458L343.731 47.5461C340.288 47.6945 337.506 45.1866 337.506 41.9516V37.5517C337.506 34.3092 340.288 31.5343 343.731 31.3488L348.435 31.0891C351.922 30.8962 354.757 33.3966 354.757 36.6761V41.128C354.764 44.415 351.922 47.1974 348.435 47.3458Z" fill="white"/>
<path d="M341.639 35.4516V41.5506L344.065 41.4393V43.5465L346.529 41.3206L350.55 41.1277V34.9841L341.639 35.4516Z" fill="#B3CDFA"/>
<path d="M325.36 44.7117H325.345C322.429 44.7934 318.779 41.2096 318.727 38.212C318.719 37.7075 319.157 37.0694 319.558 36.8023L320.211 36.3719C320.337 36.2903 320.478 36.2458 320.619 36.2384C320.878 36.2235 321.116 36.3348 321.264 36.5352L322.459 38.1824C322.696 38.5162 322.615 38.9763 322.273 39.2434L321.568 39.785C321.709 40.0076 322.006 40.4305 322.533 40.9202C323.06 41.4174 323.512 41.6845 323.742 41.8106L324.262 41.0983C324.507 40.7644 324.996 40.6606 325.338 40.8683L327.096 41.9516C327.445 42.1668 327.541 42.6194 327.326 42.9755L326.918 43.6433C326.673 44.0514 325.879 44.6895 325.36 44.7117Z" fill="#B3CDFA"/>
<path opacity="0.47" d="M242.697 197.7C242.697 199.117 241.643 200.193 240.352 200.104C239.061 200.015 238.015 198.791 238.015 197.374C238.015 195.956 239.061 194.88 240.352 194.97C241.643 195.059 242.697 196.283 242.697 197.7Z" fill="#B3CDFA"/>
<path opacity="0.47" d="M234.164 197.106C234.164 198.516 233.125 199.584 231.849 199.495C230.572 199.406 229.541 198.189 229.541 196.787C229.541 195.385 230.572 194.309 231.849 194.398C233.125 194.48 234.164 195.696 234.164 197.106Z" fill="#B3CDFA"/>
<path opacity="0.47" d="M226.306 196.557C226.306 197.96 225.282 199.021 224.021 198.932C222.759 198.843 221.743 197.633 221.743 196.238C221.743 194.843 222.759 193.775 224.021 193.864C225.282 193.953 226.306 195.155 226.306 196.557Z" fill="#B3CDFA"/>
<path opacity="0.47" d="M218.485 196.016C218.485 197.41 217.469 198.464 216.222 198.375C214.976 198.286 213.967 197.091 213.967 195.696C213.967 194.309 214.976 193.248 216.222 193.337C217.469 193.419 218.485 194.621 218.485 196.016Z" fill="#B3CDFA"/>
<path opacity="0.47" d="M211.608 195.533C211.608 196.921 210.606 197.975 209.374 197.885C208.143 197.796 207.148 196.609 207.148 195.222C207.148 193.834 208.143 192.788 209.374 192.87C210.606 192.959 211.608 194.146 211.608 195.533Z" fill="#B3CDFA"/>
<g opacity="0.47">
<path opacity="0.47" d="M240.663 201.892C240.574 201.892 240.485 201.892 240.396 201.884C238.215 201.729 236.449 199.666 236.449 197.299C236.449 194.917 238.229 193.07 240.448 193.218C242.637 193.366 244.425 195.422 244.425 197.804C244.418 200.096 242.77 201.892 240.663 201.892ZM240.196 193.96C238.504 193.96 237.183 195.429 237.183 197.306C237.183 199.295 238.645 201.016 240.448 201.15C242.244 201.291 243.676 199.77 243.676 197.811C243.676 195.815 242.206 194.086 240.396 193.967C240.329 193.96 240.263 193.96 240.196 193.96Z" fill="#B3CDFA"/>
</g>
<path d="M244.151 170.158C243.721 166.418 238.994 145.991 226.44 145.62C216.475 145.324 211.4 158.635 208.692 158.887C205.998 159.139 204.054 152.409 200.048 153.233C196.071 154.049 195.114 160.475 192.123 162.293C189.148 164.103 187.13 162.441 181.944 161.855C178.13 161.424 175.013 164.912 173.663 166.752L244.151 170.158Z" fill="#40C9C6"/>
<path d="M251.577 176.093L168.209 171.731V134.847L168.587 134.854L251.577 136.732V176.093ZM168.951 171.033L250.835 175.314V137.459L168.951 135.611V171.033Z" fill="#B3CDFA"/>
<path d="M214.939 45.6763C200.129 46.5221 188.406 60.36 188.302 76.7503L214.939 76.0825V45.6763Z" fill="white"/>
<path d="M192.108 77.0917C192.212 91.1002 202.288 102.43 214.931 102.497V76.5278L192.108 77.0917Z" fill="#40C9C6"/>
<path d="M234.92 75.5781C234.809 63.5729 226.009 54.1943 215.332 54.5282V76.0752L234.92 75.5781Z" fill="#B3CDFA"/>
<path d="M215.332 93.6228C223.791 93.4076 230.728 85.6317 230.839 76.127L215.332 76.5128V93.6228Z" fill="white"/>
<path d="M179.012 107.594C178.804 107.594 178.641 107.431 178.641 107.223C178.641 107.015 178.804 106.852 179.012 106.852H180.355C180.563 106.852 180.726 107.015 180.726 107.223C180.726 107.431 180.563 107.594 180.355 107.594H179.012ZM185.497 107.587C185.289 107.587 185.126 107.424 185.126 107.216C185.126 107.008 185.289 106.845 185.497 106.845H186.84C187.048 106.845 187.211 107.008 187.211 107.216C187.211 107.424 187.048 107.587 186.84 107.587H185.497ZM191.974 107.587C191.767 107.587 191.603 107.424 191.603 107.216C191.603 107.008 191.767 106.845 191.974 106.845H193.317C193.525 106.845 193.688 107.008 193.688 107.216C193.688 107.424 193.525 107.587 193.317 107.587H191.974ZM198.459 107.587C198.252 107.587 198.088 107.424 198.088 107.216C198.088 107.008 198.252 106.845 198.459 106.845H199.802C200.01 106.845 200.173 107.008 200.173 107.216C200.173 107.424 200.01 107.587 199.802 107.587H198.459ZM204.944 107.579C204.736 107.579 204.573 107.416 204.573 107.208C204.573 107.001 204.736 106.837 204.944 106.837H206.287C206.495 106.837 206.658 107.001 206.658 107.208C206.658 107.416 206.495 107.579 206.287 107.579H204.944ZM211.422 107.579C211.214 107.579 211.051 107.416 211.051 107.208C211.051 107.001 211.214 106.837 211.422 106.837H212.765C212.972 106.837 213.136 107.001 213.136 107.208C213.136 107.416 212.972 107.579 212.765 107.579H211.422ZM217.907 107.572C217.699 107.572 217.536 107.409 217.536 107.201C217.536 106.993 217.699 106.83 217.907 106.83H219.249C219.457 106.83 219.62 106.993 219.62 107.201C219.62 107.409 219.457 107.572 219.249 107.572H217.907ZM224.391 107.572C224.184 107.572 224.02 107.409 224.02 107.201C224.02 106.993 224.184 106.83 224.391 106.83H225.734C225.942 106.83 226.105 106.993 226.105 107.201C226.105 107.409 225.942 107.572 225.734 107.572H224.391ZM230.869 107.572C230.661 107.572 230.498 107.409 230.498 107.201C230.498 106.993 230.661 106.83 230.869 106.83H232.212C232.42 106.83 232.583 106.993 232.583 107.201C232.583 107.409 232.42 107.572 232.212 107.572H230.869ZM237.354 107.564C237.146 107.564 236.983 107.401 236.983 107.193C236.983 106.986 237.146 106.823 237.354 106.823H238.697C238.904 106.823 239.068 106.986 239.068 107.193C239.068 107.401 238.904 107.564 238.697 107.564H237.354ZM243.839 107.564C243.631 107.564 243.468 107.401 243.468 107.193C243.468 106.986 243.631 106.823 243.839 106.823H245.182C245.389 106.823 245.553 106.986 245.553 107.193C245.553 107.401 245.389 107.564 245.182 107.564H243.839ZM247.096 105.301C246.888 105.301 246.725 105.138 246.725 104.93V103.587C246.725 103.38 246.888 103.216 247.096 103.216C247.304 103.216 247.467 103.38 247.467 103.587V104.93C247.467 105.131 247.304 105.301 247.096 105.301ZM177.194 103.484C176.986 103.484 176.823 103.32 176.823 103.113V101.77C176.823 101.562 176.986 101.399 177.194 101.399C177.402 101.399 177.565 101.562 177.565 101.77V103.113C177.565 103.313 177.402 103.484 177.194 103.484ZM247.096 98.8166C246.888 98.8166 246.725 98.6533 246.725 98.4456V97.1026C246.725 96.8949 246.888 96.7316 247.096 96.7316C247.304 96.7316 247.467 96.8949 247.467 97.1026V98.4456C247.467 98.6533 247.304 98.8166 247.096 98.8166ZM177.194 96.9987C176.986 96.9987 176.823 96.8355 176.823 96.6277V95.2848C176.823 95.077 176.986 94.9138 177.194 94.9138C177.402 94.9138 177.565 95.077 177.565 95.2848V96.6277C177.565 96.8355 177.402 96.9987 177.194 96.9987ZM247.096 92.3317C246.888 92.3317 246.725 92.1685 246.725 91.9607V90.6177C246.725 90.41 246.888 90.2467 247.096 90.2467C247.304 90.2467 247.467 90.41 247.467 90.6177V91.9607C247.467 92.1685 247.304 92.3317 247.096 92.3317ZM177.194 90.5139C176.986 90.5139 176.823 90.3506 176.823 90.1429V88.7999C176.823 88.5921 176.986 88.4289 177.194 88.4289C177.402 88.4289 177.565 88.5921 177.565 88.7999V90.1429C177.565 90.3506 177.402 90.5139 177.194 90.5139ZM247.096 85.8542C246.888 85.8542 246.725 85.691 246.725 85.4832V84.1403C246.725 83.9325 246.888 83.7693 247.096 83.7693C247.304 83.7693 247.467 83.9325 247.467 84.1403V85.4832C247.467 85.6836 247.304 85.8542 247.096 85.8542ZM177.194 84.0364C176.986 84.0364 176.823 83.8732 176.823 83.6654V82.3224C176.823 82.1147 176.986 81.9514 177.194 81.9514C177.402 81.9514 177.565 82.1147 177.565 82.3224V83.6654C177.565 83.8657 177.402 84.0364 177.194 84.0364ZM247.096 79.3694C246.888 79.3694 246.725 79.2061 246.725 78.9984V77.6554C246.725 77.4476 246.888 77.2844 247.096 77.2844C247.304 77.2844 247.467 77.4476 247.467 77.6554V78.9984C247.467 79.2061 247.304 79.3694 247.096 79.3694ZM177.194 77.5515C176.986 77.5515 176.823 77.3883 176.823 77.1805V75.8376C176.823 75.6298 176.986 75.4666 177.194 75.4666C177.402 75.4666 177.565 75.6298 177.565 75.8376V77.1805C177.565 77.3883 177.402 77.5515 177.194 77.5515ZM247.096 72.8845C246.888 72.8845 246.725 72.7213 246.725 72.5135V71.1705C246.725 70.9628 246.888 70.7995 247.096 70.7995C247.304 70.7995 247.467 70.9628 247.467 71.1705V72.5135C247.467 72.7213 247.304 72.8845 247.096 72.8845ZM177.194 71.0741C176.986 71.0741 176.823 70.9108 176.823 70.7031V69.3601C176.823 69.1523 176.986 68.9891 177.194 68.9891C177.402 68.9891 177.565 69.1523 177.565 69.3601V70.7031C177.565 70.9034 177.402 71.0741 177.194 71.0741ZM247.096 66.407C246.888 66.407 246.725 66.2438 246.725 66.036V64.6931C246.725 64.4853 246.888 64.3221 247.096 64.3221C247.304 64.3221 247.467 64.4853 247.467 64.6931V66.036C247.467 66.2364 247.304 66.407 247.096 66.407ZM177.194 64.5892C176.986 64.5892 176.823 64.426 176.823 64.2182V62.8752C176.823 62.6675 176.986 62.5042 177.194 62.5042C177.402 62.5042 177.565 62.6675 177.565 62.8752V64.2182C177.565 64.426 177.402 64.5892 177.194 64.5892ZM247.096 59.9222C246.888 59.9222 246.725 59.7589 246.725 59.5512V58.2082C246.725 58.0004 246.888 57.8372 247.096 57.8372C247.304 57.8372 247.467 58.0004 247.467 58.2082V59.5512C247.467 59.7589 247.304 59.9222 247.096 59.9222ZM177.194 58.1043C176.986 58.1043 176.823 57.9411 176.823 57.7333V56.3903C176.823 56.1826 176.986 56.0194 177.194 56.0194C177.402 56.0194 177.565 56.1826 177.565 56.3903V57.7333C177.565 57.9411 177.402 58.1043 177.194 58.1043ZM247.096 53.4447C246.888 53.4447 246.725 53.2815 246.725 53.0737V51.7307C246.725 51.523 246.888 51.3597 247.096 51.3597C247.304 51.3597 247.467 51.523 247.467 51.7307V53.0737C247.467 53.274 247.304 53.4447 247.096 53.4447ZM177.194 51.6269C176.986 51.6269 176.823 51.4636 176.823 51.2559V49.9129C176.823 49.7051 176.986 49.5419 177.194 49.5419C177.402 49.5419 177.565 49.7051 177.565 49.9129V51.2559C177.565 51.4562 177.402 51.6269 177.194 51.6269ZM247.096 46.9598C246.888 46.9598 246.725 46.7966 246.725 46.5888V45.2459C246.725 45.0381 246.888 44.8749 247.096 44.8749C247.304 44.8749 247.467 45.0381 247.467 45.2459V46.5888C247.467 46.7966 247.304 46.9598 247.096 46.9598ZM177.194 45.142C176.986 45.142 176.823 44.9787 176.823 44.771V44.1403C176.823 43.8584 176.868 43.5838 176.949 43.3241C177.009 43.1312 177.224 43.0199 177.417 43.0867C177.61 43.1461 177.721 43.3612 177.654 43.5541C177.595 43.7396 177.565 43.94 177.565 44.1403V44.771C177.565 44.9787 177.402 45.142 177.194 45.142ZM181.802 42.2854C181.609 42.2854 181.438 42.1296 181.431 41.9366C181.424 41.7289 181.579 41.5582 181.78 41.5434L183.123 41.4692C183.33 41.4618 183.501 41.6176 183.516 41.8179C183.523 42.0257 183.367 42.1963 183.167 42.2112L181.824 42.2854C181.817 42.2854 181.809 42.2854 181.802 42.2854ZM188.279 41.9366C188.086 41.9366 187.916 41.7808 187.908 41.5879C187.901 41.3802 188.057 41.2095 188.257 41.1947L189.6 41.1205C189.808 41.113 189.978 41.2689 189.993 41.4692C190.001 41.6769 189.845 41.8476 189.645 41.8624L188.302 41.9366C188.287 41.9366 188.279 41.9366 188.279 41.9366ZM194.749 41.5879C194.556 41.5879 194.386 41.4321 194.378 41.2392C194.371 41.0314 194.527 40.8608 194.727 40.8459L196.07 40.7717C196.27 40.7717 196.449 40.9201 196.463 41.1205C196.471 41.3282 196.315 41.4989 196.115 41.5137L194.772 41.5879C194.764 41.5879 194.757 41.5879 194.749 41.5879ZM201.219 41.2466C201.027 41.2466 200.856 41.0908 200.848 40.8979C200.841 40.6901 200.997 40.5195 201.197 40.5046L202.54 40.4304C202.74 40.423 202.919 40.5788 202.933 40.7792C202.941 40.9869 202.785 41.1576 202.585 41.1724L201.242 41.2466C201.234 41.2466 201.227 41.2466 201.219 41.2466ZM207.697 40.8979C207.504 40.8979 207.333 40.7421 207.326 40.5491C207.318 40.3414 207.474 40.1707 207.675 40.1559L209.018 40.0817C209.225 40.0743 209.396 40.2301 209.411 40.4304C209.418 40.6382 209.262 40.8088 209.062 40.8237L207.719 40.8979C207.712 40.8979 207.704 40.8979 207.697 40.8979ZM214.167 40.5491C213.974 40.5491 213.803 40.3933 213.796 40.2004C213.789 39.9927 213.944 39.822 214.145 39.8072L215.488 39.733C215.695 39.7256 215.866 39.8814 215.881 40.0817C215.888 40.2895 215.733 40.4601 215.532 40.475L214.189 40.5491C214.182 40.5491 214.174 40.5491 214.167 40.5491ZM247.059 40.4824C246.881 40.4824 246.725 40.3562 246.695 40.1782C246.628 39.8072 246.443 39.4733 246.176 39.2359C246.02 39.1023 246.005 38.8649 246.146 38.709C246.28 38.5532 246.517 38.5384 246.673 38.6719C247.066 39.0133 247.333 39.503 247.43 40.0372C247.467 40.2375 247.333 40.4304 247.133 40.4675C247.103 40.4749 247.081 40.4824 247.059 40.4824ZM220.637 40.2004C220.444 40.2004 220.273 40.0446 220.266 39.8517C220.259 39.6439 220.414 39.4733 220.615 39.4584L221.958 39.3842C222.158 39.3694 222.336 39.5326 222.351 39.733C222.358 39.9407 222.203 40.1114 222.002 40.1262L220.659 40.2004C220.652 40.2004 220.644 40.2004 220.637 40.2004ZM227.114 39.8591C226.922 39.8591 226.751 39.7033 226.743 39.5104C226.736 39.3026 226.892 39.132 227.092 39.1171L228.435 39.0429C228.643 39.0355 228.814 39.1913 228.828 39.3917C228.836 39.5994 228.68 39.7701 228.48 39.7849L227.137 39.8591C227.129 39.8591 227.122 39.8591 227.114 39.8591ZM233.584 39.5104C233.392 39.5104 233.221 39.3546 233.213 39.1616C233.206 38.9539 233.362 38.7832 233.562 38.7684L234.905 38.6942C235.113 38.6868 235.284 38.8426 235.298 39.0429C235.306 39.2507 235.15 39.4213 234.95 39.4362L233.607 39.5104C233.599 39.5104 233.592 39.5104 233.584 39.5104ZM240.062 39.1616C239.869 39.1616 239.698 39.0058 239.691 38.8129C239.684 38.6052 239.839 38.4345 240.04 38.4197L241.383 38.3455C241.59 38.338 241.761 38.4939 241.776 38.6942C241.783 38.902 241.627 39.0726 241.427 39.0874L240.084 39.1616C240.069 39.1616 240.069 39.1616 240.062 39.1616Z" fill="#B3CDFA"/>
<path d="M114.705 47.457L104.147 48.0061V46.0769L114.705 45.5056V47.457Z" fill="#B3CDFA"/>
<path d="M114.705 52.6508L104.147 53.1554V49.2823L114.705 48.748V52.6508Z" fill="#B3CDFA"/>
<path d="M114.705 57.8521L104.147 58.3047V54.4316L114.705 53.9419V57.8521Z" fill="#B3CDFA"/>
<path d="M148.443 45.55L120.04 47.0266V42.7899L148.443 41.2095V45.55Z" fill="#ECF3FF"/>
<path d="M148.443 53.5857L120.04 54.8693V50.6326L148.443 49.2451V53.5857Z" fill="#ECF3FF"/>
<path d="M148.443 61.6137L120.04 62.7119V58.4752L148.443 57.2732V61.6137Z" fill="#ECF3FF"/>
<path d="M148.443 69.6421L120.04 70.5473V66.3106L148.443 65.3015V69.6421Z" fill="#ECF3FF"/>
<path d="M148.443 77.6777L120.04 78.39V74.1533L148.443 73.3372V77.6777Z" fill="#ECF3FF"/>
<path d="M148.443 85.706L120.04 86.2328V81.9962L148.443 81.3655V85.706Z" fill="#ECF3FF"/>
<path d="M148.443 93.734L120.04 94.0679V89.8312L148.443 89.4009V93.734Z" fill="#ECF3FF"/>
<path d="M169.478 101.666L120.04 101.911V97.674L169.478 97.2437V101.666Z" fill="#ECF3FF"/>
<path d="M169.478 109.835L120.04 109.753V105.517L169.478 105.42V109.835Z" fill="#ECF3FF"/>
<path d="M169.478 118.004L120.04 117.588V113.352L169.478 113.589V118.004Z" fill="#ECF3FF"/>
<path d="M169.478 126.181L120.04 125.431V121.195L169.478 121.766V126.181Z" fill="#ECF3FF"/>
<path d="M159.023 134.127L120.04 133.274V129.037L159.023 129.742V134.127Z" fill="#ECF3FF"/>
<path d="M159.023 142.23L120.04 141.109V136.873L159.023 137.845V142.23Z" fill="#ECF3FF"/>
<path d="M159.023 150.325L120.04 148.952V144.715L159.023 145.947V150.325Z" fill="#ECF3FF"/>
<path d="M159.023 158.427L120.04 156.795V152.558L159.023 154.049V158.427Z" fill="#ECF3FF"/>
<path d="M159.023 166.529L120.04 164.63V160.393L159.023 162.152V166.529Z" fill="#ECF3FF"/>
<path d="M159.023 174.632L120.04 172.473V168.236L159.023 170.254V174.632Z" fill="#ECF3FF"/>
<path d="M159.023 182.734L120.04 180.315V176.079L159.023 178.356V182.734Z" fill="#ECF3FF"/>
<path d="M159.023 190.837L120.04 188.158V183.914L159.023 186.459V190.837Z" fill="#ECF3FF"/>
<path d="M196.842 196.401L193.971 196.194C193.971 188.536 188.51 181.977 181.869 181.584C175.295 181.191 169.997 186.978 169.997 194.487L167.245 194.294C167.245 185.042 173.759 177.896 181.869 178.356C190.083 178.831 196.842 186.926 196.842 196.401Z" fill="#ECF3FF"/>
<path d="M169.997 194.495L167.245 194.302C167.245 187.817 170.524 182.052 175.629 179.596L176.809 182.578C172.661 184.552 169.997 189.227 169.997 194.495Z" fill="#B3CDFA"/>
<path d="M183.175 194.331C181.171 191.215 179.769 189.034 179.146 188.069L179.138 188.076C178.99 187.846 178.73 187.75 178.508 187.869C178.285 187.987 178.196 188.277 178.27 188.551L178.263 188.559C178.582 189.694 179.302 192.231 180.326 195.875H180.333C180.363 195.978 180.392 196.075 180.437 196.179C180.86 197.128 181.854 197.544 182.655 197.114C183.457 196.683 183.761 195.563 183.338 194.613C183.286 194.509 183.234 194.42 183.175 194.331ZM182.24 196.201C181.861 196.401 181.401 196.208 181.201 195.763C181.001 195.318 181.142 194.791 181.52 194.591C181.899 194.391 182.359 194.583 182.559 195.029C182.759 195.474 182.618 195.993 182.24 196.201Z" fill="#B3CDFA"/>
<path d="M236.716 48.7405L230.654 49.0224C230.602 49.0224 230.558 49.0744 230.558 49.1337V52.1165C230.558 52.1758 230.602 52.2204 230.654 52.2204L232.962 52.1239C232.999 52.1239 233.028 52.1387 233.043 52.1758L233.592 53.2072C233.629 53.2739 233.718 53.274 233.756 53.1998L234.312 52.1239C234.327 52.0868 234.364 52.072 234.394 52.0645L236.709 51.9607C236.761 51.9607 236.805 51.9087 236.805 51.8494V48.8518C236.813 48.785 236.768 48.7405 236.716 48.7405Z" fill="#B3CDFA"/>
<path d="M239.862 90.5583L233.77 90.64C233.718 90.64 233.674 90.6919 233.674 90.7438V93.734C233.674 93.7934 233.718 93.8379 233.77 93.8379L236.085 93.8156C236.122 93.8156 236.152 93.8379 236.167 93.8676L236.723 94.9212C236.76 94.9879 236.857 94.9879 236.894 94.9212L237.451 93.8601C237.465 93.8305 237.502 93.8082 237.532 93.8082L239.862 93.7859C239.914 93.7859 239.958 93.734 239.958 93.6821V90.6771C239.966 90.6029 239.921 90.5583 239.862 90.5583Z" fill="white"/>
<path d="M186.329 87.9985L180.734 88.0876C180.682 88.0876 180.645 88.1321 180.645 88.1915V91.0555C180.645 91.1148 180.682 91.1594 180.734 91.1594L182.864 91.1297C182.893 91.1297 182.923 91.1445 182.938 91.1816L183.45 92.1907C183.487 92.2575 183.568 92.2575 183.605 92.1907L184.117 91.1668C184.132 91.1371 184.162 91.1148 184.192 91.1148L186.329 91.0852C186.38 91.0852 186.418 91.0406 186.418 90.9813V88.1024C186.418 88.0431 186.373 87.9985 186.329 87.9985Z" fill="#B3CDFA"/>
<path d="M187.56 53.1035L181.95 53.3484C181.898 53.3484 181.861 53.4003 181.861 53.4522V56.3237C181.861 56.3831 181.898 56.4202 181.95 56.4202L184.08 56.3311C184.11 56.3311 184.139 56.346 184.154 56.3756L184.666 57.3699C184.703 57.4367 184.785 57.4292 184.822 57.3625L185.334 56.3237C185.349 56.294 185.378 56.2718 185.408 56.2718L187.552 56.1827C187.604 56.1827 187.641 56.1308 187.641 56.0788V53.2C187.649 53.148 187.612 53.1035 187.56 53.1035Z" fill="white"/>
<path d="M169.478 93.4891L150.632 93.7117V41.0907L169.478 40.0371V93.4891Z" fill="#ECF3FF"/>
<path d="M359.417 57.7705L329.901 58.8167V54.4019L359.417 53.2593V57.7705Z" fill="#ECF3FF"/>
<path d="M359.417 65.1456L329.901 66.036V61.6138L359.417 60.627V65.1456Z" fill="#ECF3FF"/>
<path d="M359.417 72.5208L329.901 73.2554V68.8332L359.417 68.0022V72.5208Z" fill="#ECF3FF"/>
<path d="M359.417 79.8889L329.901 80.4751V76.0529L359.417 75.3777V79.8889Z" fill="#ECF3FF"/>
<path d="M359.417 87.264L329.901 87.6943V83.2722L359.417 82.7454V87.264Z" fill="#ECF3FF"/>
<path d="M359.417 94.6393L329.901 94.9138V90.4916L359.417 90.1206V94.6393Z" fill="#ECF3FF"/>
<path d="M359.417 102.007L329.901 102.126V97.711L359.417 97.4958V102.007Z" fill="#ECF3FF"/>
<path d="M359.417 109.382L329.901 109.345V104.923L359.417 104.864V109.382Z" fill="#ECF3FF"/>
<path d="M359.417 116.758L329.901 116.565V112.143L359.417 112.239V116.758Z" fill="#ECF3FF"/>
<path d="M359.417 124.126L329.901 123.784V119.362L359.417 119.614V124.126Z" fill="#ECF3FF"/>
<path d="M359.417 131.501L329.901 131.003V126.581L359.417 126.982V131.501Z" fill="#ECF3FF"/>
<path d="M359.417 138.876L329.901 138.223V133.801L359.417 134.357V138.876Z" fill="#ECF3FF"/>
<path d="M359.417 146.244L329.901 145.442V141.02L359.417 141.733V146.244Z" fill="#ECF3FF"/>
<path d="M359.417 153.619L329.901 152.655V148.24L359.417 149.1V153.619Z" fill="#ECF3FF"/>
<path d="M359.417 160.994L329.901 159.874V155.452L359.417 156.476V160.994Z" fill="#ECF3FF"/>
<path d="M359.417 168.362L329.901 167.093V162.671L359.417 163.851V168.362Z" fill="#ECF3FF"/>
<path d="M359.417 175.737L329.901 174.313V169.89L359.417 171.219V175.737Z" fill="#ECF3FF"/>
<path d="M359.417 183.112L329.901 181.532V177.11L359.417 178.594V183.112Z" fill="#ECF3FF"/>
<path d="M359.417 190.48L329.901 188.752V184.329L359.417 185.969V190.48Z" fill="#ECF3FF"/>
<path d="M359.417 197.856L329.901 195.964V191.549L359.417 193.337V197.856Z" fill="#ECF3FF"/>
<path d="M359.417 205.231L329.901 203.183V198.761L359.417 200.712V205.231Z" fill="#ECF3FF"/>
<path d="M359.417 212.599L329.901 210.402V205.98L359.417 208.087V212.599Z" fill="#ECF3FF"/>
<path d="M290.969 63.9882V89.4232L267.3 89.7496C267.449 103.268 277.799 114.22 290.762 114.257C304.05 114.294 315.002 102.897 315.002 88.7851C315.002 74.7469 304.162 63.6989 290.969 63.9882Z" fill="white"/>
<path d="M267.293 89.4454C267.293 89.475 267.293 89.4973 267.293 89.527L290.762 89.2005V63.9807C277.71 64.3888 267.293 75.7856 267.293 89.4454Z" fill="#B3CDFA"/>
<path d="M317.213 119.51L315.863 119.503C315.655 119.503 315.492 119.332 315.492 119.132C315.492 118.924 315.662 118.761 315.863 118.761L317.206 118.768C317.584 118.768 317.948 118.657 318.267 118.449C318.437 118.338 318.667 118.383 318.779 118.553C318.89 118.724 318.845 118.954 318.675 119.065C318.244 119.362 317.74 119.51 317.213 119.51ZM310.736 119.473C310.728 119.473 310.728 119.473 310.736 119.473L309.385 119.466C309.178 119.466 309.014 119.295 309.014 119.095C309.014 118.887 309.185 118.724 309.385 118.724L310.728 118.731C310.936 118.731 311.099 118.902 311.099 119.102C311.099 119.31 310.936 119.473 310.736 119.473ZM304.251 119.429L302.9 119.421C302.693 119.421 302.529 119.251 302.529 119.05C302.529 118.843 302.715 118.679 302.9 118.679L304.243 118.687C304.451 118.687 304.614 118.858 304.614 119.058C304.622 119.266 304.451 119.429 304.251 119.429ZM297.766 119.392L296.415 119.384C296.208 119.384 296.045 119.214 296.045 119.013C296.045 118.813 296.215 118.642 296.415 118.642L297.758 118.65C297.966 118.65 298.129 118.82 298.129 119.021C298.137 119.229 297.974 119.392 297.766 119.392ZM291.288 119.355L289.938 119.347C289.73 119.347 289.567 119.177 289.567 118.976C289.567 118.776 289.738 118.605 289.938 118.605L291.281 118.613C291.489 118.613 291.652 118.783 291.652 118.984C291.659 119.184 291.489 119.355 291.288 119.355ZM284.804 119.31L283.453 119.303C283.245 119.303 283.082 119.132 283.082 118.932C283.082 118.731 283.253 118.561 283.453 118.561L284.796 118.568C285.004 118.568 285.167 118.739 285.167 118.939C285.175 119.147 285.011 119.31 284.804 119.31ZM278.319 119.273L276.968 119.266C276.761 119.266 276.597 119.095 276.597 118.895C276.597 118.687 276.768 118.524 276.968 118.524L278.311 118.531C278.519 118.531 278.682 118.702 278.682 118.902C278.69 119.102 278.526 119.273 278.319 119.273ZM271.841 119.229L270.491 119.221C270.283 119.221 270.12 119.05 270.12 118.85C270.12 118.642 270.29 118.479 270.491 118.479L271.834 118.487C272.042 118.487 272.205 118.657 272.205 118.858C272.212 119.065 272.042 119.229 271.841 119.229ZM265.356 119.191H265.223C264.748 119.191 264.28 119.043 263.872 118.776C263.702 118.665 263.657 118.435 263.769 118.264C263.88 118.093 264.117 118.049 264.28 118.16C264.562 118.346 264.889 118.449 265.223 118.449H265.356C265.564 118.449 265.727 118.62 265.727 118.82C265.727 119.021 265.564 119.191 265.356 119.191ZM319.565 114.369C319.357 114.369 319.194 114.205 319.194 113.998V112.655C319.194 112.447 319.357 112.284 319.565 112.284C319.773 112.284 319.936 112.447 319.936 112.655V113.998C319.936 114.198 319.773 114.369 319.565 114.369ZM263.041 114.042C262.834 114.042 262.67 113.879 262.67 113.671V112.328C262.67 112.12 262.834 111.957 263.041 111.957C263.249 111.957 263.412 112.12 263.412 112.328V113.671C263.412 113.879 263.249 114.042 263.041 114.042ZM319.565 107.884C319.357 107.884 319.194 107.72 319.194 107.513V106.17C319.194 105.962 319.357 105.799 319.565 105.799C319.773 105.799 319.936 105.962 319.936 106.17V107.513C319.936 107.72 319.773 107.884 319.565 107.884ZM263.041 107.565C262.834 107.565 262.67 107.401 262.67 107.194V105.851C262.67 105.643 262.834 105.48 263.041 105.48C263.249 105.48 263.412 105.643 263.412 105.851V107.194C263.412 107.394 263.249 107.565 263.041 107.565ZM319.565 101.399C319.357 101.399 319.194 101.236 319.194 101.028V99.6848C319.194 99.4771 319.357 99.3138 319.565 99.3138C319.773 99.3138 319.936 99.4771 319.936 99.6848V101.028C319.936 101.236 319.773 101.399 319.565 101.399ZM263.041 101.08C262.834 101.08 262.67 100.917 262.67 100.709V99.3658C262.67 99.158 262.834 98.9948 263.041 98.9948C263.249 98.9948 263.412 99.158 263.412 99.3658V100.709C263.412 100.917 263.249 101.08 263.041 101.08ZM319.565 94.9213C319.357 94.9213 319.194 94.7581 319.194 94.5504V93.2074C319.194 92.9996 319.357 92.8364 319.565 92.8364C319.773 92.8364 319.936 92.9996 319.936 93.2074V94.5504C319.936 94.7507 319.773 94.9213 319.565 94.9213ZM263.041 94.6023C262.834 94.6023 262.67 94.4391 262.67 94.2313V92.8883C262.67 92.6806 262.834 92.5173 263.041 92.5173C263.249 92.5173 263.412 92.6806 263.412 92.8883V94.2313C263.412 94.4316 263.249 94.6023 263.041 94.6023ZM319.565 88.4365C319.357 88.4365 319.194 88.2732 319.194 88.0655V86.7225C319.194 86.5148 319.357 86.3515 319.565 86.3515C319.773 86.3515 319.936 86.5148 319.936 86.7225V88.0655C319.936 88.2732 319.773 88.4365 319.565 88.4365ZM263.041 88.1174C262.834 88.1174 262.67 87.9542 262.67 87.7464V86.4035C262.67 86.1957 262.834 86.0325 263.041 86.0325C263.249 86.0325 263.412 86.1957 263.412 86.4035V87.7464C263.412 87.9542 263.249 88.1174 263.041 88.1174ZM319.565 81.9516C319.357 81.9516 319.194 81.7884 319.194 81.5806V80.2376C319.194 80.0299 319.357 79.8666 319.565 79.8666C319.773 79.8666 319.936 80.0299 319.936 80.2376V81.5806C319.936 81.7884 319.773 81.9516 319.565 81.9516ZM263.041 81.6325C262.834 81.6325 262.67 81.4693 262.67 81.2616V79.9186C262.67 79.7108 262.834 79.5476 263.041 79.5476C263.249 79.5476 263.412 79.7108 263.412 79.9186V81.2616C263.412 81.4693 263.249 81.6325 263.041 81.6325ZM319.565 75.4741C319.357 75.4741 319.194 75.3109 319.194 75.1031V73.7602C319.194 73.5524 319.357 73.3892 319.565 73.3892C319.773 73.3892 319.936 73.5524 319.936 73.7602V75.1031C319.936 75.3035 319.773 75.4741 319.565 75.4741ZM263.041 75.1551C262.834 75.1551 262.67 74.9918 262.67 74.7841V73.4411C262.67 73.2334 262.834 73.0701 263.041 73.0701C263.249 73.0701 263.412 73.2334 263.412 73.4411V74.7841C263.412 74.9844 263.249 75.1551 263.041 75.1551ZM319.565 68.9893C319.357 68.9893 319.194 68.826 319.194 68.6183V67.2753C319.194 67.0675 319.357 66.9043 319.565 66.9043C319.773 66.9043 319.936 67.0675 319.936 67.2753V68.6183C319.936 68.826 319.773 68.9893 319.565 68.9893ZM263.041 68.6702C262.834 68.6702 262.67 68.507 262.67 68.2992V66.9562C262.67 66.7485 262.834 66.5853 263.041 66.5853C263.249 66.5853 263.412 66.7485 263.412 66.9562V68.2992C263.412 68.507 263.249 68.6702 263.041 68.6702ZM319.565 62.5044C319.357 62.5044 319.194 62.3412 319.194 62.1334V60.8795C319.187 60.6717 319.343 60.4639 319.543 60.4565C319.758 60.4491 319.921 60.5678 319.929 60.7756C319.929 60.8127 319.929 60.8572 319.929 60.8943V62.1408C319.936 62.3412 319.773 62.5044 319.565 62.5044ZM263.205 62.2076C263.16 62.2076 263.116 62.2002 263.078 62.1853C262.886 62.1111 262.789 61.9034 262.863 61.7105C263.049 61.2208 263.36 60.7904 263.761 60.4714C263.924 60.3452 264.154 60.3749 264.28 60.5381C264.407 60.7014 264.377 60.9314 264.214 61.0575C263.917 61.2875 263.687 61.6066 263.553 61.9702C263.494 62.1111 263.353 62.2076 263.205 62.2076ZM269.014 60.5456C268.814 60.5456 268.651 60.3897 268.643 60.1894C268.636 59.9817 268.799 59.811 268.999 59.8036L270.342 59.7591C270.543 59.7368 270.721 59.9149 270.728 60.1152C270.736 60.323 270.572 60.4936 270.372 60.501L269.029 60.5456C269.022 60.5456 269.014 60.5456 269.014 60.5456ZM275.492 60.323C275.291 60.323 275.128 60.1672 275.121 59.9668C275.113 59.7591 275.277 59.5884 275.477 59.581L276.82 59.5365C277.005 59.5142 277.198 59.6923 277.206 59.8926C277.213 60.1004 277.05 60.271 276.85 60.2785L275.507 60.323C275.499 60.323 275.492 60.323 275.492 60.323ZM281.969 60.1004C281.769 60.1004 281.606 59.9446 281.598 59.7442C281.591 59.5365 281.754 59.3658 281.954 59.3584L283.297 59.3139C283.49 59.2916 283.676 59.4697 283.683 59.67C283.691 59.8778 283.527 60.0484 283.327 60.0559L281.984 60.1004C281.977 60.1004 281.969 60.1004 281.969 60.1004ZM288.447 59.8778C288.246 59.8778 288.083 59.722 288.076 59.5216C288.068 59.3139 288.231 59.1432 288.432 59.1358L289.775 59.0913C289.968 59.069 290.153 59.2471 290.161 59.4474C290.168 59.6552 290.005 59.8258 289.805 59.8333L288.462 59.8778C288.454 59.8778 288.454 59.8778 288.447 59.8778ZM294.924 59.6626C294.724 59.6626 294.561 59.5068 294.553 59.3065C294.546 59.0987 294.709 58.9281 294.909 58.9206L296.252 58.8761C296.453 58.8539 296.631 59.0319 296.638 59.2323C296.646 59.44 296.482 59.6107 296.282 59.6181L294.939 59.6626C294.932 59.6626 294.932 59.6626 294.924 59.6626ZM301.402 59.44C301.201 59.44 301.038 59.2842 301.031 59.0839C301.023 58.8761 301.186 58.7055 301.387 58.698L302.73 58.6535C302.93 58.6313 303.108 58.8093 303.116 59.0097C303.123 59.2174 302.96 59.3881 302.759 59.3955L301.416 59.44C301.409 59.44 301.409 59.44 301.402 59.44ZM307.879 59.2174C307.679 59.2174 307.515 59.0616 307.508 58.8613C307.501 58.6535 307.664 58.4829 307.864 58.4755L309.207 58.4309C309.415 58.4087 309.586 58.5867 309.593 58.7871C309.6 58.9948 309.437 59.1655 309.237 59.1729L307.894 59.2174C307.886 59.2174 307.886 59.2174 307.879 59.2174ZM314.364 59.0023C314.164 59.0023 314 58.8464 313.993 58.6461C313.986 58.4383 314.149 58.2677 314.349 58.2603L315.692 58.2158C315.9 58.1935 316.07 58.3716 316.078 58.5719C316.085 58.7797 315.922 58.9503 315.722 58.9577L314.379 59.0023C314.371 59.0023 314.364 59.0023 314.364 59.0023Z" fill="#B3CDFA"/>
<path d="M22.8861 146.4H11.6229C11.5264 146.4 11.4448 146.481 11.4448 146.578V151.623C11.4448 151.72 11.5264 151.801 11.6229 151.801H15.9189C15.9857 151.801 16.0451 151.838 16.0748 151.89L17.1061 153.671C17.1729 153.79 17.3435 153.79 17.4177 153.671L18.4491 151.89C18.4788 151.838 18.5381 151.801 18.6049 151.801H22.9009C22.9974 151.801 23.079 151.72 23.079 151.623V146.578C23.0642 146.481 22.9826 146.4 22.8861 146.4Z" fill="#40C9C6"/>
<path d="M42.0438 126.641H30.7806C30.6842 126.641 30.6025 126.722 30.6025 126.819V131.864C30.6025 131.961 30.6842 132.042 30.7806 132.042H35.0767C35.1434 132.042 35.2028 132.079 35.2325 132.131L36.2638 133.912C36.3306 134.031 36.5013 134.031 36.5755 133.912L37.6068 132.131C37.6365 132.079 37.6958 132.042 37.7626 132.042H42.0587C42.1551 132.042 42.2367 131.961 42.2367 131.864V126.819C42.2219 126.715 42.1403 126.641 42.0438 126.641Z" fill="url(#paint6_linear_20_473)"/>
<path d="M60.3109 106.823H49.0477C48.9512 106.823 48.8696 106.904 48.8696 107.001V112.046C48.8696 112.142 48.9512 112.224 49.0477 112.224H53.3437C53.4105 112.224 53.4699 112.261 53.4996 112.313L54.5309 114.094C54.5977 114.213 54.7683 114.213 54.8425 114.094L55.8739 112.313C55.9036 112.261 55.9629 112.224 56.0297 112.224H60.3258C60.4222 112.224 60.5038 112.142 60.5038 112.046V107.001C60.4964 106.904 60.4148 106.823 60.3109 106.823Z" fill="#40C9C6"/>
<path d="M78.7118 88.199H67.4486C67.3521 88.199 67.2705 88.2806 67.2705 88.3771V93.4225C67.2705 93.519 67.3521 93.6006 67.4486 93.6006H71.7446C71.8114 93.6006 71.8708 93.6377 71.9005 93.6896L72.9318 95.4703C72.9986 95.5891 73.1692 95.5891 73.2434 95.4703L74.2748 93.6896C74.3044 93.6377 74.3638 93.6006 74.4306 93.6006H78.7266C78.8231 93.6006 78.9047 93.519 78.9047 93.4225V88.3771C78.8899 88.2732 78.8083 88.199 78.7118 88.199Z" fill="url(#paint7_linear_20_473)"/>
<path d="M17.2542 168.911C21.8519 168.911 25.5792 167.297 25.5792 165.305C25.5792 163.313 21.8519 161.699 17.2542 161.699C12.6564 161.699 8.9292 163.313 8.9292 165.305C8.9292 167.297 12.6564 168.911 17.2542 168.911Z" fill="#ECF3FF"/>
<path d="M17.2542 168.911C12.6613 168.911 8.9292 167.294 8.9292 165.305V181.948C8.9292 183.944 12.6539 185.554 17.2542 185.554C21.8544 185.554 25.5792 183.936 25.5792 181.948V165.305C25.5792 167.294 21.847 168.911 17.2542 168.911Z" fill="url(#paint8_linear_20_473)"/>
<path d="M54.6795 130.328C59.2772 130.328 63.0044 128.714 63.0044 126.722C63.0044 124.731 59.2772 123.116 54.6795 123.116C50.0817 123.116 46.3545 124.731 46.3545 126.722C46.3545 128.714 50.0817 130.328 54.6795 130.328Z" fill="#ECF3FF"/>
<path d="M54.6795 130.336C50.0866 130.336 46.3545 128.718 46.3545 126.73V160.015C46.3545 162.011 50.0792 163.621 54.6795 163.621C59.2723 163.621 63.0044 162.003 63.0044 160.015V126.73C63.0044 128.718 59.2797 130.336 54.6795 130.336Z" fill="url(#paint9_linear_20_473)"/>
<path d="M73.0808 111.95C77.6786 111.95 81.4058 110.335 81.4058 108.344C81.4058 106.352 77.6786 104.738 73.0808 104.738C68.4831 104.738 64.7559 106.352 64.7559 108.344C64.7559 110.335 68.4831 111.95 73.0808 111.95Z" fill="#ECF3FF"/>
<path d="M73.0808 111.95C68.488 111.95 64.7559 110.332 64.7559 108.344V149.954C64.7559 151.949 68.4806 153.56 73.0808 153.56C77.6737 153.56 81.4058 151.942 81.4058 149.954V108.344C81.4058 110.332 77.6737 111.95 73.0808 111.95Z" fill="url(#paint10_linear_20_473)"/>
<path d="M36.4119 149.538C41.0097 149.538 44.7369 147.924 44.7369 145.932C44.7369 143.941 41.0097 142.326 36.4119 142.326C31.8141 142.326 28.0869 143.941 28.0869 145.932C28.0869 147.924 31.8141 149.538 36.4119 149.538Z" fill="#ECF3FF"/>
<path d="M36.4119 149.538C31.8191 149.538 28.0869 147.921 28.0869 145.932V170.9C28.0869 172.896 31.8116 174.506 36.4119 174.506C41.0047 174.506 44.7369 172.888 44.7369 170.9V145.932C44.7295 147.921 41.0047 149.538 36.4119 149.538Z" fill="url(#paint11_linear_20_473)"/>
<path opacity="0.3" d="M238.125 93.4893C237.391 94.1126 235.328 96.5611 235.328 96.5611C235.328 96.5611 238.088 91.9683 238.348 91.5453C238.608 91.1298 238.2 90.603 237.844 90.7366C237.844 90.7366 238.007 90.2988 238.103 90.1875C238.459 89.7868 237.717 89.1413 236.849 90.0391C235.981 90.9369 233.258 94.6097 232.828 94.5726C232.397 94.5429 234.571 90.0465 234.876 89.2155C235.18 88.3845 234.178 88.2287 232.694 90.5659C231.21 92.9031 229.481 96.3088 228.702 96.9988C227.923 97.6963 227.426 96.6724 227.226 95.9972C227.026 95.322 225.519 93.1035 224.785 93.8603C224.05 94.6171 225.252 95.3813 225.223 96.1753C225.193 96.9692 224.941 98.2899 225.794 100.301C226.105 101.035 226.447 101.703 226.751 102.267C226.558 102.438 226.373 102.63 226.217 102.846L225.853 103.343C225.445 103.447 225.119 103.647 224.911 103.973C224.911 103.981 224.903 103.981 224.903 103.988C224.896 104.003 224.889 104.011 224.881 104.025C220.815 109.568 220.726 109.694 215.503 116.817C206.873 116.906 205.545 116.921 192.175 117.054V117.062C192.138 117.062 192.101 117.054 192.056 117.062C191.663 117.069 191.277 117.121 190.899 117.188C189.467 116.238 185.95 114.317 180.214 113.567C179.821 112.135 178.827 110.978 177.536 110.347C177.358 109.583 177.194 108.893 177.031 108.188C181.401 106.095 183.724 101.087 182.277 96.3014L180.4 90.0836C179.828 88.1916 178.738 86.6038 177.343 85.4092L177.224 85.0753L178.753 84.5336L178.738 84.4891C177.877 82.0703 175.213 80.8015 172.794 81.6622L167.104 83.6878L164.009 84.7859C159.802 86.2847 157.606 90.9072 159.105 95.1142L162.407 104.389C162.882 105.717 163.958 106.659 165.219 107.023C165.553 108.462 165.812 109.553 166.05 110.599C164.618 110.785 163.564 112.054 163.683 113.508L163.794 114.903C155.388 117.47 151.299 122.248 150.758 123.228C150.743 123.257 150.735 123.309 150.728 123.354C150.335 124.022 150.038 124.756 149.867 125.543C149.867 125.543 147.411 136.747 145.453 145.717C145.334 146.14 145.26 146.578 145.245 147.023C145.245 147.038 145.245 147.045 145.245 147.053C145.111 149.627 146.655 151.898 148.925 152.803C153.37 155.496 156.686 157.5 159.706 159.325C159.55 165.736 159.365 173.445 159.29 177.392C159.283 177.815 159.402 178.201 159.617 178.564C158.586 186.377 157.651 193.508 156.805 200.037L173.841 201.336C175.443 194.005 176.764 187.973 177.499 184.597C177.521 188.811 177.543 194.791 177.573 201.625L194.134 202.886C195.336 190.013 196.248 180.323 196.248 180.323L196.3 179.722L196.36 179.032C196.389 178.742 196.404 178.453 196.404 178.156C196.404 177.503 196.337 176.865 196.211 176.249C196.323 176.005 196.382 175.745 196.374 175.485C196.285 171.204 194.267 147.654 192.895 131.976C193.006 131.968 193.117 131.961 193.221 131.946C207.92 129.98 207.934 129.98 219.413 128.444C219.42 128.444 219.42 128.444 219.428 128.444C219.435 128.444 219.443 128.444 219.45 128.444C221.631 128.154 223.412 126.678 224.162 124.697C224.57 124.274 224.911 123.784 225.178 123.25H225.185C229.318 114.866 232.501 108.21 232.783 107.565C232.946 107.179 232.865 106.756 232.613 106.326C232.687 106.14 232.754 105.962 232.791 105.776C232.857 105.494 232.872 105.213 232.872 104.931C233.028 104.656 233.132 104.463 233.147 104.411C235.662 99.6996 238.845 93.7564 238.942 93.6154C239.105 93.4003 238.853 92.866 238.125 93.4893ZM158.17 145.324C158.229 145.168 158.289 145.02 158.341 144.871C158.459 145.168 158.578 145.45 158.682 145.724C158.511 145.591 158.348 145.457 158.17 145.324Z" fill="#7C96C4"/>
<path d="M428.339 269.041C427.79 266.719 421.706 254.023 405.352 254.023C392.13 254.023 385.312 262.66 381.661 262.897C378.011 263.127 375.354 258.839 369.878 259.462C364.403 260.085 363.075 264.285 358.927 265.554C354.779 266.823 351.96 265.791 344.659 265.561C339.25 265.391 334.813 267.787 332.869 269.041H428.339Z" fill="#ECF3FF"/>
<path d="M165.553 273.693C188.365 273.693 206.859 269.261 206.859 263.795C206.859 258.328 188.365 253.897 165.553 253.897C142.74 253.897 124.247 258.328 124.247 263.795C124.247 269.261 142.74 273.693 165.553 273.693Z" fill="#ECF3FF"/>
<path d="M140.474 263.328V259.959C140.474 259.328 140.986 258.824 141.617 258.824L148.955 258.794L148.881 257.229C148.821 256.776 149.318 256.464 149.704 256.709L153.459 259.091C154.134 259.544 154.935 259.759 155.751 259.707L159.558 259.521C160.396 259.477 161.123 260.122 161.175 260.961L161.339 263.335H140.474V263.328Z" fill="black"/>
<path d="M217.662 92.6879C218.226 94.016 218.887 95.1587 219.265 95.7745C218.56 96.9469 216.846 100.174 217.477 98.9947L222.307 101.733C222.567 100.961 224.941 97.073 225.023 96.8059C227.538 92.0943 230.721 86.1511 230.818 86.0101C230.981 85.7801 230.728 85.2459 230.001 85.8691C229.267 86.4924 227.204 88.9409 227.204 88.9409C227.204 88.9409 229.964 84.3481 230.224 83.9252C230.484 83.5097 230.076 82.9829 229.719 83.1164C229.719 83.1164 229.883 82.6786 229.979 82.5673C230.335 82.1667 229.593 81.5212 228.725 82.419C227.857 83.3167 225.134 86.9895 224.704 86.9524C224.273 86.9227 226.447 82.4264 226.751 81.5954C227.056 80.7643 226.054 80.6085 224.57 82.9457C223.086 85.283 221.357 88.6886 220.578 89.3787C219.799 90.0761 219.302 89.0522 219.094 88.377C218.894 87.7018 217.388 85.4833 216.653 86.2401C215.919 86.9969 217.121 87.7612 217.091 88.5551C217.061 89.349 216.809 90.6771 217.662 92.6879Z" fill="url(#paint12_linear_20_473)"/>
<path d="M222.922 258.705C230.983 258.705 237.517 257.14 237.517 255.21C237.517 253.28 230.983 251.716 222.922 251.716C214.862 251.716 208.328 253.28 208.328 255.21C208.328 257.14 214.862 258.705 222.922 258.705Z" fill="#ECF3FF"/>
<path d="M162.704 88.978C159.647 88.4289 156.731 90.4619 156.182 93.5115C156.041 94.2905 156.071 95.0548 156.241 95.7819C158.037 103.461 158.037 103.491 159.825 111.126C159.832 111.141 159.832 111.163 159.84 111.178C159.84 111.185 159.84 111.185 159.84 111.185C160.337 113.3 162.043 115.029 164.314 115.437C167.371 115.986 170.287 113.953 170.836 110.903C170.977 110.124 170.947 109.36 170.777 108.633C168.981 100.953 168.981 100.924 167.193 93.2889C167.185 93.274 167.185 93.2518 167.178 93.2369C167.178 93.2295 167.178 93.2295 167.178 93.2295C166.688 91.1074 164.982 89.3861 162.704 88.978Z" fill="url(#paint13_linear_20_473)"/>
<path d="M167.475 101.146L167.282 101.206C161.999 102.801 156.427 99.8108 154.831 94.5354L152.954 88.3176C151.359 83.0347 154.349 77.4625 159.624 75.8672L159.817 75.8079C165.1 74.2126 170.673 77.2028 172.268 82.4782L174.145 88.696C175.74 93.9715 172.75 99.5511 167.475 101.146Z" fill="url(#paint14_linear_20_473)"/>
<path d="M155.878 77.1805L158.972 76.0824L164.663 74.0568C167.081 73.1961 169.745 74.4574 170.606 76.8837L170.621 76.9282L169.092 77.4699L170.791 82.2408C171.437 84.0586 170.687 86.0397 169.092 87.0043L169.018 86.8039C168.61 85.6539 167.348 85.0603 166.198 85.4684L166.154 85.4832C165.004 85.8913 164.41 87.1527 164.818 88.3027L166.317 92.5023C167.096 94.6912 165.954 97.1026 163.765 97.8891L159.662 99.3508C157.473 100.13 155.061 98.9872 154.275 96.7984L150.973 87.5237C149.474 83.3018 151.671 78.6793 155.878 77.1805Z" fill="#172B36"/>
<path d="M172.416 108.959L155.922 110.31L155.559 105.888C155.432 104.389 156.553 103.075 158.052 102.957L166.785 102.244C169.574 102.014 172.023 104.092 172.253 106.882L172.416 108.959Z" fill="#304156"/>
<path d="M173.077 262.348C171.496 261.695 170.487 260.048 170.724 258.275L174.931 226.614C175.213 224.5 177.15 223.016 179.265 223.298C181.379 223.58 182.863 225.516 182.581 227.631L178.374 259.291C178.092 261.406 176.156 262.89 174.041 262.608C173.7 262.556 173.381 262.474 173.077 262.348Z" fill="#0056EC"/>
<path d="M169.686 263.328V259.959C169.686 259.328 170.198 258.824 170.821 258.824L178.159 258.794L178.085 257.229C178.025 256.776 178.522 256.464 178.908 256.709L182.663 259.091C183.338 259.544 184.139 259.759 184.955 259.707L188.762 259.521C189.6 259.477 190.327 260.122 190.379 260.961L190.543 263.335H169.686V263.328Z" fill="black"/>
<path d="M166.844 150.644C159.839 145.242 155.84 142.17 146.551 135.018V135.025C144.852 133.719 142.499 133.393 140.437 134.387C137.521 135.789 136.297 139.291 137.699 142.207C138.211 143.268 139.005 144.107 139.947 144.678C149.979 150.748 154.289 153.352 161.858 157.93C163.097 158.679 164.67 158.805 166.065 158.13C168.268 157.069 169.188 154.428 168.127 152.224C167.816 151.579 167.371 151.052 166.844 150.644Z" fill="#0056EC"/>
<path d="M156.026 122.226C156.3 121.506 156.478 120.735 156.515 119.926C156.738 115.8 153.562 112.276 149.437 112.053C145.72 111.853 142.5 114.413 141.735 117.93C141.735 117.93 139.205 129.468 137.239 138.498H137.246C137.18 138.802 137.128 139.113 137.113 139.432C136.942 142.667 139.42 145.42 142.655 145.598C145.252 145.739 147.538 144.159 148.428 141.859C148.435 141.844 148.443 141.829 148.45 141.807C148.458 141.792 148.458 141.777 148.465 141.77C151.767 133.244 151.782 133.2 156.026 122.226Z" fill="#0056EC"/>
<path d="M143.472 261.25C141.891 260.597 140.882 258.95 141.119 257.177L145.327 225.517C145.608 223.402 147.545 221.918 149.66 222.2C151.774 222.482 153.258 224.418 152.976 226.533L148.777 258.193C148.495 260.308 146.558 261.792 144.444 261.51C144.102 261.465 143.776 261.376 143.472 261.25Z" fill="#0056EC"/>
<path d="M180.118 258.408C180.481 254.239 188.124 172.71 188.124 172.71L188.176 172.109L188.235 171.419C188.265 171.13 188.279 170.84 188.279 170.544C188.279 165.32 184.035 161.076 178.812 161.076C173.596 161.076 169.352 165.32 169.344 170.536C169.344 170.536 169.73 255.389 169.686 258.594C169.641 261.807 179.747 262.578 180.118 258.408Z" fill="#172B36"/>
<path d="M151.218 259.395C152.494 254.276 170.02 174.038 170.02 174.038L170.339 172.569C170.487 171.887 170.561 171.204 170.561 170.544C170.561 165.32 166.317 161.076 161.094 161.076C156.33 161.076 152.301 164.637 151.708 169.356L151.596 170.165C142.359 240.045 140.764 256.702 140.511 259.685C140.237 262.964 150.335 262.927 151.218 259.395Z" fill="#172B36"/>
<path d="M211.415 116.416C208.669 115.793 206.94 113.048 207.564 110.302C207.72 109.62 208.009 108.982 208.424 108.418L208.951 107.706L218.092 95.2403C218.998 94.0161 220.474 93.4596 221.906 93.786C223.88 94.2386 225.119 96.2049 224.674 98.186C224.614 98.4531 224.518 98.7276 224.384 98.9947L224.095 99.5883L217.499 112.974L217.135 113.708C216.074 115.823 213.73 116.943 211.415 116.416Z" fill="#304156"/>
<path d="M216.408 114.88C216.327 111.675 213.685 109.145 210.487 109.174V109.167C198.868 109.286 198.868 109.286 184.028 109.442V109.449C183.991 109.449 183.954 109.442 183.91 109.449C179.777 109.553 176.512 112.988 176.623 117.121C176.727 121.254 180.163 124.518 184.295 124.407C184.563 124.4 184.83 124.378 185.097 124.34C199.795 122.374 199.81 122.374 211.289 120.838C211.296 120.838 211.296 120.838 211.303 120.838C211.311 120.838 211.318 120.838 211.326 120.838C214.264 120.452 216.49 117.907 216.408 114.88Z" fill="#005FF0"/>
<path d="M224.659 99.9592C225.624 97.7184 218.234 94.0901 216.779 96.3606C216.779 96.368 216.772 96.368 216.772 96.3754C216.764 96.3903 216.757 96.3977 216.75 96.4125C212.617 102.052 212.595 102.074 207.089 109.59C206.629 110.221 206.28 110.948 206.102 111.757C205.383 114.91 207.364 118.056 210.517 118.768C213.218 119.384 215.896 118.019 217.069 115.645H217.076C221.194 107.26 224.377 100.597 224.659 99.9592Z" fill="#005FF0"/>
<path d="M142.633 115.615C143.323 114.368 149.712 107.008 163.386 105.813C177.061 104.619 183.509 110.117 183.509 110.117C183.509 110.117 188.117 161.358 188.25 167.88C188.391 174.394 151.018 177.288 151.159 169.787C151.3 162.285 151.841 141.235 151.841 141.235C151.841 141.235 141.825 117.077 142.633 115.615Z" fill="url(#paint15_linear_20_473)"/>
<path opacity="0.4" d="M56.1044 297.347C68.5823 297.347 78.6976 294.042 78.6976 289.964C78.6976 285.887 68.5823 282.582 56.1044 282.582C43.6266 282.582 33.5112 285.887 33.5112 289.964C33.5112 294.042 43.6266 297.347 56.1044 297.347Z" fill="#004FA0"/>
<path d="M54.6796 295.678C67.1575 295.678 77.2728 292.372 77.2728 288.295C77.2728 284.218 67.1575 280.912 54.6796 280.912C42.2017 280.912 32.0864 284.218 32.0864 288.295C32.0864 292.372 42.2017 295.678 54.6796 295.678Z" fill="url(#paint16_linear_20_473)"/>
<path d="M54.6795 294.802C43.9505 294.802 35.5439 291.946 35.5439 288.303C35.5439 284.652 43.9505 281.795 54.6795 281.795C65.4085 281.795 73.8151 284.652 73.8151 288.303C73.8225 291.946 65.4159 294.802 54.6795 294.802ZM54.6795 282.537C43.676 282.537 36.2859 285.52 36.2859 288.303C36.2859 291.085 43.676 294.06 54.6795 294.06C65.683 294.06 73.0731 291.085 73.0731 288.303C73.0731 285.52 65.683 282.537 54.6795 282.537Z" fill="white"/>
<path opacity="0.2" d="M54.6796 292.057C61.0436 292.057 66.2025 290.373 66.2025 288.295C66.2025 286.217 61.0436 284.533 54.6796 284.533C48.3157 284.533 43.1567 286.217 43.1567 288.295C43.1567 290.373 48.3157 292.057 54.6796 292.057Z" fill="#7C96C4"/>
<path d="M55.5997 290.588H55.1768C43.639 290.588 34.2827 281.535 34.2827 270.369V247.783H76.4938V270.369C76.4938 281.535 67.1375 290.588 55.5997 290.588Z" fill="url(#paint17_linear_20_473)"/>
<path d="M55.3846 252.829C67.0429 252.829 76.4939 250.57 76.4939 247.783C76.4939 244.997 67.0429 242.738 55.3846 242.738C43.7263 242.738 34.2754 244.997 34.2754 247.783C34.2754 250.57 43.7263 252.829 55.3846 252.829Z" fill="#B3CDFA"/>
<path d="M75.7962 247.791C75.7962 248.956 72.6354 250.417 67.0557 251.315C66.8776 251.345 66.6847 251.374 66.4992 251.404C65.416 251.567 64.2437 251.708 62.9971 251.82C62.8042 251.842 62.6039 251.864 62.4035 251.879C60.6896 252.02 58.8198 252.116 56.8239 252.146C56.6384 252.153 56.4529 252.153 56.26 252.153C55.9706 252.161 55.6812 252.161 55.3844 252.161C52.0233 252.161 49.0109 251.983 46.3917 251.679C46.1914 251.664 45.9984 251.634 45.8055 251.612C38.9348 250.766 34.9727 249.097 34.9727 247.791C34.9727 246.604 38.2522 245.112 44.0174 244.214C44.2028 244.185 44.3883 244.162 44.5738 244.133C47.5788 243.695 51.2145 243.42 55.3844 243.42C56.1932 243.42 56.9871 243.428 57.7588 243.45C57.9442 243.458 58.1298 243.465 58.3078 243.472C60.9715 243.554 63.383 243.754 65.4976 244.036C65.5644 244.044 65.6311 244.051 65.6979 244.066C65.8315 244.081 65.965 244.103 66.0912 244.118C66.1505 244.125 66.2025 244.133 66.2618 244.148C72.3312 245.031 75.7962 246.574 75.7962 247.791Z" fill="url(#paint18_linear_20_473)"/>
<path d="M65.7573 245.639C67.0558 247.167 78.6232 245.49 84.9152 241.424C91.2072 237.358 90.8436 234.405 93.4034 231.645C95.9632 228.885 99.9996 228.091 102.329 224.426C105.698 219.113 105.29 208.985 102.656 208.332C100.712 207.85 99.0498 213.927 93.1882 215.136C87.3266 216.353 80.3891 215.485 73.37 221.762C67.0707 227.401 63.2495 242.686 65.7573 245.639Z" fill="url(#paint19_linear_20_473)"/>
<path d="M62.9974 251.819C63.2942 250.847 63.5984 249.905 63.9174 249.03C64.4591 247.546 65.0749 246.128 65.7575 244.771C65.8614 244.548 65.9727 244.333 66.0914 244.118C66.136 244.021 66.1879 243.925 66.2398 243.836C73.9193 229.323 88.4546 222.341 95.0434 219.172C95.8595 218.779 96.5422 218.453 97.0467 218.186C103.465 214.817 102.931 208.377 102.923 208.317C102.908 208.162 102.775 208.058 102.619 208.065C102.471 208.08 102.359 208.213 102.374 208.369C102.374 208.429 102.879 214.491 96.787 217.696C96.2825 217.956 95.6147 218.282 94.7985 218.675C88.2765 221.806 74.0306 228.648 66.1656 242.797C65.995 243.094 65.8317 243.398 65.6759 243.71C65.6166 243.814 65.5572 243.925 65.4979 244.036C64.7188 245.557 64.0139 247.16 63.3981 248.844C63.0493 249.794 62.7154 250.818 62.4038 251.879L62.9974 251.819Z" fill="#B3CDFA"/>
<path d="M100.141 216.954C99.4432 216.954 98.9535 216.895 98.9015 216.895C98.7457 216.88 98.6418 216.739 98.6567 216.583C98.6715 216.427 98.8125 216.323 98.9683 216.338C99.0054 216.346 102.678 216.761 104.548 215.196C104.667 215.099 104.837 215.114 104.941 215.233C105.038 215.351 105.023 215.53 104.904 215.626C103.554 216.746 101.461 216.954 100.141 216.954Z" fill="#B3CDFA"/>
<path d="M91.3853 220.938C91.2888 220.938 91.1924 220.887 91.1404 220.79C89.8791 218.482 91.6079 215.366 91.6821 215.233C91.7562 215.099 91.9269 215.055 92.0605 215.129C92.194 215.203 92.2386 215.374 92.1644 215.507C92.1495 215.537 90.5097 218.483 91.6227 220.523C91.6969 220.656 91.645 220.827 91.5114 220.901C91.4743 220.931 91.4298 220.938 91.3853 220.938Z" fill="#B3CDFA"/>
<path d="M101.432 221.799C97.8108 221.799 94.1751 219.647 93.9896 219.536C93.856 219.454 93.8189 219.284 93.8931 219.158C93.9748 219.024 94.1454 218.98 94.2716 219.061C94.3235 219.091 99.7028 222.281 103.687 220.886C103.828 220.835 103.991 220.909 104.043 221.057C104.095 221.206 104.021 221.361 103.873 221.413C103.094 221.688 102.263 221.799 101.432 221.799Z" fill="#B3CDFA"/>
<path d="M79.3209 228.514C79.2244 228.514 79.128 228.462 79.076 228.366C76.6349 223.854 80.6935 217.384 80.8716 217.11C80.9532 216.984 81.1239 216.939 81.2574 217.021C81.3836 217.102 81.4281 217.273 81.339 217.407C81.2945 217.473 77.2804 223.869 79.5657 228.098C79.6399 228.232 79.588 228.403 79.4544 228.477C79.4099 228.499 79.3654 228.514 79.3209 228.514Z" fill="#B3CDFA"/>
<path d="M95.9335 228.952C89.0257 228.952 84.4254 224.789 84.3735 224.745C84.2622 224.641 84.2548 224.463 84.3586 224.352C84.4625 224.24 84.6406 224.233 84.7519 224.337C84.8038 224.381 89.9828 229.063 97.5732 228.314C97.7291 228.306 97.8626 228.41 97.8774 228.566C97.8923 228.722 97.781 228.855 97.6252 228.87C97.0539 228.922 96.4825 228.952 95.9335 228.952Z" fill="#B3CDFA"/>
<path d="M85.2935 236.29C77.9925 236.29 74.3642 232.669 74.3197 232.625C74.2158 232.513 74.2158 232.335 74.3271 232.231C74.4384 232.127 74.6165 232.127 74.7204 232.239C74.7723 232.291 80.0997 237.581 90.9325 235.058C91.0809 235.021 91.2293 235.118 91.2664 235.266C91.3035 235.414 91.2071 235.563 91.0587 235.6C88.9292 236.09 87.0075 236.29 85.2935 236.29Z" fill="#B3CDFA"/>
<path d="M71.3151 236.156C71.2409 236.156 71.1593 236.127 71.1073 236.06C67.0932 231.423 71.0999 223.966 71.2706 223.647C71.3448 223.513 71.5154 223.461 71.649 223.535C71.7825 223.61 71.8345 223.78 71.7603 223.914C71.7232 223.988 67.761 231.348 71.5303 235.696C71.6341 235.815 71.6193 235.986 71.5006 236.09C71.4412 236.134 71.3819 236.156 71.3151 236.156Z" fill="#B3CDFA"/>
<path d="M79.0015 242.908C72.9915 242.908 68.7177 240.638 68.6658 240.601C68.5322 240.527 68.4803 240.356 68.5545 240.222C68.6287 240.089 68.7993 240.037 68.9329 240.111C69.0071 240.148 76.1152 243.925 84.8483 241.58C84.9967 241.543 85.1525 241.632 85.1896 241.781C85.2267 241.929 85.1376 242.085 84.9893 242.122C82.8746 242.686 80.8564 242.908 79.0015 242.908Z" fill="#B3CDFA"/>
<path d="M39.1575 232.899C39.1575 232.899 39.6546 220.004 33.5333 214.001C28.5249 209.082 21.3278 206.989 17.8998 205.624C12.6318 203.524 2.9787 198.1 1.67282 193.797C1.1386 192.038 -1.62155 199.265 2.20705 209.482C11.4521 234.146 36.6422 235.296 39.1575 232.899Z" fill="url(#paint20_linear_20_473)"/>
<path d="M46.3916 251.678C46.1913 251.664 45.9983 251.634 45.8054 251.612C45.5977 250.617 45.3677 249.586 45.1154 248.54C44.7741 247.123 44.4328 245.683 44.0173 244.214C41.7913 236.268 37.5843 227.527 21.8544 218.356C5.41964 208.77 1.10875 194.064 1.06423 193.916C1.01972 193.767 1.10875 193.611 1.25714 193.574C1.40554 193.53 1.56136 193.619 1.59846 193.76C1.64298 193.908 5.90193 208.406 22.1364 217.874C38.1037 227.178 42.3256 236.06 44.5737 244.133C44.9818 245.587 45.3231 247.011 45.657 248.414C45.9241 249.527 46.169 250.617 46.3916 251.678Z" fill="#B3CDFA"/>
<path d="M13.2923 211.975C13.1885 211.975 13.092 211.916 13.0401 211.82C11.1555 208.058 12.7878 203.48 12.862 203.287C12.9139 203.146 13.0772 203.072 13.2182 203.124C13.3591 203.175 13.4333 203.339 13.3814 203.48C13.3665 203.524 11.7639 208.028 13.5372 211.567C13.604 211.701 13.552 211.871 13.4111 211.938C13.3814 211.96 13.3369 211.975 13.2923 211.975Z" fill="#B3CDFA"/>
<path d="M7.78672 205.951C7.67543 205.951 7.57156 205.884 7.52704 205.78C6.50311 203.265 6.96313 199.918 6.98539 199.777C7.00765 199.621 7.14863 199.518 7.29703 199.54C7.45284 199.562 7.55671 199.703 7.53445 199.851C7.52704 199.881 7.07444 203.19 8.03901 205.565C8.09836 205.706 8.03158 205.869 7.88318 205.928C7.86093 205.943 7.82382 205.951 7.78672 205.951Z" fill="#B3CDFA"/>
<path d="M21.9955 218.386C21.8991 218.386 21.81 218.342 21.7581 218.253C18.9312 213.571 20.838 207.049 20.9197 206.767C20.9642 206.618 21.12 206.537 21.2684 206.581C21.4168 206.626 21.4984 206.782 21.4539 206.93C21.4316 206.997 19.5322 213.496 22.233 217.963C22.3146 218.097 22.2701 218.267 22.1365 218.349C22.0994 218.379 22.0475 218.386 21.9955 218.386Z" fill="#B3CDFA"/>
<path d="M29.2668 223.157C29.1555 223.157 29.0591 223.098 29.0146 222.986C26.1579 216.368 30.365 211.449 30.4095 211.397C30.5134 211.278 30.684 211.271 30.8027 211.367C30.9214 211.471 30.9289 211.642 30.8324 211.76C30.7953 211.805 26.8183 216.479 29.5265 222.764C29.5859 222.905 29.5191 223.068 29.3781 223.127C29.341 223.15 29.3039 223.157 29.2668 223.157Z" fill="#B3CDFA"/>
<path d="M35.633 228.759C35.5069 228.759 35.3882 228.67 35.3585 228.536C34.4755 224.329 37.436 221.621 37.5621 221.51C37.6734 221.406 37.8515 221.413 37.9554 221.532C38.0593 221.643 38.0519 221.821 37.9331 221.925C37.9035 221.947 35.084 224.537 35.9001 228.425C35.9298 228.573 35.8333 228.722 35.6849 228.751C35.6701 228.759 35.6553 228.759 35.633 228.759Z" fill="#B3CDFA"/>
<path d="M9.70864 208.295C9.64186 208.295 9.57508 208.273 9.52314 208.221C6.41426 205.424 1.39107 206.811 1.33913 206.826C1.19074 206.87 1.03493 206.781 0.997828 206.633C0.953309 206.485 1.04234 206.329 1.19074 206.292C1.40591 206.232 6.56265 204.808 9.90155 207.805C10.0128 207.909 10.0277 208.087 9.92381 208.199C9.86445 208.265 9.79026 208.295 9.70864 208.295Z" fill="#B3CDFA"/>
<path d="M5.02644 215.789C4.92998 215.789 4.83352 215.737 4.78158 215.648C4.70739 215.515 4.75191 215.344 4.89289 215.27C5.10806 215.151 10.2425 212.339 16.0671 213.749C16.2154 213.786 16.3119 213.934 16.2748 214.083C16.2377 214.231 16.0893 214.328 15.9409 214.29C10.3242 212.94 5.21193 215.73 5.16741 215.76C5.11548 215.782 5.07096 215.789 5.02644 215.789Z" fill="#B3CDFA"/>
<path d="M10.8288 223.468C10.7471 223.468 10.6655 223.431 10.6136 223.365C10.5171 223.246 10.5394 223.068 10.6581 222.971C10.7175 222.919 16.9204 218.052 24.444 219.276C24.5924 219.299 24.6963 219.447 24.674 219.595C24.6518 219.744 24.5034 219.848 24.355 219.825C17.0688 218.638 11.0662 223.357 11.0068 223.402C10.9475 223.446 10.8881 223.468 10.8288 223.468Z" fill="#B3CDFA"/>
<path d="M21.9067 231.074C21.8399 231.074 21.7658 231.051 21.7138 230.999C21.6025 230.895 21.5951 230.717 21.699 230.606C21.9216 230.369 27.2119 224.856 33.4816 226.05C33.63 226.08 33.7338 226.221 33.7042 226.377C33.6745 226.525 33.5261 226.629 33.3777 226.599C27.4048 225.472 22.1516 230.94 22.0996 230.992C22.0551 231.044 21.9809 231.074 21.9067 231.074Z" fill="#B3CDFA"/>
<path d="M67.887 220.248C67.887 220.248 64.2439 207.835 68.7106 200.601C72.3685 194.672 78.846 190.985 81.8436 188.87C86.4438 185.62 94.4869 178.134 94.702 173.652C94.7911 171.827 99.2429 178.208 98.0335 189.011C95.1027 215.099 70.9143 221.999 67.887 220.248Z" fill="url(#paint21_linear_20_473)"/>
<path d="M67.0558 251.315C66.7664 249.349 66.4771 246.922 66.2619 244.147C66.2545 244.043 66.2471 243.94 66.2397 243.836C66.21 243.494 66.1877 243.153 66.1655 242.797C66.1655 242.797 66.1655 242.797 66.1655 242.79C66.0393 240.927 65.9577 238.924 65.928 236.809C65.8093 227.512 65.6757 216.976 81.1163 202.144C94.7316 189.056 95.3177 173.778 95.3177 173.622C95.3251 173.474 95.2064 173.341 95.0506 173.341C94.8799 173.326 94.7687 173.452 94.7612 173.608C94.7612 173.756 94.1751 188.818 80.7305 201.743C65.1193 216.739 65.2528 227.408 65.3715 236.817C65.4012 239.273 65.5125 241.588 65.6757 243.71C65.6683 243.717 65.6757 243.717 65.6757 243.717C65.6757 243.836 65.6906 243.947 65.698 244.066C65.7128 244.303 65.7351 244.541 65.7574 244.771V244.778C65.9651 247.323 66.2396 249.564 66.4993 251.404L67.0558 251.315Z" fill="#B3CDFA"/>
<path d="M87.8088 193.99C87.7866 193.99 87.7718 193.99 87.7495 193.982C87.6011 193.953 87.5046 193.797 87.5417 193.648C88.4024 189.798 85.7313 185.791 85.7091 185.754C85.62 185.628 85.6571 185.457 85.7833 185.368C85.9094 185.279 86.0875 185.316 86.1691 185.442C86.2878 185.613 88.996 189.686 88.0834 193.767C88.0463 193.901 87.935 193.99 87.8088 193.99Z" fill="#B3CDFA"/>
<path d="M91.6747 186.867C91.6598 186.867 91.645 186.867 91.6376 186.867C91.4817 186.844 91.3779 186.703 91.4001 186.555C91.7563 184.018 90.5023 180.923 90.4875 180.894C90.4281 180.753 90.4949 180.59 90.6359 180.53C90.7769 180.471 90.9401 180.538 90.9995 180.679C91.0514 180.812 92.3276 183.951 91.9418 186.629C91.9343 186.77 91.8156 186.867 91.6747 186.867Z" fill="#B3CDFA"/>
<path d="M80.923 202.218C80.8934 202.218 80.8711 202.218 80.8414 202.204C80.693 202.159 80.6114 202.003 80.6559 201.855C82.1844 196.899 78.7416 191.015 78.7045 190.955C78.6229 190.822 78.6674 190.651 78.801 190.577C78.9346 190.495 79.1052 190.54 79.1794 190.673C79.3278 190.918 82.7854 196.824 81.1827 202.018C81.1531 202.144 81.0418 202.218 80.923 202.218Z" fill="#B3CDFA"/>
<path d="M75.0321 208.518C75.0173 208.518 75.0024 208.518 74.9876 208.518C74.8392 208.495 74.7353 208.347 74.7576 208.199C75.8557 201.454 70.84 197.841 70.788 197.804C70.6619 197.714 70.6322 197.544 70.7212 197.418C70.8103 197.292 70.9809 197.262 71.1071 197.351C71.159 197.388 76.4567 201.202 75.3067 208.288C75.2844 208.421 75.1657 208.518 75.0321 208.518Z" fill="#B3CDFA"/>
<path d="M70.2167 215.425C70.0683 215.425 69.9422 215.307 69.9422 215.158C69.779 211.196 66.403 209.326 66.3733 209.304C66.2397 209.23 66.1878 209.059 66.262 208.926C66.3362 208.792 66.5068 208.74 66.6404 208.814C66.7888 208.896 70.328 210.84 70.5061 215.136C70.5135 215.292 70.3948 215.418 70.239 215.425C70.2316 215.425 70.2241 215.425 70.2167 215.425Z" fill="#B3CDFA"/>
<path d="M90.3834 189.59C90.3315 189.59 90.2721 189.575 90.2276 189.538C90.1015 189.449 90.0644 189.278 90.1534 189.152C92.6613 185.472 98.0184 185.672 98.241 185.68C98.3968 185.687 98.5155 185.813 98.5081 185.969C98.5006 186.125 98.3671 186.236 98.2187 186.236C98.1667 186.229 92.9432 186.043 90.6134 189.471C90.5615 189.545 90.4724 189.59 90.3834 189.59Z" fill="#B3CDFA"/>
<path d="M85.7388 196.861C85.6349 196.861 85.5384 196.802 85.4939 196.705C85.4271 196.572 85.4791 196.401 85.6126 196.334C90.9326 193.634 96.6087 195.177 96.8462 195.244C96.9946 195.288 97.0836 195.437 97.0391 195.585C96.9945 195.733 96.8461 195.815 96.6978 195.778C96.6384 195.763 90.992 194.22 85.8723 196.824C85.8278 196.854 85.7833 196.861 85.7388 196.861Z" fill="#B3CDFA"/>
<path d="M93.025 204.585C92.9879 204.585 92.9434 204.578 92.9063 204.556C92.8396 204.526 85.8427 201.321 79.061 204.147C78.9201 204.207 78.7568 204.14 78.6975 203.999C78.6381 203.858 78.7049 203.695 78.8459 203.636C85.8575 200.72 93.0696 204.021 93.1363 204.058C93.2773 204.125 93.3367 204.288 93.2699 204.429C93.2254 204.526 93.1289 204.585 93.025 204.585Z" fill="#B3CDFA"/>
<path d="M84.1215 214.52C84.0696 214.52 84.0177 214.505 83.9732 214.476C83.9064 214.431 77.4512 210.328 71.9383 212.791C71.7973 212.851 71.6341 212.791 71.5673 212.65C71.508 212.509 71.5673 212.346 71.7083 212.279C77.5031 209.682 83.9954 213.823 84.2699 214.001C84.3961 214.082 84.4332 214.253 84.3516 214.387C84.2996 214.476 84.2106 214.52 84.1215 214.52Z" fill="#B3CDFA"/>
<path d="M35.7666 177.414C35.7666 177.414 43.0454 190.592 48.9219 195.526C56.6978 202.04 64.9856 216.739 61.439 232.328C59.5544 240.601 55.2509 242.426 55.2509 242.426C55.2509 242.426 51.2739 230.755 47.245 226.503C43.2235 222.252 38.8161 218.49 37.5325 208.05C36.2563 197.603 35.7666 177.414 35.7666 177.414Z" fill="url(#paint22_linear_20_473)"/>
<path d="M54.1677 252.391C54.7761 249.653 55.3029 246.73 55.6517 243.717C56.3194 238.004 56.364 231.987 55.1916 226.303C53.4257 217.763 49.0629 211.293 44.8485 205.038C42.5335 201.61 40.3447 198.36 38.7049 194.932C34.1418 185.42 35.6406 166.277 35.6554 166.084C35.6702 165.936 35.5589 165.802 35.4031 165.787C35.2547 165.773 35.1137 165.891 35.1063 166.04C35.0841 166.233 33.5779 185.524 38.2004 195.17C39.8624 198.642 42.0587 201.899 44.3885 205.35C48.5732 211.56 52.8989 217.978 54.6426 226.422C55.8075 232.053 55.763 238.026 55.1026 243.695C54.7465 246.715 54.2197 249.653 53.6038 252.398L54.1677 252.391Z" fill="#B3CDFA"/>
<path d="M42.4297 202.196C42.3184 202.196 42.2145 202.129 42.17 202.025C39.8847 196.409 42.7933 189.835 42.9194 189.553C42.9788 189.412 43.1494 189.352 43.2904 189.412C43.4314 189.471 43.4907 189.642 43.4314 189.783C43.4017 189.85 40.4931 196.423 42.6894 201.81C42.7488 201.951 42.682 202.114 42.5336 202.174C42.5039 202.189 42.4668 202.196 42.4297 202.196Z" fill="#B3CDFA"/>
<path d="M47.4008 209.675C47.2821 209.675 47.1782 209.601 47.1337 209.482C44.9672 202.983 48.5212 195.704 48.6696 195.4C48.7364 195.266 48.907 195.207 49.0406 195.273C49.1816 195.34 49.2335 195.511 49.1667 195.644C49.1296 195.719 45.5607 203.027 47.6605 209.304C47.7125 209.453 47.6308 209.608 47.4825 209.653C47.4602 209.668 47.4305 209.675 47.4008 209.675Z" fill="#B3CDFA"/>
<path d="M52.1346 218.178C52.0233 218.178 51.912 218.104 51.8749 217.993C49.5451 211.471 55.7777 204.348 56.0448 204.051C56.1487 203.94 56.3193 203.925 56.438 204.029C56.5493 204.133 56.5642 204.303 56.4603 204.422C56.4009 204.496 50.1758 211.604 52.3943 217.807C52.4462 217.948 52.372 218.111 52.2236 218.163C52.2014 218.171 52.1643 218.178 52.1346 218.178Z" fill="#B3CDFA"/>
<path d="M54.9172 226.637C54.7763 226.637 54.6576 226.533 54.6427 226.392C53.7746 219.543 61.1053 216.138 61.1795 216.108C61.3205 216.049 61.4837 216.108 61.5505 216.249C61.6173 216.39 61.5505 216.553 61.4095 216.62C61.3428 216.65 54.3756 219.892 55.1918 226.333C55.214 226.488 55.1027 226.622 54.9543 226.644C54.9395 226.637 54.9247 226.637 54.9172 226.637Z" fill="#B3CDFA"/>
<path d="M55.941 235.86C55.9336 235.86 55.9335 235.86 55.9261 235.86C55.7703 235.852 55.6516 235.719 55.659 235.57C55.9558 229.961 61.9287 228.492 61.9881 228.477C62.1365 228.44 62.2849 228.536 62.322 228.685C62.3591 228.833 62.2626 228.981 62.1142 229.019C61.8842 229.071 56.4826 230.406 56.2081 235.6C56.2081 235.741 56.0894 235.86 55.941 235.86Z" fill="#B3CDFA"/>
<path d="M48.2242 210.966C48.1352 210.966 48.0536 210.922 47.9942 210.848C44.7073 206.181 36.5529 208.199 36.4713 208.214C36.3229 208.251 36.1671 208.162 36.13 208.013C36.0929 207.865 36.1819 207.709 36.3303 207.672C36.6791 207.583 44.9373 205.542 48.4468 210.521C48.5358 210.647 48.5062 210.818 48.38 210.907C48.3355 210.944 48.2762 210.966 48.2242 210.966Z" fill="#B3CDFA"/>
<path d="M52.9805 220.167C52.884 220.167 52.7876 220.115 52.7356 220.026C49.7158 214.684 40.122 218.208 40.0256 218.245C39.8846 218.297 39.7214 218.223 39.6694 218.082C39.6175 217.941 39.6917 217.778 39.8327 217.726C40.2482 217.57 49.9755 214.001 53.2253 219.751C53.2995 219.885 53.255 220.055 53.1214 220.13C53.0695 220.159 53.025 220.167 52.9805 220.167Z" fill="#B3CDFA"/>
<path d="M55.4737 230.035C55.3624 230.035 55.2585 229.968 55.214 229.864C53.4778 225.732 47.7645 227.186 47.7052 227.201C47.5568 227.245 47.4084 227.149 47.3639 227C47.3268 226.852 47.4158 226.696 47.5642 226.659C47.631 226.644 53.8042 225.064 55.7259 229.642C55.7853 229.783 55.7185 229.946 55.5776 230.005C55.5479 230.028 55.5108 230.035 55.4737 230.035Z" fill="#B3CDFA"/>
<path d="M35.6033 161.053C35.6033 161.053 41.3833 173.86 40.3223 185.502C39.2612 197.143 38.4377 214.402 42.103 220.686C42.103 220.686 36.375 215.374 36.3082 206.114C36.2488 196.854 36.6198 192.35 34.2158 188.937C31.8192 185.509 28.2726 167.791 35.6033 161.053Z" fill="#172B36"/>
<defs>
<linearGradient id="paint0_linear_20_473" x1="84.193" y1="67.7827" x2="78.2462" y2="67.7827" gradientUnits="userSpaceOnUse">
<stop stop-color="#0056EC"/>
<stop offset="1" stop-color="#008BEC"/>
</linearGradient>
<linearGradient id="paint1_linear_20_473" x1="380.902" y1="57.4212" x2="386.848" y2="57.4212" gradientUnits="userSpaceOnUse">
<stop stop-color="#0056EC"/>
<stop offset="1" stop-color="#008BEC"/>
</linearGradient>
<linearGradient id="paint2_linear_20_473" x1="403.166" y1="33.4495" x2="403.166" y2="39.3962" gradientUnits="userSpaceOnUse">
<stop stop-color="#0056EC"/>
<stop offset="1" stop-color="#008BEC"/>
</linearGradient>
<linearGradient id="paint3_linear_20_473" x1="105.463" y1="29.3159" x2="108.927" y2="29.3159" gradientUnits="userSpaceOnUse">
<stop stop-color="#0056EC"/>
<stop offset="1" stop-color="#008BEC"/>
</linearGradient>
<linearGradient id="paint4_linear_20_473" x1="117.003" y1="28.5297" x2="120.537" y2="28.5297" gradientUnits="userSpaceOnUse">
<stop stop-color="#0056EC"/>
<stop offset="1" stop-color="#008BEC"/>
</linearGradient>
<linearGradient id="paint5_linear_20_473" x1="102.526" y1="118.536" x2="116.621" y2="118.536" gradientUnits="userSpaceOnUse">
<stop stop-color="#008DEC"/>
<stop offset="1" stop-color="#008BEC"/>
</linearGradient>
<linearGradient id="paint6_linear_20_473" x1="30.5997" y1="130.319" x2="42.2199" y2="130.319" gradientUnits="userSpaceOnUse">
<stop stop-color="#008DEC"/>
<stop offset="1" stop-color="#008BEC"/>
</linearGradient>
<linearGradient id="paint7_linear_20_473" x1="67.2702" y1="91.8761" x2="78.8905" y2="91.8761" gradientUnits="userSpaceOnUse">
<stop stop-color="#008DEC"/>
<stop offset="1" stop-color="#008BEC"/>
</linearGradient>
<linearGradient id="paint8_linear_20_473" x1="8.93143" y1="175.43" x2="25.5756" y2="175.43" gradientUnits="userSpaceOnUse">
<stop stop-color="#D1E2FF"/>
<stop offset="1" stop-color="#ECF3FF"/>
</linearGradient>
<linearGradient id="paint9_linear_20_473" x1="46.3609" y1="145.174" x2="63.0051" y2="145.174" gradientUnits="userSpaceOnUse">
<stop stop-color="#D1E2FF"/>
<stop offset="1" stop-color="#ECF3FF"/>
</linearGradient>
<linearGradient id="paint10_linear_20_473" x1="64.7589" y1="130.949" x2="81.4031" y2="130.949" gradientUnits="userSpaceOnUse">
<stop stop-color="#D1E2FF"/>
<stop offset="1" stop-color="#ECF3FF"/>
</linearGradient>
<linearGradient id="paint11_linear_20_473" x1="28.0874" y1="160.216" x2="44.7316" y2="160.216" gradientUnits="userSpaceOnUse">
<stop stop-color="#D1E2FF"/>
<stop offset="1" stop-color="#ECF3FF"/>
</linearGradient>
<linearGradient id="paint12_linear_20_473" x1="225.588" y1="82.2578" x2="216.499" y2="100.993" gradientUnits="userSpaceOnUse">
<stop stop-color="#EEC9C8"/>
<stop offset="0.2498" stop-color="#EDC4C2"/>
<stop offset="0.5696" stop-color="#ECB4B3"/>
<stop offset="0.926" stop-color="#E99A98"/>
<stop offset="1" stop-color="#E89492"/>
</linearGradient>
<linearGradient id="paint13_linear_20_473" x1="162.732" y1="90.9134" x2="163.991" y2="109.221" gradientUnits="userSpaceOnUse">
<stop stop-color="#E85F5A"/>
<stop offset="1" stop-color="#EEC9C8"/>
</linearGradient>
<linearGradient id="paint14_linear_20_473" x1="161.102" y1="88.8276" x2="182.137" y2="86.0203" gradientUnits="userSpaceOnUse">
<stop stop-color="#E89492"/>
<stop offset="0.074" stop-color="#E99A98"/>
<stop offset="0.4304" stop-color="#ECB4B3"/>
<stop offset="0.7502" stop-color="#EDC4C2"/>
<stop offset="1" stop-color="#EEC9C8"/>
</linearGradient>
<linearGradient id="paint15_linear_20_473" x1="188.253" y1="139.942" x2="142.588" y2="139.942" gradientUnits="userSpaceOnUse">
<stop stop-color="#0056EC"/>
<stop offset="1" stop-color="#008BEC"/>
</linearGradient>
<linearGradient id="paint16_linear_20_473" x1="32.0918" y1="288.298" x2="77.2709" y2="288.298" gradientUnits="userSpaceOnUse">
<stop stop-color="#D1E2FF"/>
<stop offset="1" stop-color="#ECF3FF"/>
</linearGradient>
<linearGradient id="paint17_linear_20_473" x1="34.2793" y1="269.188" x2="76.4906" y2="269.188" gradientUnits="userSpaceOnUse">
<stop stop-color="#D1E2FF"/>
<stop offset="1" stop-color="#ECF3FF"/>
</linearGradient>
<linearGradient id="paint18_linear_20_473" x1="55.385" y1="243.635" x2="55.385" y2="252.809" gradientUnits="userSpaceOnUse">
<stop stop-color="#008BEC"/>
<stop offset="1" stop-color="#0056EC"/>
</linearGradient>
<linearGradient id="paint19_linear_20_473" x1="64.9764" y1="227.254" x2="104.735" y2="227.254" gradientUnits="userSpaceOnUse">
<stop stop-color="#0056EC"/>
<stop offset="1" stop-color="#008BEC"/>
</linearGradient>
<linearGradient id="paint20_linear_20_473" x1="12.7959" y1="225.342" x2="23.9618" y2="207.124" gradientUnits="userSpaceOnUse">
<stop stop-color="#0056EC"/>
<stop offset="1" stop-color="#00C2EC"/>
</linearGradient>
<linearGradient id="paint21_linear_20_473" x1="69.6887" y1="220.691" x2="97.8839" y2="174.689" gradientUnits="userSpaceOnUse">
<stop stop-color="#0056EC"/>
<stop offset="1" stop-color="#00C2EC"/>
</linearGradient>
<linearGradient id="paint22_linear_20_473" x1="35.7702" y1="209.919" x2="62.2883" y2="209.919" gradientUnits="userSpaceOnUse">
<stop stop-color="#0056EC"/>
<stop offset="1" stop-color="#008BEC"/>
</linearGradient>
</defs>
</svg>
