<svg width="400" height="294" viewBox="0 0 400 294" fill="none" xmlns="http://www.w3.org/2000/svg">
<path d="M7.69583 237.999C7.69583 237.999 398.322 237.999 399.782 237.999C401.739 237.969 389.892 178.065 388.485 173.136C381.023 146.979 370.154 121.547 353.998 99.5358C302.058 28.7721 195.467 16.0794 138.632 88.767C119.944 112.667 101.185 139.739 72.2388 151.884C50.3164 161.083 26.0394 162.714 10.0663 182.479C-1.82179 197.19 -3.89014 223.047 7.69583 237.999Z" fill="#F4F7FD"/>
<path d="M375.715 217.751H76.2852C76.1275 217.751 76 217.583 76 217.375C76 217.167 76.1275 216.999 76.2852 216.999H375.715C375.872 216.999 376 217.167 376 217.375C376 217.583 375.872 217.751 375.715 217.751Z" fill="#97A8BE"/>
<path d="M252.942 292.531H236.563C235.954 292.531 235.439 292.09 235.345 291.494L230.842 263.708C230.722 262.959 231.304 262.277 232.06 262.277H257.444C258.207 262.277 258.789 262.959 258.662 263.708L254.159 291.494C254.066 292.09 253.55 292.531 252.942 292.531Z" fill="#F0F7FF"/>
<path d="M246.365 266.853L247.991 258.149C254.508 251.19 258.328 240.693 259.412 228.958C259.532 227.646 259.606 226.348 259.633 225.064L254.548 227.071C254.548 227.071 257.218 224.676 259.64 222.555C259.439 213.161 256.836 204.59 252.554 198C245.924 204.958 241.22 215.309 240.116 227.171C240.056 227.807 240.009 228.436 239.976 229.065L244.86 236.859C244.726 236.759 241.889 234.538 239.875 232.918C239.969 242.466 242.538 251.197 246.834 257.914L246.011 266.82L246.365 266.853Z" fill="#1890FF"/>
<path d="M244.478 268.158L242.284 259.58C245.455 250.588 244.913 239.395 241.193 228.215C240.778 226.97 240.323 225.746 239.828 224.562L235.981 228.442C235.981 228.442 237.466 225.171 238.825 222.26C234.864 213.743 229.036 206.939 222.466 202.63C219.194 211.669 219.047 223.036 222.814 234.337C223.015 234.939 223.222 235.534 223.443 236.123L231.05 241.295C230.889 241.255 227.397 240.365 224.901 239.689C228.822 248.394 234.69 255.359 241.327 259.781L244.15 268.265L244.478 268.158Z" fill="#1890FF"/>
<path d="M372.934 174.465H182.038C179.005 174.465 176.523 171.983 176.523 168.95V42.2386C176.523 39.2055 179.005 36.7236 182.038 36.7236H372.934C375.967 36.7236 378.449 39.2055 378.449 42.2386V168.95C378.449 171.983 375.967 174.465 372.934 174.465Z" fill="#F4F7FD"/>
<path d="M209.187 86.7188H188.62V153.197H209.187V86.7188Z" fill="#CCE6FF"/>
<path d="M239.467 98.4131H218.899V153.199H239.467V98.4131Z" fill="#304156"/>
<path d="M269.746 79.3H249.178V153.197H269.746V79.3Z" fill="#CCE6FF"/>
<path d="M300.026 66.5305H279.458V153.198H300.026V66.5305Z" fill="#1890FF"/>
<path d="M330.306 121.836H309.738V153.198H330.306V121.836Z" fill="#CCE6FF"/>
<path d="M360.586 45.0833H340.018V153.197H360.586V45.0833Z" fill="#40C9C6"/>
<path d="M371.91 171.955H179.82C176.997 171.955 174.701 169.659 174.701 166.836V38.9299C174.701 36.107 176.997 33.811 179.82 33.811H371.91C374.733 33.811 377.029 36.107 377.029 38.9299V166.836C377.029 169.659 374.732 171.955 371.91 171.955ZM179.82 34.2149C177.22 34.2149 175.104 36.3301 175.104 38.9312V166.838C175.104 169.438 177.219 171.554 179.82 171.554H371.91C374.51 171.554 376.627 169.439 376.627 166.838V38.9299C376.627 36.3301 374.512 34.2136 371.91 34.2136H179.82V34.2149Z" fill="#102A54"/>
<path d="M71.7305 103.537H23.9108C22.1263 103.537 20.6738 102.085 20.6738 100.3V59.0619C20.6738 57.2774 22.1263 55.825 23.9108 55.825H71.7305C73.515 55.825 74.9675 57.2774 74.9675 59.0619V100.301C74.9662 102.086 73.515 103.537 71.7305 103.537ZM23.9108 56.2275C22.3481 56.2275 21.0764 57.4992 21.0764 59.0619V100.301C21.0764 101.864 22.3481 103.136 23.9108 103.136H71.7305C73.2932 103.136 74.5649 101.864 74.5649 100.301V59.0619C74.5649 57.4992 73.2932 56.2275 71.7305 56.2275H23.9108Z" fill="#102A54"/>
<path d="M25.7825 89.8034C25.7312 89.8034 25.6799 89.7842 25.6402 89.7444C25.562 89.6662 25.5607 89.538 25.6402 89.4598L32.2128 82.8706L38.4431 86.1101L48.0899 75.5557L54.9035 79.8669L65.8707 69.501L69.9743 72.4315C70.0653 72.4956 70.0858 72.6213 70.0217 72.7123C69.9576 72.8033 69.832 72.8238 69.7409 72.7597L65.9079 70.0215L54.9535 80.3759L48.1604 76.0787L38.5316 86.6126L32.2897 83.3667L25.9261 89.747C25.8863 89.7842 25.8338 89.8034 25.7825 89.8034Z" fill="#102A54"/>
<path d="M74.7649 62.5886H20.8751C20.7636 62.5886 20.6738 62.4988 20.6738 62.3873C20.6738 62.2758 20.7636 62.186 20.8751 62.186H74.7662C74.8777 62.186 74.9675 62.2758 74.9675 62.3873C74.9675 62.4988 74.8764 62.5886 74.7649 62.5886Z" fill="#102A54"/>
<path d="M25.7821 60.6592C26.5198 60.6592 27.1179 60.0611 27.1179 59.3234C27.1179 58.5856 26.5198 57.9875 25.7821 57.9875C25.0443 57.9875 24.4463 58.5856 24.4463 59.3234C24.4463 60.0611 25.0443 60.6592 25.7821 60.6592Z" fill="#102A54"/>
<path d="M30.6127 60.6592C31.3504 60.6592 31.9485 60.0611 31.9485 59.3234C31.9485 58.5856 31.3504 57.9875 30.6127 57.9875C29.8749 57.9875 29.2769 58.5856 29.2769 59.3234C29.2769 60.0611 29.8749 60.6592 30.6127 60.6592Z" fill="#80C0FF"/>
<path d="M35.4418 60.6592C36.1795 60.6592 36.7776 60.0611 36.7776 59.3234C36.7776 58.5856 36.1795 57.9875 35.4418 57.9875C34.704 57.9875 34.106 58.5856 34.106 59.3234C34.106 60.0611 34.704 60.6592 35.4418 60.6592Z" fill="#80C0FF"/>
<path d="M28.6214 89.9869C28.5432 89.9869 28.4638 89.9625 28.3958 89.9125C28.224 89.7869 28.1869 89.5471 28.3112 89.3754L33.8852 81.7297L46.7817 79.3158L54.2825 74.6277L69.4289 75.0494C69.6417 75.0559 69.8083 75.2328 69.8032 75.4443C69.7968 75.6533 69.6263 75.8186 69.4186 75.8186C69.4148 75.8186 69.4109 75.8186 69.4071 75.8186L54.4927 75.4033L47.065 80.0453L34.3262 82.4297L28.9317 89.8292C28.8573 89.9317 28.7407 89.9869 28.6214 89.9869Z" fill="#1890FF"/>
<path d="M246.987 61.7678H186.025C183.888 61.7678 182.155 60.0346 182.155 57.8976V5.32434C182.155 3.18731 183.888 1.4541 186.025 1.4541H246.987C249.124 1.4541 250.858 3.18731 250.858 5.32434V57.8976C250.858 60.0346 249.126 61.7678 246.987 61.7678Z" fill="white"/>
<path d="M246.209 60.8258H185.247C182.971 60.8258 181.12 58.9746 181.12 56.6991V4.1259C181.12 1.85042 182.971 -0.000732422 185.247 -0.000732422H246.209C248.485 -0.000732422 250.336 1.85042 250.336 4.1259V56.6991C250.336 58.9746 248.485 60.8258 246.209 60.8258ZM185.247 0.512052C183.255 0.512052 181.633 2.13245 181.633 4.1259V56.6991C181.633 58.6913 183.253 60.313 185.247 60.313H246.209C248.201 60.313 249.823 58.6926 249.823 56.6991V4.1259C249.823 2.13374 248.203 0.512052 246.209 0.512052H185.247Z" fill="#102A54"/>
<path d="M250.079 8.62191H181.377C181.234 8.62191 181.12 8.50654 181.12 8.36552C181.12 8.22322 181.235 8.10913 181.377 8.10913H250.079C250.222 8.10913 250.336 8.22451 250.336 8.36552C250.336 8.50782 250.22 8.62191 250.079 8.62191Z" fill="#102A54"/>
<path d="M189.319 4.72948C189.469 3.80137 188.839 2.92688 187.911 2.77626C186.983 2.62563 186.108 3.25591 185.958 4.18401C185.807 5.11212 186.437 5.98661 187.366 6.13723C188.294 6.28786 189.168 5.65758 189.319 4.72948Z" fill="#102A54"/>
<path d="M195.476 4.72948C195.627 3.80137 194.996 2.92688 194.068 2.77626C193.14 2.62563 192.266 3.25591 192.115 4.18401C191.964 5.11212 192.595 5.98661 193.523 6.13723C194.451 6.28786 195.325 5.65758 195.476 4.72948Z" fill="#80C0FF"/>
<path d="M201.634 4.72972C201.784 3.80162 201.154 2.92715 200.226 2.77652C199.298 2.6259 198.423 3.25616 198.273 4.18426C198.122 5.11236 198.752 5.98685 199.68 6.13748C200.609 6.2881 201.483 5.65783 201.634 4.72972Z" fill="#80C0FF"/>
<path d="M231.789 48.0203C239.586 40.2234 239.586 27.5822 231.789 19.7854C223.992 11.9885 211.351 11.9885 203.554 19.7854C195.758 27.5822 195.758 40.2234 203.554 48.0203C211.351 55.8171 223.992 55.8171 231.789 48.0203Z" fill="#40C9C6"/>
<path d="M217.674 54.0633C217.565 54.0633 217.478 53.9748 217.478 53.8672V13.9366C217.478 13.8277 217.566 13.7405 217.674 13.7405C217.782 13.7405 217.87 13.8289 217.87 13.9366V53.8659C217.87 53.9748 217.782 54.0633 217.674 54.0633Z" fill="white"/>
<path d="M214.292 53.5365C214.238 53.5365 214.183 53.5147 214.145 53.4698C209.732 48.4817 207.4 41.7155 207.4 33.9019C207.4 26.5153 209.699 19.4363 213.708 14.4764C213.776 14.3918 213.9 14.3789 213.983 14.4469C214.068 14.5148 214.081 14.6392 214.013 14.7225C210.06 19.6132 207.793 26.6024 207.793 33.9007C207.793 41.6168 210.091 48.2932 214.438 53.2083C214.51 53.289 214.502 53.4134 214.422 53.4852C214.385 53.5198 214.338 53.5365 214.292 53.5365Z" fill="white"/>
<path d="M221.306 53.7812C221.262 53.7812 221.219 53.7671 221.183 53.7376C221.098 53.6697 221.085 53.5453 221.153 53.462C225.106 48.5713 227.373 41.5821 227.373 34.2838C227.373 26.5421 224.874 19.2772 220.514 14.3493C220.442 14.2686 220.449 14.1442 220.53 14.0724C220.611 14.0006 220.735 14.0083 220.807 14.0891C225.229 19.0875 227.766 26.4472 227.766 34.2838C227.766 41.6705 225.467 48.7495 221.458 53.7094C221.42 53.7569 221.364 53.7812 221.306 53.7812Z" fill="white"/>
<path d="M218.043 25.7051C211.503 25.7051 205.397 24.2975 201.71 21.9387C201.619 21.8797 201.592 21.7592 201.65 21.6669C201.708 21.5759 201.83 21.549 201.921 21.608C205.548 23.927 211.574 25.3128 218.043 25.3128C224.168 25.3128 230.008 24.0424 233.664 21.9144C233.758 21.8592 233.878 21.8913 233.932 21.9849C233.987 22.0785 233.955 22.199 233.861 22.2528C230.094 24.4462 224.327 25.7051 218.043 25.7051Z" fill="white"/>
<path d="M203.334 47.9866C203.26 47.9866 203.189 47.9443 203.156 47.8725C203.11 47.7738 203.152 47.6572 203.251 47.611C206.971 45.8778 212.227 44.8843 217.673 44.8843C222.933 44.8843 227.881 45.774 231.606 47.3905C231.706 47.4341 231.751 47.5495 231.709 47.6495C231.665 47.7495 231.55 47.7943 231.451 47.752C227.775 46.1573 222.881 45.2778 217.674 45.2778C212.283 45.2778 207.088 46.2585 203.417 47.9674C203.39 47.9815 203.362 47.9866 203.334 47.9866Z" fill="white"/>
<path d="M237.639 34.4802H197.709C197.6 34.4802 197.513 34.3917 197.513 34.284C197.513 34.1763 197.602 34.0879 197.709 34.0879H237.639C237.747 34.0879 237.835 34.1763 237.835 34.284C237.835 34.3917 237.747 34.4802 237.639 34.4802Z" fill="white"/>
<path d="M47.8209 56.2274C47.7094 56.2274 47.6196 56.1377 47.6196 56.0261V54.4878C47.6196 54.3762 47.7094 54.2865 47.8209 54.2865C47.9324 54.2865 48.0222 54.3762 48.0222 54.4878V56.0261C48.0222 56.1364 47.9311 56.2274 47.8209 56.2274ZM47.8209 53.1507C47.7094 53.1507 47.6196 53.061 47.6196 52.9494V51.4111C47.6196 51.2995 47.7094 51.2098 47.8209 51.2098C47.9324 51.2098 48.0222 51.2995 48.0222 51.4111V52.9494C48.0222 53.0597 47.9311 53.1507 47.8209 53.1507ZM47.8209 50.074C47.7094 50.074 47.6196 49.9842 47.6196 49.8727V48.3344C47.6196 48.2228 47.7094 48.1331 47.8209 48.1331C47.9324 48.1331 48.0222 48.2228 48.0222 48.3344V49.8727C48.0222 49.983 47.9311 50.074 47.8209 50.074ZM47.8209 46.9973C47.7094 46.9973 47.6196 46.9075 47.6196 46.796V45.2577C47.6196 45.1461 47.7094 45.0564 47.8209 45.0564C47.9324 45.0564 48.0222 45.1461 48.0222 45.2577V46.796C48.0222 46.9063 47.9311 46.9973 47.8209 46.9973ZM47.8209 43.9206C47.7094 43.9206 47.6196 43.8308 47.6196 43.7193V42.1809C47.6196 42.0694 47.7094 41.9797 47.8209 41.9797C47.9324 41.9797 48.0222 42.0694 48.0222 42.1809V43.7193C48.0222 43.8295 47.9311 43.9206 47.8209 43.9206ZM47.8209 40.8439C47.7094 40.8439 47.6196 40.7541 47.6196 40.6426V39.1042C47.6196 38.9927 47.7094 38.903 47.8209 38.903C47.9324 38.903 48.0222 38.9927 48.0222 39.1042V40.6426C48.0222 40.7528 47.9311 40.8439 47.8209 40.8439ZM47.8209 37.7671C47.7094 37.7671 47.6196 37.6774 47.6196 37.5659V36.0275C47.6196 35.916 47.7094 35.8263 47.8209 35.8263C47.9324 35.8263 48.0222 35.916 48.0222 36.0275V37.5659C48.0222 37.6761 47.9311 37.7671 47.8209 37.7671ZM47.8209 34.6904C47.7094 34.6904 47.6196 34.6007 47.6196 34.4892V32.9508C47.6196 32.8393 47.7094 32.7495 47.8209 32.7495C47.9324 32.7495 48.0222 32.8393 48.0222 32.9508V34.4892C48.0222 34.5994 47.9311 34.6904 47.8209 34.6904ZM47.8209 31.6137C47.7094 31.6137 47.6196 31.524 47.6196 31.4125V29.8741C47.6196 29.7626 47.7094 29.6728 47.8209 29.6728C47.9324 29.6728 48.0222 29.7626 48.0222 29.8741V31.4125C48.0222 31.5227 47.9311 31.6137 47.8209 31.6137ZM47.8209 28.537C47.7094 28.537 47.6196 28.4473 47.6196 28.3358V26.7974C47.6196 26.6859 47.7094 26.5961 47.8209 26.5961C47.9324 26.5961 48.0222 26.6859 48.0222 26.7974V28.3358C48.0222 28.446 47.9311 28.537 47.8209 28.537ZM47.8209 25.4603C47.7094 25.4603 47.6196 25.3706 47.6196 25.259V23.7207C47.6196 23.6092 47.7094 23.5194 47.8209 23.5194C47.9324 23.5194 48.0222 23.6092 48.0222 23.7207V25.259C48.0222 25.3693 47.9311 25.4603 47.8209 25.4603ZM180.039 23.8425H178.5C178.389 23.8425 178.299 23.7527 178.299 23.6412C178.299 23.5297 178.389 23.4399 178.5 23.4399H180.039C180.15 23.4399 180.24 23.5297 180.24 23.6412C180.24 23.7515 180.15 23.8425 180.039 23.8425ZM176.962 23.8425H175.424C175.312 23.8425 175.222 23.7527 175.222 23.6412C175.222 23.5297 175.312 23.4399 175.424 23.4399H176.962C177.073 23.4399 177.163 23.5297 177.163 23.6412C177.163 23.7515 177.073 23.8425 176.962 23.8425ZM173.885 23.8425H172.347C172.235 23.8425 172.146 23.7527 172.146 23.6412C172.146 23.5297 172.235 23.4399 172.347 23.4399H173.885C173.997 23.4399 174.086 23.5297 174.086 23.6412C174.088 23.7515 173.997 23.8425 173.885 23.8425ZM170.808 23.8425H169.27C169.159 23.8425 169.069 23.7527 169.069 23.6412C169.069 23.5297 169.159 23.4399 169.27 23.4399H170.808C170.92 23.4399 171.01 23.5297 171.01 23.6412C171.011 23.7515 170.92 23.8425 170.808 23.8425ZM167.732 23.8425H166.193C166.082 23.8425 165.992 23.7527 165.992 23.6412C165.992 23.5297 166.082 23.4399 166.193 23.4399H167.732C167.843 23.4399 167.933 23.5297 167.933 23.6412C167.934 23.7515 167.843 23.8425 167.732 23.8425ZM164.655 23.8425H163.117C163.005 23.8425 162.915 23.7527 162.915 23.6412C162.915 23.5297 163.005 23.4399 163.117 23.4399H164.655C164.767 23.4399 164.856 23.5297 164.856 23.6412C164.858 23.7515 164.767 23.8425 164.655 23.8425ZM161.578 23.8425H160.04C159.928 23.8425 159.839 23.7527 159.839 23.6412C159.839 23.5297 159.928 23.4399 160.04 23.4399H161.578C161.69 23.4399 161.78 23.5297 161.78 23.6412C161.781 23.7515 161.69 23.8425 161.578 23.8425ZM158.502 23.8425H156.963C156.852 23.8425 156.762 23.7527 156.762 23.6412C156.762 23.5297 156.852 23.4399 156.963 23.4399H158.502C158.613 23.4399 158.703 23.5297 158.703 23.6412C158.704 23.7515 158.613 23.8425 158.502 23.8425ZM155.425 23.8425H153.887C153.775 23.8425 153.685 23.7527 153.685 23.6412C153.685 23.5297 153.775 23.4399 153.887 23.4399H155.425C155.536 23.4399 155.626 23.5297 155.626 23.6412C155.627 23.7515 155.536 23.8425 155.425 23.8425ZM152.348 23.8425H150.81C150.698 23.8425 150.609 23.7527 150.609 23.6412C150.609 23.5297 150.698 23.4399 150.81 23.4399H152.348C152.46 23.4399 152.549 23.5297 152.549 23.6412C152.551 23.7515 152.46 23.8425 152.348 23.8425ZM149.271 23.8425H147.733C147.622 23.8425 147.532 23.7527 147.532 23.6412C147.532 23.5297 147.622 23.4399 147.733 23.4399H149.271C149.383 23.4399 149.473 23.5297 149.473 23.6412C149.474 23.7515 149.383 23.8425 149.271 23.8425ZM146.195 23.8425H144.656C144.545 23.8425 144.455 23.7527 144.455 23.6412C144.455 23.5297 144.545 23.4399 144.656 23.4399H146.195C146.306 23.4399 146.396 23.5297 146.396 23.6412C146.397 23.7515 146.306 23.8425 146.195 23.8425ZM143.118 23.8425H141.58C141.468 23.8425 141.378 23.7527 141.378 23.6412C141.378 23.5297 141.468 23.4399 141.58 23.4399H143.118C143.23 23.4399 143.319 23.5297 143.319 23.6412C143.321 23.7515 143.23 23.8425 143.118 23.8425ZM140.041 23.8425H138.503C138.391 23.8425 138.302 23.7527 138.302 23.6412C138.302 23.5297 138.391 23.4399 138.503 23.4399H140.041C140.153 23.4399 140.243 23.5297 140.243 23.6412C140.244 23.7515 140.153 23.8425 140.041 23.8425ZM136.965 23.8425H135.426C135.315 23.8425 135.225 23.7527 135.225 23.6412C135.225 23.5297 135.315 23.4399 135.426 23.4399H136.965C137.076 23.4399 137.166 23.5297 137.166 23.6412C137.167 23.7515 137.076 23.8425 136.965 23.8425ZM133.888 23.8425H132.35C132.238 23.8425 132.148 23.7527 132.148 23.6412C132.148 23.5297 132.238 23.4399 132.35 23.4399H133.888C133.999 23.4399 134.089 23.5297 134.089 23.6412C134.091 23.7515 133.999 23.8425 133.888 23.8425ZM130.811 23.8425H129.273C129.161 23.8425 129.072 23.7527 129.072 23.6412C129.072 23.5297 129.161 23.4399 129.273 23.4399H130.811C130.923 23.4399 131.013 23.5297 131.013 23.6412C131.014 23.7515 130.923 23.8425 130.811 23.8425ZM127.735 23.8425H126.196C126.085 23.8425 125.995 23.7527 125.995 23.6412C125.995 23.5297 126.085 23.4399 126.196 23.4399H127.735C127.846 23.4399 127.936 23.5297 127.936 23.6412C127.937 23.7515 127.846 23.8425 127.735 23.8425ZM124.658 23.8425H123.119C123.008 23.8425 122.918 23.7527 122.918 23.6412C122.918 23.5297 123.008 23.4399 123.119 23.4399H124.658C124.769 23.4399 124.859 23.5297 124.859 23.6412C124.86 23.7515 124.769 23.8425 124.658 23.8425ZM121.581 23.8425H120.043C119.931 23.8425 119.842 23.7527 119.842 23.6412C119.842 23.5297 119.931 23.4399 120.043 23.4399H121.581C121.693 23.4399 121.782 23.5297 121.782 23.6412C121.784 23.7515 121.693 23.8425 121.581 23.8425ZM118.506 23.8425H116.967C116.856 23.8425 116.766 23.7527 116.766 23.6412C116.766 23.5297 116.856 23.4399 116.967 23.4399H118.506C118.617 23.4399 118.707 23.5297 118.707 23.6412C118.707 23.7515 118.616 23.8425 118.506 23.8425ZM115.429 23.8425H113.891C113.779 23.8425 113.689 23.7527 113.689 23.6412C113.689 23.5297 113.779 23.4399 113.891 23.4399H115.429C115.541 23.4399 115.63 23.5297 115.63 23.6412C115.63 23.7515 115.539 23.8425 115.429 23.8425ZM112.352 23.8425H110.814C110.702 23.8425 110.613 23.7527 110.613 23.6412C110.613 23.5297 110.702 23.4399 110.814 23.4399H112.352C112.464 23.4399 112.554 23.5297 112.554 23.6412C112.554 23.7515 112.463 23.8425 112.352 23.8425ZM109.276 23.8425H107.737C107.626 23.8425 107.536 23.7527 107.536 23.6412C107.536 23.5297 107.626 23.4399 107.737 23.4399H109.276C109.387 23.4399 109.477 23.5297 109.477 23.6412C109.477 23.7515 109.386 23.8425 109.276 23.8425ZM106.199 23.8425H104.661C104.549 23.8425 104.459 23.7527 104.459 23.6412C104.459 23.5297 104.549 23.4399 104.661 23.4399H106.199C106.31 23.4399 106.4 23.5297 106.4 23.6412C106.4 23.7515 106.309 23.8425 106.199 23.8425ZM103.122 23.8425H101.584C101.472 23.8425 101.383 23.7527 101.383 23.6412C101.383 23.5297 101.472 23.4399 101.584 23.4399H103.122C103.234 23.4399 103.323 23.5297 103.323 23.6412C103.323 23.7515 103.232 23.8425 103.122 23.8425ZM100.045 23.8425H98.5071C98.3956 23.8425 98.3058 23.7527 98.3058 23.6412C98.3058 23.5297 98.3956 23.4399 98.5071 23.4399H100.045C100.157 23.4399 100.247 23.5297 100.247 23.6412C100.247 23.7515 100.156 23.8425 100.045 23.8425ZM96.9687 23.8425H95.4304C95.3189 23.8425 95.2291 23.7527 95.2291 23.6412C95.2291 23.5297 95.3189 23.4399 95.4304 23.4399H96.9687C97.0803 23.4399 97.17 23.5297 97.17 23.6412C97.17 23.7515 97.079 23.8425 96.9687 23.8425ZM93.892 23.8425H92.3537C92.2422 23.8425 92.1524 23.7527 92.1524 23.6412C92.1524 23.5297 92.2422 23.4399 92.3537 23.4399H93.892C94.0036 23.4399 94.0933 23.5297 94.0933 23.6412C94.0933 23.7515 94.0023 23.8425 93.892 23.8425ZM90.8153 23.8425H89.277C89.1654 23.8425 89.0757 23.7527 89.0757 23.6412C89.0757 23.5297 89.1654 23.4399 89.277 23.4399H90.8153C90.9269 23.4399 91.0166 23.5297 91.0166 23.6412C91.0166 23.7515 90.9256 23.8425 90.8153 23.8425ZM87.7386 23.8425H86.2003C86.0887 23.8425 85.999 23.7527 85.999 23.6412C85.999 23.5297 86.0887 23.4399 86.2003 23.4399H87.7386C87.8502 23.4399 87.9399 23.5297 87.9399 23.6412C87.9399 23.7515 87.8489 23.8425 87.7386 23.8425ZM84.6619 23.8425H83.1236C83.012 23.8425 82.9223 23.7527 82.9223 23.6412C82.9223 23.5297 83.012 23.4399 83.1236 23.4399H84.6619C84.7734 23.4399 84.8632 23.5297 84.8632 23.6412C84.8632 23.7515 84.7722 23.8425 84.6619 23.8425ZM81.5852 23.8425H80.0469C79.9353 23.8425 79.8456 23.7527 79.8456 23.6412C79.8456 23.5297 79.9353 23.4399 80.0469 23.4399H81.5852C81.6967 23.4399 81.7865 23.5297 81.7865 23.6412C81.7865 23.7515 81.6955 23.8425 81.5852 23.8425ZM78.5085 23.8425H76.9701C76.8586 23.8425 76.7689 23.7527 76.7689 23.6412C76.7689 23.5297 76.8586 23.4399 76.9701 23.4399H78.5085C78.62 23.4399 78.7098 23.5297 78.7098 23.6412C78.7098 23.7515 78.6187 23.8425 78.5085 23.8425ZM75.4318 23.8425H73.8934C73.7819 23.8425 73.6922 23.7527 73.6922 23.6412C73.6922 23.5297 73.7819 23.4399 73.8934 23.4399H75.4318C75.5433 23.4399 75.6331 23.5297 75.6331 23.6412C75.6331 23.7515 75.542 23.8425 75.4318 23.8425ZM72.3551 23.8425H70.8167C70.7052 23.8425 70.6155 23.7527 70.6155 23.6412C70.6155 23.5297 70.7052 23.4399 70.8167 23.4399H72.3551C72.4666 23.4399 72.5563 23.5297 72.5563 23.6412C72.5563 23.7515 72.4653 23.8425 72.3551 23.8425ZM69.2784 23.8425H67.74C67.6285 23.8425 67.5387 23.7527 67.5387 23.6412C67.5387 23.5297 67.6285 23.4399 67.74 23.4399H69.2784C69.3899 23.4399 69.4796 23.5297 69.4796 23.6412C69.4796 23.7515 69.3886 23.8425 69.2784 23.8425ZM66.2017 23.8425H64.6633C64.5518 23.8425 64.462 23.7527 64.462 23.6412C64.462 23.5297 64.5518 23.4399 64.6633 23.4399H66.2017C66.3132 23.4399 66.4029 23.5297 66.4029 23.6412C66.4029 23.7515 66.3119 23.8425 66.2017 23.8425ZM63.125 23.8425H61.5866C61.4751 23.8425 61.3853 23.7527 61.3853 23.6412C61.3853 23.5297 61.4751 23.4399 61.5866 23.4399H63.125C63.2365 23.4399 63.3262 23.5297 63.3262 23.6412C63.3262 23.7515 63.2352 23.8425 63.125 23.8425ZM60.0482 23.8425H58.5099C58.3984 23.8425 58.3086 23.7527 58.3086 23.6412C58.3086 23.5297 58.3984 23.4399 58.5099 23.4399H60.0482C60.1598 23.4399 60.2495 23.5297 60.2495 23.6412C60.2495 23.7515 60.1585 23.8425 60.0482 23.8425ZM56.9715 23.8425H55.4332C55.3217 23.8425 55.2319 23.7527 55.2319 23.6412C55.2319 23.5297 55.3217 23.4399 55.4332 23.4399H56.9715C57.0831 23.4399 57.1728 23.5297 57.1728 23.6412C57.1728 23.7515 57.0818 23.8425 56.9715 23.8425ZM53.8948 23.8425H52.3565C52.2449 23.8425 52.1552 23.7527 52.1552 23.6412C52.1552 23.5297 52.2449 23.4399 52.3565 23.4399H53.8948C54.0064 23.4399 54.0961 23.5297 54.0961 23.6412C54.0961 23.7515 54.0051 23.8425 53.8948 23.8425ZM50.8181 23.8425H49.2798C49.1682 23.8425 49.0785 23.7527 49.0785 23.6412C49.0785 23.5297 49.1682 23.4399 49.2798 23.4399H50.8181C50.9297 23.4399 51.0194 23.5297 51.0194 23.6412C51.0194 23.7515 50.9284 23.8425 50.8181 23.8425Z" fill="#102A54"/>
<path d="M51.1215 26.9744C52.6749 25.421 52.6749 22.9023 51.1215 21.3488C49.568 19.7954 47.0494 19.7954 45.4959 21.3488C43.9424 22.9023 43.9424 25.421 45.4959 26.9744C47.0494 28.5279 49.568 28.5279 51.1215 26.9744Z" fill="#40C9C6"/>
<path d="M300.026 33.5674C299.914 33.5674 299.825 33.4777 299.825 33.3662V31.8278C299.825 31.7163 299.914 31.6265 300.026 31.6265C300.137 31.6265 300.227 31.7163 300.227 31.8278V33.3662C300.227 33.4764 300.137 33.5674 300.026 33.5674ZM300.026 30.4907C299.914 30.4907 299.825 30.401 299.825 30.2895V28.7511C299.825 28.6396 299.914 28.5498 300.026 28.5498C300.137 28.5498 300.227 28.6396 300.227 28.7511V30.2895C300.227 30.3997 300.137 30.4907 300.026 30.4907ZM300.026 27.414C299.914 27.414 299.825 27.3243 299.825 27.2128V25.6744C299.825 25.5629 299.914 25.4731 300.026 25.4731C300.137 25.4731 300.227 25.5629 300.227 25.6744V27.2128C300.227 27.323 300.137 27.414 300.026 27.414ZM300.026 24.3373C299.914 24.3373 299.825 24.2476 299.825 24.136V23.8425H298.982C298.871 23.8425 298.781 23.7527 298.781 23.6412C298.781 23.5297 298.871 23.4399 298.982 23.4399H300.227V24.136C300.227 24.2463 300.137 24.3373 300.026 24.3373ZM297.444 23.8425H295.906C295.794 23.8425 295.704 23.7527 295.704 23.6412C295.704 23.5297 295.794 23.4399 295.906 23.4399H297.444C297.555 23.4399 297.645 23.5297 297.645 23.6412C297.645 23.7515 297.555 23.8425 297.444 23.8425ZM294.367 23.8425H292.829C292.717 23.8425 292.628 23.7527 292.628 23.6412C292.628 23.5297 292.717 23.4399 292.829 23.4399H294.367C294.479 23.4399 294.568 23.5297 294.568 23.6412C294.568 23.7515 294.479 23.8425 294.367 23.8425ZM291.291 23.8425H289.752C289.641 23.8425 289.551 23.7527 289.551 23.6412C289.551 23.5297 289.641 23.4399 289.752 23.4399H291.291C291.402 23.4399 291.492 23.5297 291.492 23.6412C291.492 23.7515 291.402 23.8425 291.291 23.8425ZM288.214 23.8425H286.675C286.564 23.8425 286.474 23.7527 286.474 23.6412C286.474 23.5297 286.564 23.4399 286.675 23.4399H288.214C288.325 23.4399 288.415 23.5297 288.415 23.6412C288.415 23.7515 288.325 23.8425 288.214 23.8425ZM285.137 23.8425H283.599C283.487 23.8425 283.397 23.7527 283.397 23.6412C283.397 23.5297 283.487 23.4399 283.599 23.4399H285.137C285.249 23.4399 285.338 23.5297 285.338 23.6412C285.338 23.7515 285.249 23.8425 285.137 23.8425ZM282.06 23.8425H280.522C280.411 23.8425 280.321 23.7527 280.321 23.6412C280.321 23.5297 280.411 23.4399 280.522 23.4399H282.06C282.172 23.4399 282.262 23.5297 282.262 23.6412C282.262 23.7515 282.172 23.8425 282.06 23.8425ZM278.984 23.8425H277.445C277.334 23.8425 277.244 23.7527 277.244 23.6412C277.244 23.5297 277.334 23.4399 277.445 23.4399H278.984C279.095 23.4399 279.185 23.5297 279.185 23.6412C279.185 23.7515 279.095 23.8425 278.984 23.8425ZM275.907 23.8425H274.369C274.257 23.8425 274.167 23.7527 274.167 23.6412C274.167 23.5297 274.257 23.4399 274.369 23.4399H275.907C276.019 23.4399 276.108 23.5297 276.108 23.6412C276.108 23.7515 276.019 23.8425 275.907 23.8425ZM272.83 23.8425H271.292C271.18 23.8425 271.091 23.7527 271.091 23.6412C271.091 23.5297 271.18 23.4399 271.292 23.4399H272.83C272.942 23.4399 273.032 23.5297 273.032 23.6412C273.032 23.7515 272.942 23.8425 272.83 23.8425ZM269.754 23.8425H268.215C268.104 23.8425 268.014 23.7527 268.014 23.6412C268.014 23.5297 268.104 23.4399 268.215 23.4399H269.754C269.865 23.4399 269.955 23.5297 269.955 23.6412C269.955 23.7515 269.865 23.8425 269.754 23.8425ZM266.677 23.8425H265.139C265.027 23.8425 264.937 23.7527 264.937 23.6412C264.937 23.5297 265.027 23.4399 265.139 23.4399H266.677C266.788 23.4399 266.878 23.5297 266.878 23.6412C266.878 23.7515 266.788 23.8425 266.677 23.8425ZM263.6 23.8425H262.062C261.95 23.8425 261.861 23.7527 261.861 23.6412C261.861 23.5297 261.95 23.4399 262.062 23.4399H263.6C263.712 23.4399 263.801 23.5297 263.801 23.6412C263.801 23.7515 263.712 23.8425 263.6 23.8425ZM260.523 23.8425H258.985C258.874 23.8425 258.784 23.7527 258.784 23.6412C258.784 23.5297 258.874 23.4399 258.985 23.4399H260.523C260.635 23.4399 260.725 23.5297 260.725 23.6412C260.725 23.7515 260.635 23.8425 260.523 23.8425ZM257.447 23.8425H255.908C255.797 23.8425 255.707 23.7527 255.707 23.6412C255.707 23.5297 255.797 23.4399 255.908 23.4399H257.447C257.558 23.4399 257.648 23.5297 257.648 23.6412C257.648 23.7515 257.558 23.8425 257.447 23.8425ZM254.37 23.8425H252.832C252.72 23.8425 252.63 23.7527 252.63 23.6412C252.63 23.5297 252.72 23.4399 252.832 23.4399H254.37C254.482 23.4399 254.571 23.5297 254.571 23.6412C254.571 23.7515 254.482 23.8425 254.37 23.8425ZM251.293 23.8425H249.755C249.643 23.8425 249.554 23.7527 249.554 23.6412C249.554 23.5297 249.643 23.4399 249.755 23.4399H251.293C251.405 23.4399 251.495 23.5297 251.495 23.6412C251.495 23.7515 251.405 23.8425 251.293 23.8425Z" fill="#102A54"/>
<path d="M302.836 26.4559C304.39 24.9024 304.39 22.3837 302.836 20.8303C301.283 19.2768 298.764 19.2768 297.211 20.8303C295.657 22.3837 295.657 24.9024 297.211 26.4559C298.764 28.0093 301.283 28.0093 302.836 26.4559Z" fill="#40C9C6"/>
<path d="M364.828 193.605H318.09C316.452 193.605 315.124 192.277 315.124 190.639V150.331C315.124 148.693 316.452 147.365 318.09 147.365H364.828C366.467 147.365 367.795 148.693 367.795 150.331V190.637C367.796 192.276 366.467 193.605 364.828 193.605Z" fill="white"/>
<path d="M364.233 192.882H317.495C315.75 192.882 314.331 191.463 314.331 189.718V149.412C314.331 147.667 315.75 146.248 317.495 146.248H364.233C365.977 146.248 367.397 147.667 367.397 149.412V189.718C367.397 191.463 365.977 192.882 364.233 192.882ZM317.494 146.642C315.966 146.642 314.723 147.884 314.723 149.412V189.718C314.723 191.246 315.966 192.488 317.494 192.488H364.231C365.76 192.488 367.002 191.246 367.002 189.718V149.412C367.002 147.884 365.76 146.642 364.231 146.642H317.494Z" fill="#102A54"/>
<path d="M367.199 152.859H314.527C314.418 152.859 314.33 152.77 314.33 152.662C314.33 152.553 314.418 152.464 314.527 152.464H367.199C367.308 152.464 367.396 152.553 367.396 152.662C367.396 152.77 367.308 152.859 367.199 152.859Z" fill="#102A54"/>
<path d="M319.324 150.973C320.045 150.973 320.629 150.389 320.629 149.668C320.629 148.948 320.045 148.363 319.324 148.363C318.603 148.363 318.019 148.948 318.019 149.668C318.019 150.389 318.603 150.973 319.324 150.973Z" fill="#102A54"/>
<path d="M324.044 150.973C324.765 150.973 325.349 150.389 325.349 149.668C325.349 148.948 324.765 148.363 324.044 148.363C323.324 148.363 322.739 148.948 322.739 149.668C322.739 150.389 323.324 150.973 324.044 150.973Z" fill="#80C0FF"/>
<path d="M328.765 150.973C329.486 150.973 330.071 150.389 330.071 149.668C330.071 148.948 329.486 148.363 328.765 148.363C328.045 148.363 327.46 148.948 327.46 149.668C327.46 150.389 328.045 150.973 328.765 150.973Z" fill="#80C0FF"/>
<path d="M331.5 162.5C325.278 162.5 322 167.298 322 172C322 176.703 325.278 181.5 331.5 181.5C335.253 181.5 338.245 178.84 341 175.705C343.755 178.84 346.653 181.5 350.5 181.5C356.722 181.5 360 176.703 360 172C360 167.298 356.722 162.5 350.5 162.5C346.653 162.5 343.755 165.16 341 168.295C338.245 165.16 335.253 162.5 331.5 162.5ZM331.5 167.25C333.495 167.25 335.68 169.483 337.865 172C335.68 174.517 333.495 176.75 331.5 176.75C327.985 176.75 326.75 174.185 326.75 172C326.75 169.815 327.985 167.25 331.5 167.25ZM350.5 167.25C354.015 167.25 355.25 169.815 355.25 172C355.25 174.185 354.015 176.75 350.5 176.75C348.458 176.75 346.272 174.517 344.135 172C346.32 169.483 348.458 167.25 350.5 167.25Z" fill="#1890FF"/>
<path d="M314.853 184.255H313.315C313.203 184.255 313.114 184.166 313.114 184.054C313.114 183.943 313.203 183.853 313.315 183.853H314.853C314.965 183.853 315.054 183.943 315.054 184.054C315.054 184.166 314.965 184.255 314.853 184.255ZM311.776 184.255H310.238C310.127 184.255 310.037 184.166 310.037 184.054C310.037 183.943 310.127 183.853 310.238 183.853H311.776C311.888 183.853 311.978 183.943 311.978 184.054C311.978 184.166 311.888 184.255 311.776 184.255ZM308.7 184.255H307.161C307.05 184.255 306.96 184.166 306.96 184.054C306.96 183.943 307.05 183.853 307.161 183.853H308.7C308.811 183.853 308.901 183.943 308.901 184.054C308.901 184.166 308.811 184.255 308.7 184.255ZM305.623 184.255H304.085C303.973 184.255 303.883 184.166 303.883 184.054C303.883 183.943 303.973 183.853 304.085 183.853H305.623C305.735 183.853 305.824 183.943 305.824 184.054C305.824 184.166 305.735 184.255 305.623 184.255ZM302.546 184.255H301.008C300.896 184.255 300.807 184.166 300.807 184.054C300.807 183.943 300.896 183.853 301.008 183.853H302.546C302.658 183.853 302.748 183.943 302.748 184.054C302.748 184.166 302.658 184.255 302.546 184.255ZM299.47 184.255H297.931C297.82 184.255 297.73 184.166 297.73 184.054C297.73 183.943 297.82 183.853 297.931 183.853H299.47C299.581 183.853 299.671 183.943 299.671 184.054C299.671 184.166 299.581 184.255 299.47 184.255ZM296.393 184.255H294.855C294.743 184.255 294.653 184.166 294.653 184.054C294.653 183.943 294.743 183.853 294.855 183.853H296.393C296.504 183.853 296.594 183.943 296.594 184.054C296.594 184.166 296.504 184.255 296.393 184.255ZM293.316 184.255H291.778C291.666 184.255 291.577 184.166 291.577 184.054C291.577 183.943 291.666 183.853 291.778 183.853H293.316C293.428 183.853 293.517 183.943 293.517 184.054C293.517 184.166 293.428 184.255 293.316 184.255ZM290.24 184.255H288.701C288.59 184.255 288.5 184.166 288.5 184.054C288.5 183.943 288.59 183.853 288.701 183.853H290.24C290.351 183.853 290.441 183.943 290.441 184.054C290.441 184.166 290.351 184.255 290.24 184.255ZM287.163 184.255H285.624C285.513 184.255 285.423 184.166 285.423 184.054C285.423 183.943 285.513 183.853 285.624 183.853H287.163C287.274 183.853 287.364 183.943 287.364 184.054C287.364 184.166 287.274 184.255 287.163 184.255ZM284.086 184.255H282.548C282.436 184.255 282.346 184.166 282.346 184.054C282.346 183.943 282.436 183.853 282.548 183.853H284.086C284.198 183.853 284.287 183.943 284.287 184.054C284.287 184.166 284.198 184.255 284.086 184.255ZM281.009 184.255H279.471C279.36 184.255 279.27 184.166 279.27 184.054C279.27 183.943 279.36 183.853 279.471 183.853H281.009C281.121 183.853 281.211 183.943 281.211 184.054C281.211 184.166 281.121 184.255 281.009 184.255ZM277.933 184.255H276.394C276.283 184.255 276.193 184.166 276.193 184.054C276.193 183.943 276.283 183.853 276.394 183.853H277.933C278.044 183.853 278.134 183.943 278.134 184.054C278.134 184.166 278.044 184.255 277.933 184.255ZM274.856 184.255H273.318C273.206 184.255 273.116 184.166 273.116 184.054C273.116 183.943 273.206 183.853 273.318 183.853H274.856C274.968 183.853 275.057 183.943 275.057 184.054C275.057 184.166 274.968 184.255 274.856 184.255ZM271.779 184.255H270.241C270.129 184.255 270.04 184.166 270.04 184.054C270.04 183.943 270.129 183.853 270.241 183.853H271.779C271.891 183.853 271.981 183.943 271.981 184.054C271.981 184.166 271.891 184.255 271.779 184.255ZM268.703 184.255H267.164C267.053 184.255 266.963 184.166 266.963 184.054C266.963 183.943 267.053 183.853 267.164 183.853H268.703C268.814 183.853 268.904 183.943 268.904 184.054C268.904 184.166 268.814 184.255 268.703 184.255ZM265.626 184.255H264.087C263.976 184.255 263.886 184.166 263.886 184.054C263.886 183.943 263.976 183.853 264.087 183.853H265.626C265.737 183.853 265.827 183.943 265.827 184.054C265.827 184.166 265.737 184.255 265.626 184.255ZM262.549 184.255H261.011C260.899 184.255 260.809 184.166 260.809 184.054C260.809 183.943 260.899 183.853 261.011 183.853H262.549C262.661 183.853 262.75 183.943 262.75 184.054C262.75 184.166 262.661 184.255 262.549 184.255ZM259.472 184.255H257.934C257.823 184.255 257.733 184.166 257.733 184.054C257.733 183.943 257.823 183.853 257.934 183.853H259.472C259.584 183.853 259.674 183.943 259.674 184.054C259.674 184.166 259.584 184.255 259.472 184.255ZM256.396 184.255H254.857C254.746 184.255 254.656 184.166 254.656 184.054C254.656 183.943 254.746 183.853 254.857 183.853H256.396C256.507 183.853 256.597 183.943 256.597 184.054C256.597 184.166 256.507 184.255 256.396 184.255ZM253.319 184.255H251.781C251.669 184.255 251.579 184.166 251.579 184.054C251.579 183.943 251.669 183.853 251.781 183.853H253.319C253.431 183.853 253.52 183.943 253.52 184.054C253.52 184.166 253.431 184.255 253.319 184.255ZM250.242 184.255H248.704C248.592 184.255 248.503 184.166 248.503 184.054C248.503 183.943 248.592 183.853 248.704 183.853H250.242C250.354 183.853 250.444 183.943 250.444 184.054C250.444 184.166 250.354 184.255 250.242 184.255ZM247.166 184.255H245.627C245.516 184.255 245.426 184.166 245.426 184.054C245.426 183.943 245.516 183.853 245.627 183.853H247.166C247.277 183.853 247.367 183.943 247.367 184.054C247.367 184.166 247.277 184.255 247.166 184.255ZM244.089 184.255H242.551C242.439 184.255 242.349 184.166 242.349 184.054C242.349 183.943 242.439 183.853 242.551 183.853H244.089C244.2 183.853 244.29 183.943 244.29 184.054C244.29 184.166 244.2 184.255 244.089 184.255ZM241.012 184.255H239.474C239.362 184.255 239.273 184.166 239.273 184.054C239.273 183.943 239.362 183.853 239.474 183.853H241.012C241.124 183.853 241.213 183.943 241.213 184.054C241.213 184.166 241.124 184.255 241.012 184.255ZM239.467 182.724C239.356 182.724 239.266 182.634 239.266 182.522V180.984C239.266 180.872 239.356 180.783 239.467 180.783C239.579 180.783 239.669 180.872 239.669 180.984V182.522C239.669 182.634 239.578 182.724 239.467 182.724ZM239.467 179.647C239.356 179.647 239.266 179.557 239.266 179.446V177.907C239.266 177.796 239.356 177.706 239.467 177.706C239.579 177.706 239.669 177.796 239.669 177.907V179.446C239.669 179.557 239.578 179.647 239.467 179.647ZM239.467 176.57C239.356 176.57 239.266 176.48 239.266 176.369V174.83C239.266 174.719 239.356 174.629 239.467 174.629C239.579 174.629 239.669 174.719 239.669 174.83V176.369C239.669 176.48 239.578 176.57 239.467 176.57ZM239.467 173.493C239.356 173.493 239.266 173.404 239.266 173.292V171.754C239.266 171.642 239.356 171.552 239.467 171.552C239.579 171.552 239.669 171.642 239.669 171.754V173.292C239.669 173.404 239.578 173.493 239.467 173.493Z" fill="#102A54"/>
<path d="M243.34 185.221C243.845 183.083 242.521 180.941 240.383 180.436C238.245 179.931 236.102 181.255 235.597 183.393C235.092 185.531 236.416 187.673 238.554 188.178C240.693 188.683 242.835 187.359 243.34 185.221Z" fill="#40C9C6"/>
<path d="M159.753 293.117V289.627C159.753 288.974 159.114 288.451 158.328 288.451L149.177 288.42L149.269 286.798C149.343 286.33 148.723 286.007 148.242 286.26L143.56 288.728C142.718 289.197 141.719 289.42 140.701 289.366L135.954 289.174C134.908 289.127 134.002 289.796 133.937 290.665L133.733 293.124H159.753V293.117Z" fill="black"/>
<path d="M122.892 293.117V289.627C122.892 288.974 122.271 288.451 121.515 288.451L112.614 288.42L112.704 286.798C112.776 286.33 112.174 286.007 111.706 286.26L107.152 288.728C106.333 289.197 105.361 289.42 104.371 289.366L99.7546 289.174C98.7377 289.127 97.8557 289.796 97.7927 290.665L97.5948 293.124H122.892V293.117Z" fill="black"/>
<path d="M110.455 288.006C110.011 283.087 100.676 186.91 100.676 186.91L100.613 186.201L100.54 185.387C100.504 185.045 100.486 184.704 100.486 184.354C100.486 178.192 105.67 173.185 112.05 173.185C118.421 173.185 123.605 178.192 123.614 184.345C123.614 184.345 123.143 284.443 123.197 288.225C123.252 292.015 110.908 292.925 110.455 288.006Z" fill="#304156"/>
<path d="M146.357 289.073C144.762 283.038 122.846 188.464 122.846 188.464L122.447 186.732C122.262 185.928 122.169 185.123 122.169 184.345C122.169 178.188 127.476 173.185 134.008 173.185C139.965 173.185 145.003 177.383 145.745 182.945L145.884 183.899C157.436 266.264 159.431 285.898 159.746 289.414C160.089 293.279 147.462 293.235 146.357 289.073Z" fill="#304156"/>
<path d="M51.1393 132.244L47.8231 129.211L41.9293 121.726C41.5828 121.286 40.9357 121.235 40.5253 121.614C39.954 122.142 39.7392 122.953 39.9741 123.695L41.8104 129.473L30.0987 126.826C29.5356 126.698 29 127.126 29 127.703V128.155C29 131.723 30.7504 135.063 33.6836 137.094L34.4139 137.599C35.8682 138.606 37.5948 139.145 39.3635 139.145H45.4054L47.2399 140.392L51.1393 132.244Z" fill="#FFC0B1"/>
<path d="M44.1858 136.836C44.1337 136.836 44.0816 136.82 44.0368 136.786C42.7014 135.768 41.8504 134.171 41.5771 132.168C41.3724 130.669 41.5588 129.484 41.5661 129.434C41.5881 129.3 41.7142 129.209 41.8486 129.231C41.983 129.252 42.0744 129.379 42.0533 129.513C42.046 129.559 41.355 134.123 44.3357 136.395C44.4436 136.477 44.4646 136.632 44.3823 136.74C44.3339 136.803 44.2599 136.836 44.1858 136.836Z" fill="#102A54"/>
<path d="M38.8407 131.6C38.8242 131.6 38.8069 131.598 38.7904 131.594C38.7666 131.59 36.3819 131.095 34.0282 130.601C32.6452 130.31 31.5429 130.075 30.7513 129.904C30.2806 129.802 29.9168 129.721 29.6682 129.665C29.1636 129.549 29.0859 129.531 29.0667 129.345C29.053 129.21 29.1508 129.088 29.2861 129.074C29.3327 129.07 29.3784 129.078 29.4177 129.097C29.8235 129.22 35.2795 130.364 38.89 131.112C39.0235 131.139 39.1094 131.27 39.0811 131.403C39.0582 131.519 38.9549 131.6 38.8407 131.6ZM29.5566 129.289C29.5566 129.289 29.5566 129.29 29.5566 129.289C29.5566 129.29 29.5566 129.289 29.5566 129.289Z" fill="#102A54"/>
<path d="M39.4149 133.979C39.4012 133.979 39.3866 133.978 39.3729 133.975C39.3491 133.972 36.9305 133.556 34.5412 133.139C33.1381 132.894 32.0193 132.696 31.2159 132.55C30.7387 132.464 30.3686 132.396 30.1163 132.346C29.6135 132.25 29.5359 132.234 29.502 132.059C29.4764 131.926 29.5633 131.796 29.6967 131.771C29.7479 131.761 29.7973 131.767 29.8411 131.786C30.2488 131.894 35.7889 132.859 39.4551 133.488C39.5895 133.511 39.6791 133.639 39.6562 133.772C39.637 133.895 39.5328 133.979 39.4149 133.979ZM29.9508 131.878C29.9673 131.904 29.9801 131.933 29.9865 131.965C29.9792 131.931 29.9664 131.902 29.9508 131.878Z" fill="#102A54"/>
<path d="M38.9801 136.575C38.971 136.574 38.9399 136.569 38.8897 136.564C38.6502 136.542 38.1986 136.464 37.2937 136.311C36.2032 136.125 34.2847 135.779 31.3332 135.187C31.1997 135.161 31.1129 135.031 31.1403 134.898C31.1668 134.764 31.2975 134.677 31.4301 134.705C37.1338 135.848 39.0268 136.086 39.0423 136.088V136.09C39.1556 136.11 39.2077 136.143 39.248 136.241C39.2818 136.325 39.2672 136.421 39.2096 136.491C39.1639 136.547 39.1374 136.579 38.9811 136.572L38.9801 136.575Z" fill="#102A54"/>
<path d="M190.618 114.835L163.367 137.709L141.826 116.837C139.453 113.793 135.753 111.836 131.596 111.836H106.686C104.895 111.836 103.19 112.199 101.638 112.856C98.5039 114.183 97.0609 115.88 95.3424 118.687L81.4405 143.565L50.9878 130.92L45.8799 141.6L75.3465 160.172C77.6665 161.634 80.3519 162.409 83.094 162.409C87.5509 162.409 91.7616 160.363 94.5175 156.859L99.6776 148.892L102.766 181.318H144.302L144.456 148.244L153.856 154.81C156.881 156.923 160.588 157.825 164.245 157.338C167.831 156.859 171.115 155.079 173.474 152.335L198.906 122.054L190.618 114.835Z" fill="#1890FF"/>
<path d="M120.148 118.54C117.276 119.572 114.132 117.939 113.326 114.996L108.493 97.3583L115.459 94.8547L123.128 111.411C124.42 114.202 123.042 117.499 120.148 118.54Z" fill="#FFC0B1"/>
<path d="M100.545 81.2491L122.582 73.3289L122.889 74.7621C123.952 79.7163 125.467 84.5662 127.493 89.2096C128.463 91.4317 129.274 94.2012 128.927 96.8026C128.245 101.905 123.751 105.695 118.623 105.252C113.453 104.805 104.29 100.877 100.545 81.2491Z" fill="#FFC0B1"/>
<path d="M121.149 93.2963C121.047 93.2963 120.953 93.2332 120.916 93.1327C120.871 93.0047 120.937 92.8631 121.065 92.8173L123.1 92.0861C123.276 92.023 123.409 91.8841 123.465 91.7059C123.521 91.5276 123.491 91.3375 123.384 91.1849L119.327 85.4455C119.248 85.334 119.275 85.1805 119.386 85.1018C119.498 85.0232 119.651 85.0497 119.73 85.1613L123.787 90.9006C123.984 91.1803 124.038 91.5276 123.936 91.8539C123.832 92.1803 123.589 92.4334 123.267 92.5495L121.233 93.2808C121.204 93.2917 121.176 93.2963 121.149 93.2963Z" fill="#102A54"/>
<path d="M116.231 88.4911C116.871 88.3429 117.27 87.7041 117.121 87.0643C116.973 86.4245 116.334 86.0259 115.695 86.1741C115.055 86.3223 114.656 86.9611 114.804 87.6009C114.953 88.2407 115.591 88.6393 116.231 88.4911Z" fill="#102A54"/>
<path d="M124.987 83.8414C125.209 84.4593 124.888 85.1403 124.27 85.3624C123.652 85.5846 122.971 85.2637 122.749 84.6458C122.527 84.0279 122.848 83.3469 123.466 83.1248C124.084 82.9018 124.765 83.2226 124.987 83.8414Z" fill="#102A54"/>
<path d="M123.299 98.2998C122.304 98.2998 121.13 98.0978 120.306 97.3172C119.693 96.7377 119.569 96.1134 119.563 96.0878L119.521 95.8639L125.486 94.2305C125.617 94.1939 125.753 94.2716 125.788 94.4032C125.824 94.5349 125.747 94.6701 125.615 94.7058L120.116 96.2112C120.329 96.7322 121.126 97.9891 123.849 97.7852C123.985 97.7761 124.103 97.8766 124.113 98.0128C124.123 98.149 124.021 98.2669 123.885 98.277C123.701 98.2916 123.504 98.2998 123.299 98.2998Z" fill="#102A54"/>
<path d="M120.295 105.534C119.583 105.534 116.498 105.438 113.753 103.862C113.635 103.794 113.594 103.644 113.661 103.526C113.729 103.408 113.88 103.367 113.998 103.434C116.933 105.119 120.393 105.04 120.427 105.038C120.564 105.037 120.677 105.142 120.68 105.278C120.684 105.414 120.577 105.527 120.441 105.531C120.427 105.532 120.377 105.534 120.295 105.534Z" fill="#102A54"/>
<path d="M104.717 83.5062C104.717 83.5062 107.82 91.1458 106.409 93.0324C104.998 94.919 103.541 92.7902 103.541 92.7902C103.541 92.7902 98.0688 85.8014 101.658 82.53C103.857 80.5245 104.717 83.5062 104.717 83.5062Z" fill="#102A54"/>
<path d="M105.586 96.6952C106.947 96.2064 107.468 94.1938 106.752 92.1998C106.035 90.2059 104.352 88.9858 102.992 89.4746C101.631 89.9634 101.11 91.976 101.826 93.9699C102.543 95.9639 104.226 97.184 105.586 96.6952Z" fill="#FFC0B1"/>
<path d="M106.161 96.5991C106.075 96.5991 105.992 96.5543 105.946 96.4738C105.88 96.3559 105.921 96.206 106.039 96.1384C106.089 96.1091 107.205 95.4318 106.808 93.5516C106.78 93.4182 106.865 93.2874 106.999 93.2591C107.131 93.2308 107.263 93.3158 107.291 93.4492C107.766 95.6987 106.343 96.5314 106.283 96.5662C106.244 96.589 106.202 96.5991 106.161 96.5991Z" fill="#102A54"/>
<path d="M104.402 86.0837C104.402 86.0837 110.382 86.9621 111.249 81.9796C111.249 81.9796 116.347 83.2072 117.95 79.4522C117.95 79.4522 126.917 83.2794 127.423 74.6864C127.928 66.0934 121.718 63.9993 121.718 63.9993C121.718 63.9993 122.585 67.3931 120.924 67.9708C119.263 68.5485 112.042 66.31 102.51 73.3144C92.9795 80.3188 100.877 85.9996 104.402 86.0837Z" fill="#102A54"/>
<path d="M112.067 86.9667C111.944 86.9667 111.822 86.9301 111.714 86.8543C111.438 86.6596 111.371 86.2766 111.567 86.0005C113.365 83.4531 117.002 83.4238 117.156 83.4238C117.495 83.4238 117.769 83.698 117.769 84.0362C117.769 84.3744 117.495 84.6487 117.157 84.6487C117.126 84.6487 113.996 84.6825 112.568 86.7062C112.448 86.8762 112.259 86.9667 112.067 86.9667Z" fill="#102A54"/>
<path d="M120.134 83.8973C120.012 83.8973 119.888 83.8608 119.781 83.7849C119.505 83.5902 119.439 83.2072 119.634 82.9312C121.432 80.3837 125.069 80.3545 125.224 80.3545C125.562 80.3545 125.836 80.6287 125.836 80.9669C125.836 81.3051 125.562 81.5793 125.224 81.5793C125.176 81.5793 122.059 81.6186 120.635 83.6368C120.515 83.8078 120.326 83.8973 120.134 83.8973Z" fill="#102A54"/>
<path d="M112.509 112.015L118.439 118.85L111.767 122.207L109.861 112.015H112.509Z" fill="white"/>
<path d="M118.439 118.85L124.198 122.207L126.197 112.015H123.234L118.439 118.85Z" fill="white"/>
<path d="M118.439 118.85L116.054 120.05L118.439 158.237L122.318 163.574L126.197 157.597L120.276 119.92L118.439 118.85Z" fill="#304156"/>
<path d="M191.983 116.281L193.877 112.134C194.49 110.791 195.451 109.634 196.659 108.784L202.542 104.646L203.064 107.728L200.421 111.23L203.721 115.619L197.428 121.019L191.983 116.281Z" fill="#FFC0B1"/>
<path d="M198.794 116.976C198.723 116.976 198.651 116.965 198.581 116.942C198.216 116.824 198.015 116.433 198.133 116.068L212.44 71.6652C212.558 71.3005 212.949 71.0994 213.313 71.2173C213.678 71.3352 213.879 71.7265 213.761 72.0912L199.455 116.494C199.36 116.788 199.087 116.976 198.794 116.976Z" fill="#102A54"/>
<path d="M198.385 110.305L202.497 104.064C202.749 103.68 203.263 103.57 203.651 103.816L205.575 105.038C206.461 105.601 206.947 106.622 206.824 107.665L206.439 111.864C206.35 112.842 205.886 113.746 205.144 114.388L203.721 115.62L199.496 112.833L198.385 110.305Z" fill="#FFC0B1"/>
<path d="M200.824 116.061C200.766 116.061 200.707 116.041 200.661 115.998C200.559 115.908 200.55 115.752 200.641 115.65L201.92 114.212C201.969 114.158 201.961 114.096 201.956 114.073C201.95 114.049 201.93 113.991 201.864 113.964C201.448 113.793 200.751 113.497 199.802 113.056C199.039 112.702 198.51 112.017 198.271 111.074C198.096 110.379 198.139 109.789 198.141 109.765C198.152 109.628 198.271 109.529 198.406 109.538C198.541 109.549 198.642 109.667 198.632 109.802C198.631 109.823 198.494 111.904 200.009 112.608C200.951 113.045 201.64 113.339 202.051 113.507C202.246 113.586 202.39 113.756 202.437 113.961C202.484 114.166 202.428 114.382 202.289 114.54L201.009 115.977C200.96 116.033 200.892 116.061 200.824 116.061Z" fill="#102A54"/>
<path d="M204.507 111.144C204.468 111.144 204.428 111.135 204.392 111.115L199.454 108.498C199.333 108.434 199.288 108.285 199.352 108.164C199.416 108.044 199.565 107.998 199.685 108.062L204.623 110.679C204.744 110.743 204.789 110.892 204.725 111.012C204.681 111.097 204.595 111.144 204.507 111.144Z" fill="#102A54"/>
<path d="M205.663 108.624C205.621 108.624 205.58 108.614 205.543 108.593L201.34 106.241C201.221 106.174 201.179 106.024 201.245 105.906C201.312 105.787 201.462 105.744 201.58 105.811L205.783 108.162C205.902 108.229 205.944 108.379 205.878 108.498C205.833 108.578 205.749 108.624 205.663 108.624Z" fill="#102A54"/>
<path d="M197.498 115.213C197.452 115.213 197.406 115.201 197.365 115.174C197.251 115.101 197.217 114.948 197.29 114.833L198.985 112.189C199.058 112.075 199.211 112.041 199.326 112.114C199.44 112.187 199.474 112.34 199.401 112.455L197.706 115.099C197.658 115.173 197.579 115.213 197.498 115.213Z" fill="#102A54"/>
<path d="M51.119 131.052L46.0195 141.706L52.3283 143.237L54.4855 132.449L51.119 131.052Z" fill="white"/>
<path d="M53.1909 133.7C53.2721 133.223 52.9512 132.77 52.4739 132.689C51.9967 132.607 51.5439 132.928 51.4626 133.406C51.3813 133.883 51.7023 134.336 52.1796 134.417C52.6568 134.498 53.1096 134.177 53.1909 133.7Z" fill="#102A54"/>
<path d="M51.4523 137.06C51.9364 137.06 52.3288 136.668 52.3288 136.184C52.3288 135.7 51.9364 135.307 51.4523 135.307C50.9681 135.307 50.5757 135.7 50.5757 136.184C50.5757 136.668 50.9681 137.06 51.4523 137.06Z" fill="#102A54"/>
<path d="M190.518 115.007L198.793 122.207L192.784 125.002L188.01 117.111L190.518 115.007Z" fill="white"/>
<path d="M191.608 120.278C191.199 120.019 191.077 119.478 191.335 119.069C191.594 118.66 192.135 118.538 192.543 118.796C192.953 119.055 193.074 119.596 192.817 120.004C192.558 120.414 192.017 120.536 191.608 120.278Z" fill="#102A54"/>
<path d="M189.856 118.136C189.447 117.877 189.325 117.336 189.583 116.928C189.842 116.518 190.383 116.396 190.791 116.654C191.201 116.913 191.322 117.454 191.065 117.863C190.806 118.272 190.265 118.394 189.856 118.136Z" fill="#102A54"/>
</svg>