<svg width="75" height="82" viewBox="0 0 75 82" fill="none" xmlns="http://www.w3.org/2000/svg">
<path d="M28.4576 41.3535C27.9618 40.8438 27.9738 40.0289 28.4828 39.5331C28.9924 39.0374 29.8074 39.0487 30.3031 39.5583L34.6553 44.0412L44.6809 33.4329C45.1687 32.9146 45.9836 32.8901 46.5012 33.3779C47.0189 33.8656 47.0441 34.6799 46.557 35.1982L35.6056 46.7854C35.5923 46.7986 35.5791 46.8126 35.5658 46.8258C35.0561 47.3216 34.2412 47.3103 33.7454 46.8006L28.4576 41.3535ZM29.2871 67.7298C28.5319 67.7464 27.8676 67.1949 27.7614 66.4284C27.6506 65.6314 28.1861 64.8934 28.9672 64.7414C28.1018 59.8518 25.7479 57.1567 23.2593 54.309C21.3221 52.0918 19.3106 49.7897 17.7252 46.3991C16.163 43.0584 15.3076 39.6101 15.3387 36.0278C15.3693 32.4441 16.2844 28.7536 18.2607 24.9357C18.2734 24.9118 18.2866 24.8879 18.2999 24.8647H18.2992C20.8954 20.4714 24.5222 17.5395 28.5644 15.8896C31.9563 14.5053 35.6401 14.0328 39.2497 14.3633C42.8479 14.6931 46.3698 15.8213 49.4465 17.6403C53.3653 19.9564 56.5806 23.3928 58.3518 27.7316C59.3101 30.0802 59.9585 32.7043 60.0368 35.5732C60.1158 38.4348 59.6247 41.5187 58.3061 44.7838C56.5388 49.1579 54.2048 51.8728 52.0194 54.4152C50.0079 56.7559 48.1345 58.9366 47.0965 62.272C47.6845 62.4121 48.155 62.8992 48.2426 63.533C48.3574 64.3585 47.7807 65.1197 46.9558 65.2339L46.4462 65.3055C46.3526 66.0322 46.2922 66.8074 46.267 67.6382L46.4342 67.6143C47.2591 67.5002 48.021 68.0769 48.1351 68.9018C48.2493 69.7267 47.6732 70.4886 46.8483 70.6027L46.332 70.6757C46.3393 70.7753 46.3453 70.8755 46.3526 70.977L46.3532 70.9763C46.399 71.5603 46.4037 72.1238 46.3712 72.6653L46.4581 72.6547C47.2863 72.5538 48.0402 73.1425 48.1411 73.9713C48.242 74.7996 47.6527 75.5535 46.8244 75.6543L45.7082 75.791C44.9138 77.8563 43.4943 79.4251 41.8153 80.4C40.6619 81.0703 39.3817 81.4579 38.0923 81.5348C36.7829 81.6125 35.4656 81.3716 34.2584 80.7816C32.8754 80.1054 31.6417 78.9831 30.7458 77.3712C30.3138 77.1502 29.9959 76.7254 29.9322 76.2078C29.9076 76.0034 29.9242 75.8043 29.9766 75.6178C29.7178 74.8507 29.522 74.0045 29.3999 73.0781L29.3541 73.0847C28.5292 73.1989 27.7674 72.6228 27.6532 71.7973C27.5391 70.973 28.1151 70.2112 28.94 70.0964L29.2997 70.0459C29.3249 69.229 29.3196 68.4578 29.2871 67.7298ZM1.44745 39.0593C0.672984 39.0838 0.0252723 38.4753 0.000717691 37.7008C-0.023837 36.9263 0.58472 36.2786 1.35919 36.2541L7.13417 36.055C7.90864 36.0304 8.55635 36.639 8.58091 37.4135C8.60546 38.1879 7.9969 38.8356 7.22177 38.8602L1.44745 39.0593ZM73.4529 33.3487C74.2241 33.2697 74.9136 33.8318 74.9926 34.6029C75.0716 35.3741 74.5101 36.0643 73.7383 36.1426L67.9919 36.7485C67.2201 36.8275 66.5305 36.266 66.4522 35.4942C66.3733 34.7224 66.9347 34.0329 67.7065 33.9539L73.4529 33.3487ZM62.9847 9.81071C63.4161 9.16699 64.2881 8.99444 64.9325 9.4258C65.5762 9.85717 65.7481 10.7285 65.3174 11.3729L62.108 16.1783C61.6767 16.8221 60.8047 16.9946 60.1603 16.5632C59.5165 16.1319 59.3446 15.2599 59.7753 14.6161L62.9847 9.81071ZM38.2429 1.36989C38.2608 0.595423 38.9039 -0.0177795 39.6784 0.000138754C40.4528 0.0187206 41.066 0.661123 41.0475 1.43625L40.9015 7.21257C40.8835 7.98703 40.2405 8.60024 39.466 8.58232C38.6915 8.5644 38.0777 7.92133 38.0969 7.14687L38.2429 1.36989ZM9.21468 10.3051C8.64661 9.77687 8.61475 8.88759 9.14301 8.31952C9.67127 7.75144 10.5605 7.71959 11.1286 8.24851L15.3527 12.1912C15.9208 12.7194 15.9526 13.6087 15.4237 14.1768C14.8954 14.7449 14.0062 14.7767 13.4381 14.2485L9.21468 10.3051ZM31.7758 64.3399L44.0478 62.5979C45.1043 58.1508 47.4011 55.4777 49.8858 52.5869C51.9272 50.2124 54.1079 47.6753 55.6993 43.7366C56.866 40.8485 57.3006 38.1428 57.2329 35.6482C57.1646 33.1609 56.5925 30.8613 55.7457 28.7861C54.22 25.0485 51.4288 22.0754 48.0177 20.0593C45.2894 18.4466 42.1743 17.4472 38.9975 17.1565C35.8299 16.8665 32.5973 17.2813 29.6216 18.4964C26.1308 19.9213 22.9918 22.4617 20.7328 26.2729C18.9815 29.6714 18.1718 32.9226 18.1446 36.049C18.1174 39.1927 18.8779 42.2408 20.2669 45.2106C21.6825 48.2374 23.5619 50.3889 25.3716 52.4601C28.1841 55.6795 30.8427 58.7242 31.7758 64.3399ZM43.5507 65.7157L32.0897 67.3423C32.1255 68.0709 32.1368 68.8374 32.1208 69.6451L43.4379 68.0384C43.4465 67.2188 43.4843 66.4463 43.5507 65.7157ZM32.1779 72.6832C32.2576 73.2944 32.375 73.8552 32.5263 74.3669L43.5115 73.0157C43.5826 72.4463 43.5985 71.8391 43.548 71.1953H43.5487L43.548 71.1841L43.5401 71.0699L32.1779 72.6832ZM34.0938 77.2199C34.5179 77.6645 34.9898 78.0069 35.4901 78.2512C36.256 78.6254 37.0935 78.7781 37.927 78.729C38.7791 78.6785 39.6319 78.4184 40.4064 77.9684C41.1344 77.5457 41.7914 76.9537 42.3157 76.2085L34.0938 77.2199Z" fill="#1890FF"/>
</svg>
