<svg width="53" height="52" viewBox="0 0 53 52" fill="none" xmlns="http://www.w3.org/2000/svg">
<path d="M47.8245 42.3474H5.16613C2.31752 42.3474 0 40.0299 0 37.1812V6.15709C0 3.30849 2.31752 0.990967 5.16613 0.990967H47.8245C50.6731 0.990967 52.9906 3.30849 52.9906 6.15709V37.1812C52.9906 40.0299 50.6731 42.3474 47.8245 42.3474ZM5.16613 3.56714C3.73802 3.56714 2.57617 4.72899 2.57617 6.15709V37.1812C2.57617 38.6093 3.73802 39.7712 5.16613 39.7712H47.8245C49.2526 39.7712 50.4144 38.6093 50.4144 37.1812V6.15709C50.4144 4.72899 49.2526 3.56714 47.8245 3.56714H5.16613ZM51.7025 51.9998H1.28809C0.576676 51.9998 0 51.4231 0 50.7117C0 50.0003 0.576676 49.4236 1.28809 49.4236H51.7025C52.4139 49.4236 52.9906 50.0003 52.9906 50.7117C52.9906 51.4231 52.4139 51.9998 51.7025 51.9998Z" fill="#1890FF"/>
<path d="M33 19.6392V17.3432V14.8069L26.8008 18.3047V13H25.7552C25.0719 13 24.5203 13.5553 24.5203 14.2433V19.6475L20.2805 22.1507V15.7933C19.0209 15.7933 18 16.8211 18 18.0892V24.9025C18 26.1706 19.0209 27.1984 20.2805 27.1984V24.687L24.5203 22.1838V28.7567C24.5203 29.4447 25.0719 30 25.7552 30C26.4385 30 27.1054 29.8176 27.6981 29.4695L33 26.5022V23.9659L26.8008 27.4637V20.8328L30.7195 18.6197V20.9737L33 19.6392Z" fill="#1890FF"/>
</svg>
