<svg width="53" height="50" viewBox="0 0 53 50" fill="none" xmlns="http://www.w3.org/2000/svg">
<path d="M26.5 16.2098C21.6331 16.2098 17.6783 20.1516 17.6783 25.0008C17.6783 29.8497 21.6368 33.7953 26.5 33.7953C26.9862 33.7953 27.487 33.7456 28.0756 33.638C28.762 33.5133 29.2158 32.8599 29.0923 32.1779C28.966 31.4921 28.3108 31.0354 27.6242 31.1637C27.1904 31.2422 26.83 31.2774 26.5 31.2774C23.0278 31.2774 20.2025 28.4611 20.2025 25.0008C20.2025 21.5407 23.0277 18.7238 26.5 18.7238C29.9753 18.7238 32.7967 21.5408 32.7967 25.0008C32.7967 25.3328 32.7605 25.6863 32.6807 26.1218C32.5532 26.8038 33.0108 27.461 33.6936 27.5859C34.38 27.7104 35.0382 27.2574 35.1603 26.5755C35.2666 25.9896 35.3175 25.4898 35.3175 25.0043C35.3215 20.1515 31.3627 16.2097 26.4999 16.2097L26.5 16.2098ZM52.5199 20.0518C52.4256 19.5629 52.0517 19.1731 51.5644 19.0591C48.7978 18.4239 46.4992 16.7344 45.0906 14.303C43.6808 11.8714 43.3649 9.04675 44.1929 6.34395C44.338 5.86901 44.1899 5.3511 43.8108 5.02625C41.2735 2.84108 38.3794 1.1736 35.2014 0.0700051C34.7285 -0.0937992 34.2061 0.0341678 33.8634 0.398478C31.9291 2.46968 29.315 3.60502 26.5 3.60502C23.6843 3.60502 21.0704 2.46577 19.1379 0.402339C18.7964 0.0379706 18.2696 -0.0902271 17.7982 0.0741535C14.6237 1.17365 11.726 2.84108 9.18623 5.02948C8.81076 5.35473 8.6606 5.8723 8.80666 6.34718C9.63284 9.04669 9.31373 11.8748 7.90828 14.303C6.49873 16.738 4.20092 18.4272 1.43394 19.0591C0.946407 19.1694 0.568572 19.5594 0.478752 20.0518C0.15918 21.7231 0 23.3908 0 25.0008C0 26.6114 0.159237 28.2788 0.478752 29.9497C0.572734 30.4391 0.946349 30.8281 1.43394 30.9389C4.20092 31.5739 6.49879 33.2632 7.90828 35.695C9.31373 38.1266 9.63284 40.9516 8.80666 43.654C8.6606 44.1289 8.8107 44.6471 9.18623 44.9717C11.7262 47.1569 14.6199 48.8244 17.7982 49.9277C17.9321 49.9746 18.0735 49.9992 18.2116 49.9992C18.5573 49.9992 18.8915 49.8601 19.1351 49.5997C21.0698 47.5356 23.6843 46.3967 26.5001 46.3967C29.315 46.3967 31.9292 47.5318 33.8611 49.5997C34.2023 49.9637 34.7243 50.0922 35.1976 49.9317C38.3711 48.8319 41.2664 47.1638 43.809 44.976C44.1859 44.6507 44.334 44.1325 44.19 43.6576C43.3615 40.9586 43.681 38.1302 45.0907 35.6989C46.4994 33.2666 48.7979 31.5778 51.5646 30.9423C52.0519 30.832 52.4258 30.4429 52.52 29.9536C52.8404 28.2789 53 26.6115 53 25.0049C53.0001 23.3938 52.8404 21.7264 52.52 20.0517L52.5199 20.0518ZM50.1776 28.711C47.1206 29.6321 44.5018 31.6847 42.9029 34.442C41.3094 37.1945 40.8338 40.4796 41.5564 43.5752C39.6096 45.1433 37.445 46.3893 35.1065 47.2855C32.7641 45.0823 29.739 43.8829 26.5001 43.8829C23.3106 43.8829 20.2204 45.1144 17.8921 47.2855C15.5533 46.3892 13.3894 45.1431 11.4455 43.5752C12.1875 40.451 11.7191 37.2375 10.0984 34.4413C8.4968 31.6847 5.87802 29.6321 2.82107 28.7111C2.62143 27.4543 2.51924 26.2108 2.51924 25.0043C2.51924 23.7974 2.62137 22.5514 2.82107 21.2946C5.87479 20.3729 8.49368 18.32 10.091 15.5634C11.6858 12.8099 12.1618 9.52503 11.4399 6.42939C13.3859 4.85819 15.5454 3.61574 17.8881 2.71577C20.2169 4.89011 23.3108 6.1223 26.5001 6.1223C29.739 6.1223 32.7637 4.91863 35.1105 2.71934C37.4535 3.61603 39.6175 4.86176 41.5619 6.42934C40.8362 9.52497 41.3095 12.8098 42.9031 15.5633C44.502 18.3199 47.1208 20.3729 50.1778 21.2945C50.3779 22.5545 50.4799 23.7973 50.4799 25.0042C50.4798 26.2074 50.3779 27.4507 50.1777 28.7111L50.1776 28.711Z" fill="#1890FF"/>
</svg>
